<svg xmlns="http://www.w3.org/2000/svg" width="28" height="28" viewBox="0 0 28 28"><path d="M13.969 12.969c0-.547.453-1 1-1s1 .453 1 1-.453 1-1 1-1-.453-1-1zm1-4.688L21.188.359a.975.975 0 0 1 .875-.391c.344.047.641.25.797.547l1 2a.927.927 0 0 1 .109.453c0 .172-.047.344-.125.484l-6.047 10.781 1.031 1.719c.031.063.063.125.078.187.484-.141 1-.203 1.516-.156 1.609.141 3.141 1.219 4.234 2.938.844 1.328 1.313 2.859 1.313 4.328 0 1.406-.422 2.594-1.219 3.469a3.92 3.92 0 0 1-3.234 1.234c-1.594-.141-3.141-1.219-4.234-2.922-.844-1.328-1.313-2.875-1.313-4.344 0-.875.172-1.672.484-2.359a1.2 1.2 0 0 1-.344-.344l-1.141-1.906-1.141 1.906a1.2 1.2 0 0 1-.344.344c.313.688.484 1.484.484 2.359 0 1.469-.469 3.016-1.313 4.344-1.094 1.703-2.641 2.781-4.234 2.922a3.877 3.877 0 0 1-3.219-1.234c-.812-.875-1.234-2.063-1.234-3.469 0-1.469.469-3 1.313-4.328 1.078-1.719 2.625-2.797 4.234-2.938a4.127 4.127 0 0 1 1.516.156c.016-.063.047-.125.078-.187l1.031-1.719L6.092 3.452a1.019 1.019 0 0 1-.125-.484c0-.156.031-.313.109-.453l1-2c.156-.297.453-.5.797-.547a.972.972 0 0 1 .875.391zm-4.063 10.641c-.875-.953-2.453-.359-3.516 1.328-.609.953-.922 2.063-.922 3 0 .719.187 1.359.562 1.766.875.953 2.453.359 3.516-1.328.609-.953.922-2.047.922-3 0-.719-.187-1.359-.562-1.766zm11.641 1.328c-1.062-1.687-2.641-2.281-3.516-1.328-.375.406-.562 1.047-.562 1.766 0 .953.313 2.047.922 3 1.062 1.687 2.641 2.281 3.516 1.328.375-.406.562-1.047.562-1.766 0-.938-.313-2.047-.922-3zm-9.578-2.781l.906-1.5h-.172a1.03 1.03 0 0 1-.875-.516l-.125-.219-.734 1.234.406.406c.125.125.25.219.359.344.047.047.063.078.094.109zm3.5-3.5l.5-1.5-9-11.5-1 2 6.734 12h1.766l1.5 2.5.125-.141c.047-.031.063-.063.094-.109.125-.125.25-.219.375-.344l.406-.406zm6.5-11l-1-2-6.375 8.125 2.156 2.766c.063.047.078.125.109.203z"/></svg>