<svg xmlns="http://www.w3.org/2000/svg" viewBox="0 0 84.8 84.8"><path fill="#13A538" d="M72.7 84.8H12.1C5.5 84.8 0 79.4 0 72.7V12.1C0 5.5 5.5 0 12.1 0h60.6c6.7 0 12.1 5.5 12.1 12.1v60.6c0 6.7-5.4 12.1-12.1 12.1z"/><g fill="#FFF"><path d="M67 57.9c-1.5-2.6-2.5-2.8-5.1-3.6-2.5-.8-5.2-1.9-6-3.5l-.1.1c-1.9-2-3.5-3.6-3.8-3.9-.7-.7-1.1-1.5-2.7-1.7-1.7-.2-8.3-.2-16.9-2.2 0 0-8.4-1.8-15.5 2.4 0 0-.2.1-.6.4-3.5-1.9-10-6.1-12.9-12.2 0 0-1.5 11 12.8 15.2l.3 1.5s-.7 4.8 1.7 10.3c0 0 1.8 3.7-1.2 8.2 0 0 .2 6-.2 7.8 0 0 .2 1.7 2.9 1.7H21s.4-2.3-2.1-2.4c0 0 .5-5.4 1.2-6.8 0 0 .8 4 1.7 6.1 0 0 .5.8 2.9.7 0 0 .9-2.2-1.4-2.2 0 0-2-6.9 1-11.2 0 0 1.3-2.3 1.6-3.9 0 0 .8-2.5 5-.7 0 0 3.1.8 4.7 2.3l5.5 1.7 3.5 12.2s1.8.5 2.7 2.2c0 0 1 .7 2.8.7h1s.6-2-1.8-2.3c-2.4-.3-3-4.8-3.1-8.3l.2-2.4 1.9-1.6s.6-.2 1.5-.4c1.5-.2 3.8-.4 6.4.5 2 1 2.3 4.9 2.3 4.9 1.1 5.6 4.8 5 6.2 4.8C66.1 72.1 66 71 66 71v-3.4s-.1-1.1 1.3-2c0 0 .9-.3.8-1.8.2-1.5.3-3.3-1.1-5.9zm7.8-30c0-.6.5-4-1.7-6.9 1.9-2.6 3.9-8.3 2.4-11.8-.7-1.6-3.2-3.6-4-4.5-1.3-.8-2.1-1.8-2.6-1.4-.2.1-1 .7 0 2.5.5.8 3.4 3.4 4 4 1.7 2 .1 7.7-2 9.1-1.2-.5-6.5-2.8-11.5-.4-5.3 2.6-4.3 5.8-6.9 5.5-2.6-.3-4.2-1.7-7.2 0-3 .5-3.8.6-3.8.6s.3 1.1 2.1 1.5c.2.8-.5 1.5 0 2.7.5 1.2.7 1.4.7 2s-.4.8.5 1.5c1.7 1.3 4-.3 4-.3s2 .7 3.4 1.2 2.6 1.8 2.7 2.7c.1 1-.5 2.3-.5 2.3s-2.2 0-1.5 1.3H56s1.8-2.1 1.9-3c.1-.9.5-2.3.5-2.3 1.2-.5 4.8-3.7 6-3.2 1.4.6.3 3.2.3 3.2s0 1.3-1.4 2.4l-1.4 1.1s-2.2-.4-2.2.9 1.5.8 2.1.8c.7 0 1.3.1 1.3.1s5-4.3 5-4.9c0-.6 1.1-3.7 1.1-3.7s3.6 2.8 4.8 2.8v3.4s-1.6.3-1.2 1.3c.3 1.1 2.2.3 2.2.3s2.3-4.2 1.5-7.5c-1.1-1.4-1.7-2.5-1.7-3.3z"/><path d="M75.2 74.5s-.2-.8-1.3-.8H59.1c-1.1 0-1.3.8-1.3.8l-1.9 5.6s4.6 1.3 10.7 1.3 10.7-1.3 10.7-1.3l-2.1-5.6zM44.7 36s-.1-.5-.9-.5h-10c-.7 0-.8.5-.8.5l-1.3 3.5s3.1.8 7.1.8c4.1 0 7.1-.8 7.1-.8L44.7 36z"/></g></svg>