<svg xmlns="http://www.w3.org/2000/svg" viewBox="0 0 84.8 84.8"><path fill="#E50076" d="M79 84.8H5.8C2.6 84.8 0 82.2 0 79V5.8C0 2.6 2.6 0 5.8 0H79c3.2 0 5.8 2.6 5.8 5.8V79c0 3.2-2.6 5.8-5.8 5.8z"/><path fill="#FFF" d="M69.7 67.1c-1.6 0-9.8-3.4-11.9-4.5-2.1-1.1-1.8-4-1.8-4s2.9 1.5 5.1.1c1.4-.9.7-1.2.7-2.2s.4-1.2 1.1-3c.7-1.7-.2-2.7 0-3.9 2.6-.6 3.1-2.2 3.1-2.2s-1.1-.2-5.5-.9c-4.4-2.5-6.7-.4-10.5 0s-12.9-2.3-20.6-6.1c-7.3-3.5-14.6-.5-15.5 0-3-2-7.1-6-4.6-8.9 3.2-3.8 6.2-9.1 5.4-12.2-.5-2-2.7-3.7-2.9.7-.1 4.4-4.8 5-7.6 11.6-2.3 5.2 3.8 10.1 6.5 11.9-3.3 4.1-2.7 9-2.7 10 0 1.2-.8 2.8-3.1 5.1-1.1 4.9 2.3 11 2.3 11s2.8 1.1 3.2-.5c.5-1.6-1.8-2-1.8-2v-5c1.8.1 8-2.9 8-2.9s.6 3.4.6 4.3c0 .9 7.3 7.1 7.3 7.1s1-.1 1.9-.1c1 0 3.1.7 3.1-1.2S26.3 68 26.3 68l-2-1.6c-2-1.6-1.2-2.9-1.2-2.9s2.3-5.1 4.3-6c2-.9 13.2 4.2 13.2 4.2l5.8 7.6h4.5c1.1-1.9-2.1-1.9-2.1-1.9s-.8-1.7-1.4-2.8c-.6-1.1-1.2-4.8.4-3.3s9.4 6.1 11.5 6.6c2.1.5 5.6 1.3 5.6 1.3s3.9.1 6.1 0c2.2-.2.3-2.1-1.3-2.1z"/><circle fill="#FFF" cx="76.8" cy="65.9" r="4.1"/></svg>