<svg xmlns="http://www.w3.org/2000/svg" viewBox="0 0 84.8 84.8"><path fill="#E50076" d="M72.7 84.8H12.1C5.5 84.8 0 79.4 0 72.7V12.1C0 5.5 5.5 0 12.1 0h60.6c6.7 0 12.1 5.5 12.1 12.1v60.6c0 6.7-5.4 12.1-12.1 12.1z"/><g fill="#FFF"><circle cx="54" cy="75.4" r="3.5"/><path d="M48.2 76.5c-1 0-6.6-2.3-8-3-1.4-.7-1.2-2.7-1.2-2.7s1.9 1 3.4 0c.9-.6.5-.8.5-1.5s.2-.8.7-2c.5-1.2-.2-1.8 0-2.6 1.8-.4 2.1-1.5 2.1-1.5s-.7-.1-3.7-.6c-3-1.7-4.5-.3-7.1 0-2.6.2-8.7-1.6-13.9-4.1-4.9-2.4-9.8-.3-10.5 0-2-1.4-4.8-4-3.1-6 2.2-2.6 4.2-6.1 3.6-8.2-.4-1.4-1.8-2.5-1.9.5-.1 3-3.2 3.4-5.1 7.8-1.5 3.5 2.6 6.8 4.4 8-2.1 2.9-1.6 6.2-1.6 6.8 0 .8-.6 1.9-2.1 3.4-.7 3.3 1.5 7.4 1.5 7.4s1.9.7 2.2-.3c.3-1.1-1.2-1.3-1.2-1.3v-3.4c1.2.1 5.4-2 5.4-2s.4 2.3.4 2.9c0 .6 4.9 4.8 4.9 4.8s.6-.1 1.3-.1 2.1.5 2.1-.8-2.2-.9-2.2-.9L17.7 76c-1.4-1.1-.8-2-.8-2s1.5-3.5 2.9-4c1.4-.6 8.9 2.8 8.9 2.8l3.9 5.1h3.1c.7-1.3-1.4-1.3-1.4-1.3s-.6-1.2-1-1.9-.8-3.2.2-2.2 6.3 4.1 7.8 4.4c1.4.3 3.8.9 3.8.9s2.7.1 4.1 0c1.4.1.1-1.3-1-1.3z"/><path d="M16.3 31.8l-.1-.1 2-2 .3-.1 8-1.9c.1 0 .1 0 .2-.1.1 0 .3-.1.4-.1-2.2-.9-6.1-2.5-7.5-3.8-4 0-3.8-2.3-3.8-2.3l1.2-.2v-.1l3.1-.6.3.1 8.4 3.4c.1 0 .2.1.2.1.6.2 1.3.4 1.9.5 0 0 3.6 1 3.5-2.1v-.1c-.2-.5-.5-1-.7-1.4-1.1-2.2-5.5-2.6-5.5-2.6-2.8-.5-4.2-1.7-4.9-2.9 0-.1 0-.3.6-.2.8.2 3.7.5 3.7.5s-3.8-.7-4.8-2.3c-.1-.9 0-1.6.1-2.1.2-1.6 1.4-1.5 1.4-1.5l3.8.1s1.3.1 2.3-1.4c0 0 .3-1 2.1-.9 1.7.1 3.8-.1 6.7 1.6 2.8 1.6 3.1 2.7 3.9 5.3 0 0 .4 1.8 1.5 4.1v.1c1 1.9 2.6 4.1 5 5.6 0 0 .9.6 2.1 4.4l1.7 5.5s.9 1.6 2.3 3.8c1.7 2.6 3.5 4.9 4.6 5.8 2.8 2.2 9 6.6 14.2 5.5 5.2-1.1 5.9-8.2 5.9-8.2s1.9 0 1.3 3c0 0-1.4 12.7-16.4 8 .5 1.9.8 4.7-.8 7.6 0 0 1.5 3.4 5.5 4.5 2.5.7 2.9 1.3 2.9 1.3s-1 6.1-.3 9.7c0 0-.1.8-1 1.3 0 0-.1 0-.1.1-.7.3-1.8.5-3.5-.1 0 0-.5-1.5 1.6-2-.1-.3-.2-.7-.3-1.2-.5-3.8-.4-5.6-.4-5.6s-2.1-.4-4.7-1.3c.1.1.2.1.3.2 2.2 1.3 2.4 2.1 2.4 2.1s-2.6 5.5-3 9.3c0 0-.4.7-1.3 1h-.2c-.7.1-1.8-.1-3.3-1.1 0 0 0-1.6 2.1-1.5 0-.4 0-.8.1-1.2.6-3.8 1.2-5.4 1.2-5.4s-10.9-5.3-11.4-12.5l-.4-7.4s-2.1-2.2-5-5.1l.2-.2c-2.2-1.9-4.6-3.8-6.7-5.1 0 0-2.8-2-3.6-5.5l-9.1-2.9c-2.2.5-5.4 1.1-7 1-3 2.1-4 .3-4 .3l.8-.7z"/><circle cx="16.5" cy="10.8" r="3.4"/></g></svg>