<svg xmlns="http://www.w3.org/2000/svg" viewBox="0 0 84.8 84.8"><path fill="#1961AC" d="M79 84.8H5.8C2.6 84.8 0 82.2 0 79V5.8C0 2.6 2.6 0 5.8 0H79c3.2 0 5.8 2.6 5.8 5.8V79c0 3.2-2.6 5.8-5.8 5.8z"/><path fill="#FFF" d="M61.2 21.8s5.8-2 7.6-4.2c1.9-2.2 2.2-2.2 2.6-1.9.4.3.2-.7 1.3-.1 1.1.7 1.3 1.9 1.8 2.6.5.7.5 1.7-1.1 2.7-1.6 1-3 1.9-4.5 3.6-1.5 1.7-4.2 5.2-6.1 5.7-2 .5-3.5.3-4.7 1.8-1.2 1.5-3.3 6.9-4.9 9.4-1.7 2.5-4.7 7.3-7.7 8.7-2.9 1.4-4.9 3.4-5.3 4.7-.4 1.3-2.2 6.1-3.7 8.2-1.4 2-4.7 6-4.7 6.9 0 .9.7 3.4.9 5.1.2 1.7-.4 3.9-1.6 4.1-1.2.2-1.7-1-1.5-1.8.1-.8.7-2.5 0-3.5-.6-1-1.9-4.3-1.6-6.4.2-2.1 1-5.1-.8-4.4-1.8.6-3 .3-3.2 1.4-.2 1.1.2 4.1-.3 5.4-.6 1.3-1.6 3.3-3.3 2.9-1.7-.5-1.2-1.9-.6-2.9.6-.9 1.2-2.9 1-5-.2-2.1.2-5.5 1.6-6.6 1.4-1.2 3.5-2 3.8-4.4.3-2.3 1.2-4.7-1.5-6.7-2.6-2-5.9-4.9-7.6-6.4-1.7-1.5-5.5-3.5-6.3-3.7-.8-.3-6.9-4.3-3.1-4.4 3.9-.2 3.6.8 8.1 2.6s7.6 4.1 10.1 6.7c2.6 2.6 4.2 5.5 6.6 2.8 2.4-2.7 6.3-7.6 8-10.4 1.7-2.8 2.5-5.8 4.2-8 1.7-2.3 3.2-5.7 3.8-8.3.6-2.6 2.3-4.6 3.3-5.6 1-1.1 3.8-3.1 4.4-4.1.6-.9 2.6-3.4 2.7-1.6.1 1.9-.1 4.6-.1 4.6s1.5-.2 2.7 1.6c1.2 1.8.6 2.2 1.7 2.9 1 .7.6 1.3.5 2 0 .7.1 1.6-1.7 2-1.8.2-1.4.9-.8 2z"/></svg>