<svg xmlns="http://www.w3.org/2000/svg" viewBox="0 0 84.8 84.8"><path fill="#13A538" d="M79 84.8H5.8C2.6 84.8 0 82.2 0 79V5.8C0 2.6 2.6 0 5.8 0H79c3.2 0 5.8 2.6 5.8 5.8V79c0 3.2-2.6 5.8-5.8 5.8z"/><path fill="#FFF" d="M46.9 63.8c.2 1.5 3.2 5 3.2 5h5.1c1.2-2.2-2.4-2.1-2.4-2.1s-1-2.1-.7-3.8c.2-1.4 2.2-3.6 4.5-4.4 2.4-.9 5.6-2 5.6-2s3.7 2.6 6.6.4c1.5-1.1.8-1.4.8-2.5S70 53 70.8 51c.8-2-.3-3 0-4.4 3-.7 3.5-2.5 3.5-2.5s-1.2-.3-6.2-1.1c-5-2.9-7.6-.5-11.9 0-4.3.4-14.6-2.6-23.4-6.9-8.2-4-16.5-.5-17.6-.1-3.4-2.3-8-6.8-5.2-10.1 3.6-4.3 7-10.2 6.1-13.9-.5-2.2-3.1-4-3.2 1-.1 5-5.4 5.7-8.6 13.2-2.6 5.8 4.3 11.3 7.3 13.3C8.1 44.4 8.9 49.9 8.9 51c0 1.3-1 3.2-3.5 5.7C4.2 62.2 8 69.2 8 69.2s3.1 1.2 3.7-.6c.5-1.8-2-2.2-2-2.2v-5.7c2 .1 9.1-3.3 9.1-3.3s.7 3.9.7 4.8 8.2 8.1 8.2 8.1 1.1-.2 2.2-.2 3.5.8 3.5-1.3c0-2.2-3.6-1.4-3.6-1.4l-2.3-1.8c-2.3-1.8-1.4-3.3-1.4-3.3s2.6-5.8 4.9-6.8c2.1-.9 13.3 3.7 15.3 4.6-.3 0 .4 2.2.6 3.7zm14.6 5l1.9-5.1 16.4.1 1.4 5s-6.7 2.4-19.7 0z"/></svg>