<svg xmlns="http://www.w3.org/2000/svg" width="27.313" height="18.889" viewBox="1.306 6.098 27.313 18.889"><path fill="#fff" d="M24.659 23.738c-.566 0-3.468-1.203-4.211-1.592-.742-.391-.637-1.416-.637-1.416s1.025.53 1.805.035c.495-.317.247-.425.247-.777 0-.354.142-.426.39-1.063.248-.601-.07-.955 0-1.38.92-.212 1.098-.776 1.098-.776s-.391-.071-1.946-.318c-1.557-.885-2.37-.143-3.715 0-1.345.141-4.563-.814-7.288-2.159-2.583-1.238-5.165-.177-5.483 0-1.062-.708-2.512-2.123-1.627-3.148 1.132-1.345 2.193-3.22 1.911-4.316-.18-.708-.958-1.309-1.029.248-.035 1.556-1.698 1.769-2.688 4.104-.813 1.84 1.344 3.573 2.299 4.21-1.167 1.45-.955 3.183-.955 3.537 0 .425-.283.991-1.097 1.804-.389 1.734.814 3.894.814 3.894s.99.39 1.132-.179c.177-.564-.637-.706-.637-.706v-1.771c.637.036 2.83-1.025 2.83-1.025s.212 1.203.212 1.521 2.583 2.512 2.583 2.512.354-.035.672-.035c.354 0 1.097.248 1.097-.424 0-.674-1.132-.461-1.132-.461l-.708-.565c-.708-.566-.424-1.025-.424-1.025s.813-1.805 1.521-2.123c.708-.317 4.67 1.486 4.67 1.486l2.052 2.688h1.592c.391-.674-.742-.674-.742-.674s-.283-.601-.494-.99c-.213-.389-.426-1.696.141-1.166.567.529 3.326 2.156 4.068 2.334.743.178 1.98.459 1.98.459s1.381.037 2.158 0c.778-.071.107-.743-.459-.743z"/><circle fill="#fff" cx="27.17" cy="23.313" r="1.45"/></svg>