<?xml version="1.0" standalone="no"?>
<!DOCTYPE svg PUBLIC "-//W3C//DTD SVG 1.1//EN" "http://www.w3.org/Graphics/SVG/1.1/DTD/svg11.dtd" >
<svg xmlns="http://www.w3.org/2000/svg" xmlns:xlink="http://www.w3.org/1999/xlink" version="1.1">
<metadata>
Created by FontForge 20161116 at Tue Jan 17 13:35:40 2006
 By Jimmy Warting
Please review the description of this font at http://www.itcfonts.com.
</metadata>
<defs>
<font id="ITCAvantGardeStd-XLtObl" horiz-adv-x="555" >
  <font-face 
    font-family="ITC Avant Garde Std XLt"
    font-weight="275"
    font-style="italic"
    font-stretch="normal"
    units-per-em="1000"
    panose-1="2 0 5 3 3 0 0 9 0 4"
    ascent="740"
    descent="-260"
    x-height="530"
    cap-height="740"
    bbox="-137 -274 1324 976"
    underline-thickness="50"
    underline-position="-100"
    slope="-12"
    stemh="26"
    stemv="28"
    unicode-range="U+0020-FB04"
  />
<missing-glyph horiz-adv-x="500" 
d="M12 0v665h475v-665h-475zM88 618l162 -243l161 243h-323zM60 575v-484c0 -1 161 242 161 242zM440 575l-162 -242l162 -243v485zM411 48l-161 242l-162 -242h323z" />
    <glyph glyph-name="f_t" unicode="ft" horiz-adv-x="459" 
d="M549 530l-5 -26h-136l-93 -504h-28l93 504h-165l-93 -504h-28l93 504h-87l5 26h87l10 52c7 37 30 163 198 171l-5 -27c-37 -3 -140 -8 -165 -141l-10 -55h165l39 210h28l-39 -210h136z" />
    <glyph glyph-name="f_f_t" unicode="fft" horiz-adv-x="652" 
d="M742 530l-5 -26h-136l-93 -504h-28l93 504h-165l-93 -504h-28l93 504h-165l-93 -504h-28l93 504h-87l5 26h87l10 52c7 37 30 163 198 171l-5 -27c-37 -3 -140 -8 -165 -141l-10 -55h165l10 52c7 37 30 163 198 171l-5 -27c-37 -3 -140 -8 -165 -141l-10 -55h165l39 210
h28l-39 -210h136z" />
    <glyph glyph-name="f_f" unicode="ff" horiz-adv-x="522" 
d="M593 753l-5 -27c-37 -3 -140 -8 -165 -141l-10 -55h165l-5 -26h-165l-93 -504h-28l93 504h-165l-93 -504h-28l93 504h-87l5 26h87l10 52c7 37 30 163 198 171l-5 -27c-37 -3 -140 -8 -165 -141l-10 -55h165l10 52c7 37 30 163 198 171z" />
    <glyph glyph-name="f_i" unicode="fi" horiz-adv-x="393" 
d="M452 740l-17 -91h-28l17 91h28zM413 530l-98 -530h-28l93 504h-165l-93 -504h-28l93 504h-87l5 26h87l10 52c20 108 85 166 198 171l-5 -27c-93 -7 -145 -46 -165 -141c-3 -18 -6 -37 -10 -55h193z" />
    <glyph glyph-name="f_l" unicode="fl" horiz-adv-x="393" 
d="M452 740l-137 -740h-28l93 504h-165l-93 -504h-28l93 504h-87l5 26h87l10 52c20 108 85 166 198 171l-5 -27c-93 -7 -145 -46 -165 -141c-3 -18 -6 -37 -10 -55h165l39 210h28z" />
    <glyph glyph-name="f_f_i" unicode="ffi" horiz-adv-x="586" 
d="M645 740l-17 -91h-28l17 91h28zM606 530l-98 -530h-28l93 504h-165l-93 -504h-28l93 504h-165l-93 -504h-28l93 504h-87l5 26h87l10 52c7 37 30 163 198 171l-5 -27c-37 -3 -140 -8 -165 -141l-10 -55h165l10 52c7 37 30 163 198 171l-5 -27c-37 -3 -140 -8 -165 -141
l-10 -55h193z" />
    <glyph glyph-name="f_f_l" unicode="ffl" horiz-adv-x="586" 
d="M645 740l-137 -740h-28l93 504h-165l-93 -504h-28l93 504h-165l-93 -504h-28l93 504h-87l5 26h87l10 52c7 37 30 163 198 171l-5 -27c-37 -3 -140 -8 -165 -141l-10 -55h165l10 52c7 37 30 163 198 171l-5 -27c-37 -3 -140 -8 -165 -141l-10 -55h165l39 210h28z" />
    <glyph glyph-name=".notdef" horiz-adv-x="500" 
d="M12 0v665h475v-665h-475zM88 618l162 -243l161 243h-323zM60 575v-484c0 -1 161 242 161 242zM440 575l-162 -242l162 -243v485zM411 48l-161 242l-162 -242h323z" />
    <glyph glyph-name="space" unicode=" " horiz-adv-x="277" 
 />
    <glyph glyph-name="exclam" unicode="!" horiz-adv-x="259" 
d="M282 740l-106 -574h-30l106 574h30zM160 81l-15 -81h-30l15 81h30z" />
    <glyph glyph-name="quotedbl" unicode="&#x22;" horiz-adv-x="333" 
d="M376 740l-55 -296h-30l55 296h30zM261 740l-55 -296h-30l55 296h30z" />
    <glyph glyph-name="numbersign" unicode="#" 
d="M621 454l-7 -23h-152l-45 -137h152l-7 -23h-151l-78 -240h-24l77 240h-143l-77 -240h-25l78 240h-151l7 23h151l45 137h-151l8 23h151l72 221h24l-72 -221h143l72 221h24l-72 -221h151zM439 431h-143l-46 -137h143z" />
    <glyph glyph-name="dollar" unicode="$" 
d="M563 587c0 -6 0 -13 -1 -19h-30c1 4 1 8 1 13c0 70 -49 122 -120 122c-91 0 -170 -84 -170 -174c0 -155 276 -69 276 -264c0 -116 -101 -219 -216 -227l-18 -95h-30l18 95c-89 8 -150 70 -150 161c0 9 1 19 2 28h30c-1 -7 -1 -14 -1 -21c0 -85 58 -139 141 -139
c103 0 193 90 193 193c0 170 -276 84 -276 265c0 106 86 192 189 205l15 80h30l-15 -80c81 -10 132 -60 132 -143z" />
    <glyph glyph-name="percent" unicode="%" horiz-adv-x="719" 
d="M461 623c0 -106 -90 -196 -197 -196c-78 0 -136 49 -136 130c0 106 90 196 197 196c78 0 136 -49 136 -130zM740 740l-594 -740h-32l594 740h32zM728 183c0 -106 -90 -196 -196 -196c-79 0 -136 49 -136 130c0 106 90 196 196 196c78 0 136 -49 136 -130zM432 620
c0 67 -46 108 -112 108c-92 0 -163 -77 -163 -168c0 -67 46 -108 112 -108c91 0 163 77 163 168zM700 180c0 67 -46 108 -113 108c-91 0 -163 -77 -163 -168c0 -67 46 -108 112 -108c92 0 164 77 164 168z" />
    <glyph glyph-name="ampersand" unicode="&#x26;" horiz-adv-x="721" 
d="M730 467l-185 -261l156 -197l-25 -20l-150 189c-70 -101 -123 -191 -261 -191c-102 0 -177 67 -177 170c0 139 128 225 244 268c-32 42 -74 87 -74 143c0 98 90 185 188 185c77 0 136 -55 136 -133c0 -120 -110 -165 -204 -204l149 -188l170 239h33zM552 616
c0 64 -47 109 -111 109c-77 0 -152 -69 -152 -148c0 -56 42 -98 73 -139c84 34 190 69 190 178zM507 200l-159 204c-106 -43 -230 -113 -230 -244c0 -91 67 -145 155 -145c123 0 173 93 234 185z" />
    <glyph glyph-name="quoteright" unicode="&#x2019;" horiz-adv-x="277" 
d="M324 740l-92 -154h-33l92 154h33z" />
    <glyph glyph-name="parenleft" unicode="(" horiz-adv-x="425" 
d="M533 753l-7 -35c-201 -112 -356 -347 -356 -580c0 -143 59 -291 179 -375l-7 -37c-48 35 -82 66 -117 116c-59 84 -87 190 -87 292c0 253 174 503 395 619z" />
    <glyph glyph-name="parenright" unicode=")" horiz-adv-x="425" 
d="M376 346c0 -253 -173 -504 -395 -620l7 34c200 113 356 347 356 581c0 142 -60 291 -179 375l7 37c48 -35 82 -66 117 -116c59 -84 87 -189 87 -291z" />
    <glyph glyph-name="asterisk" unicode="*" horiz-adv-x="573" 
d="M542 654l-116 -61l95 -63l-18 -24l-97 61l-23 -123h-29l23 124l-117 -62l-11 25l119 62l-96 60l20 26l94 -62l23 123h29l-23 -123l118 62z" />
    <glyph glyph-name="plus" unicode="+" horiz-adv-x="600" 
d="M599 264l-5 -28h-236l-44 -236h-28l44 236h-236l5 28h236l44 237h28l-44 -237h236z" />
    <glyph glyph-name="comma" unicode="," horiz-adv-x="277" 
d="M171 82l-91 -154h-32l91 154h32z" />
    <glyph glyph-name="hyphen" unicode="-" horiz-adv-x="266" 
d="M320 291l-5 -29h-266l5 29h266z" />
    <glyph glyph-name="period" unicode="." horiz-adv-x="277" 
d="M169 81l-15 -81h-30l15 81h30z" />
    <glyph glyph-name="slash" unicode="/" horiz-adv-x="518" 
d="M588 740l-507 -840h-33l507 840h33z" />
    <glyph glyph-name="zero" unicode="0" 
d="M615 565c0 -16 -1 -32 -4 -47c-18 -99 -36 -197 -55 -296c-20 -107 -89 -182 -190 -218c-28 -9 -60 -17 -89 -17c-110 0 -202 68 -202 184c0 17 2 34 5 51c18 96 35 191 53 287c21 109 83 190 188 227c28 10 63 17 93 17c113 0 201 -70 201 -188zM585 559
c0 107 -72 167 -176 167c-127 0 -222 -93 -245 -214c-18 -97 -36 -193 -54 -290c-3 -14 -4 -29 -4 -44c0 -102 75 -164 174 -164c29 0 58 7 85 17c87 32 144 100 161 191c19 99 37 197 55 296c3 14 4 27 4 41z" />
    <glyph glyph-name="one" unicode="1" 
d="M442 740l-137 -740h-30l132 713h-164l5 27h194z" />
    <glyph glyph-name="two" unicode="2" 
d="M607 579c0 -112 -72 -181 -151 -249l-354 -303h407l-5 -27h-447l5 27l378 325c70 60 137 125 137 223c0 93 -66 151 -156 151c-123 0 -204 -100 -227 -212h-30c27 130 127 239 266 239c103 0 177 -69 177 -174z" />
    <glyph glyph-name="three" unicode="3" 
d="M554 618c0 -83 -56 -166 -136 -192v-2c75 -28 118 -89 118 -169c0 -13 -2 -26 -4 -38c-24 -134 -133 -230 -270 -230c-107 0 -187 74 -187 183c0 15 1 30 4 45h30c-2 -13 -3 -26 -3 -39c0 -97 68 -162 164 -162c124 0 234 106 234 232c0 105 -75 164 -177 164h-40l5 27
h39c74 0 138 29 173 97c8 15 14 32 17 48c2 10 3 21 3 31c0 70 -48 113 -116 113c-85 0 -153 -61 -174 -141h-30c24 94 106 168 206 168c81 0 144 -50 144 -135z" />
    <glyph glyph-name="four" unicode="4" 
d="M571 740l-105 -569h75l-5 -27h-75l-27 -144h-30l27 144h-387l5 26l481 570h41zM534 704h-2l-448 -533h352z" />
    <glyph glyph-name="five" unicode="5" 
d="M610 740l-5 -27h-308l-106 -279c54 36 104 58 170 58c119 0 203 -86 203 -205c0 -154 -144 -300 -299 -300c-119 0 -205 89 -205 207c0 8 1 15 1 23h30v-18c0 -105 73 -185 180 -185c136 0 262 132 262 267c0 103 -74 184 -179 184c-72 0 -135 -36 -185 -86l-24 7
l133 354h332z" />
    <glyph glyph-name="six" unicode="6" 
d="M570 291c0 -156 -137 -304 -295 -304c-122 0 -204 75 -204 198c0 89 45 164 102 229l284 326h34l-251 -288l2 -1c38 23 83 38 129 38c116 0 199 -81 199 -198zM540 287c0 101 -72 175 -173 175c-145 0 -265 -133 -265 -275c0 -106 71 -173 177 -173
c144 0 261 131 261 273z" />
    <glyph glyph-name="seven" unicode="7" 
d="M617 740l-5 -27l-462 -713h-31l461 713h-361l5 27h393z" />
    <glyph glyph-name="eight" unicode="8" 
d="M565 611c0 -85 -64 -162 -140 -192c74 -25 120 -91 120 -169c0 -140 -132 -263 -270 -263c-107 0 -188 74 -188 182c0 116 90 217 198 250c-51 24 -81 75 -81 131c0 107 108 203 213 203c83 0 148 -57 148 -142zM535 606c0 72 -53 120 -123 120c-93 0 -178 -82 -178 -176
c0 -71 53 -119 123 -119c93 0 178 82 178 175zM514 246c0 94 -69 158 -162 158c-122 0 -235 -109 -235 -232c0 -94 70 -158 163 -158c122 0 234 109 234 232z" />
    <glyph glyph-name="nine" unicode="9" 
d="M621 555c0 -89 -45 -164 -102 -229l-284 -326h-34l251 288l-1 1c-38 -23 -85 -38 -129 -38c-117 0 -200 81 -200 198c0 156 138 304 296 304c121 0 203 -75 203 -198zM590 553c0 106 -71 173 -176 173c-145 0 -262 -131 -262 -273c0 -101 72 -175 174 -175
c145 0 264 133 264 275z" />
    <glyph glyph-name="colon" unicode=":" horiz-adv-x="277" 
d="M252 530l-15 -81h-30l15 81h30zM169 81l-15 -81h-30l15 81h30z" />
    <glyph glyph-name="semicolon" unicode=";" horiz-adv-x="277" 
d="M251 530l-15 -81h-30l15 81h30zM171 82l-91 -154h-32l91 154h32z" />
    <glyph glyph-name="less" unicode="&#x3c;" horiz-adv-x="600" 
d="M643 502l-6 -31l-507 -220l426 -220l-6 -31l-456 235l5 32z" />
    <glyph glyph-name="equal" unicode="=" horiz-adv-x="600" 
d="M617 361l-5 -28h-500l5 28h500zM581 167l-5 -28h-500l5 28h500z" />
    <glyph glyph-name="greater" unicode="&#x3e;" horiz-adv-x="600" 
d="M599 267l-5 -32l-544 -235l6 31l508 220l-427 220l6 31z" />
    <glyph glyph-name="question" unicode="?" horiz-adv-x="536" 
d="M571 582c0 -110 -82 -168 -158 -232c-66 -56 -94 -100 -109 -184h-30c21 99 52 146 130 212c67 56 137 102 137 200c0 88 -67 143 -151 143c-107 0 -196 -74 -219 -178h-30c27 119 130 209 253 209c100 0 177 -68 177 -170zM287 81l-15 -81h-29l15 81h29z" />
    <glyph glyph-name="at" unicode="@" horiz-adv-x="796" 
d="M855 500c0 -20 -2 -40 -5 -59c-22 -114 -96 -209 -202 -257c-25 -12 -57 -23 -85 -23c-36 0 -67 16 -67 56c0 7 1 13 2 19h-2c-35 -43 -84 -71 -140 -71s-88 40 -88 94c0 123 134 317 268 317c53 0 91 -28 90 -83h2l36 67h28l-147 -272c-10 -20 -24 -43 -24 -66
c0 -29 24 -35 48 -35c26 0 54 10 78 22c91 44 156 131 175 231c3 19 5 38 5 56c0 150 -127 231 -265 231c-230 0 -432 -203 -432 -432c0 -168 124 -282 289 -282c129 0 265 69 339 174h25c-74 -122 -225 -200 -367 -200c-181 0 -314 124 -314 306c0 242 221 460 463 460
c150 0 290 -90 290 -253zM606 480c0 42 -32 70 -73 70c-79 0 -161 -90 -196 -153c-18 -32 -31 -66 -37 -102c-2 -11 -4 -21 -4 -32c0 -43 22 -72 66 -72c115 0 167 122 215 206c15 28 29 49 29 83z" />
    <glyph glyph-name="A" unicode="A" horiz-adv-x="687" 
d="M680 0h-32l-63 258h-387l-159 -258h-32l454 740h39zM577 285l-102 427l-259 -427h361z" />
    <glyph glyph-name="B" unicode="B" horiz-adv-x="540" 
d="M558 595c0 -91 -52 -168 -136 -202l-1 -2c76 -23 116 -77 116 -155c0 -100 -61 -184 -154 -219c-38 -14 -81 -17 -121 -17h-185l137 740h157c98 0 187 -32 187 -145zM527 590c0 100 -77 123 -161 123h-127l-58 -312h134c36 0 76 3 109 19c66 33 103 96 103 170zM507 234
c0 53 -25 98 -74 122c-37 18 -71 18 -111 18h-146l-64 -347h156c37 0 74 3 109 16c69 26 113 82 127 154c2 12 3 24 3 37z" />
    <glyph glyph-name="C" unicode="C" horiz-adv-x="786" 
d="M856 575h-35c-51 96 -154 151 -261 151c-227 0 -427 -199 -427 -426c0 -172 125 -286 295 -286c118 0 237 60 316 147h34c-81 -105 -223 -174 -355 -174c-183 0 -321 121 -321 308c0 246 218 458 463 458c123 0 238 -64 291 -178z" />
    <glyph glyph-name="D" unicode="D" horiz-adv-x="701" 
d="M737 462c0 -31 -4 -62 -9 -92c-42 -230 -208 -370 -442 -370h-209l137 740h209c181 0 314 -85 314 -278zM706 455c0 179 -120 258 -288 258h-179l-127 -686h179c215 0 368 129 406 341c5 29 9 58 9 87z" />
    <glyph glyph-name="E" unicode="E" horiz-adv-x="547" 
d="M620 740l-5 -27h-376l-60 -327h376l-5 -27h-376l-62 -332h376l-5 -27h-406l137 740h406z" />
    <glyph glyph-name="F" unicode="F" horiz-adv-x="477" 
d="M577 740l-5 -27h-333l-60 -327h333l-5 -27h-333l-67 -359h-30l137 740h363z" />
    <glyph glyph-name="G" unicode="G" horiz-adv-x="853" 
d="M877 313c-58 -190 -259 -326 -454 -326c-183 0 -321 121 -321 308c0 246 218 458 463 458c123 0 252 -58 303 -177h-36c-59 101 -157 150 -272 150c-227 0 -427 -199 -427 -426c0 -172 125 -286 295 -286c166 0 348 114 408 272h-441l5 27h477z" />
    <glyph glyph-name="H" unicode="H" horiz-adv-x="628" 
d="M688 740l-137 -740h-30l67 359h-414l-67 -359h-30l137 740h30l-65 -354h414l65 354h30z" />
    <glyph glyph-name="I" unicode="I" horiz-adv-x="185" 
d="M244 740l-137 -740h-30l137 740h30z" />
    <glyph glyph-name="J" unicode="J" horiz-adv-x="453" 
d="M514 740l-98 -528c-8 -44 -19 -83 -40 -122c-38 -73 -114 -103 -188 -103c-92 0 -153 60 -156 154h30c4 -77 55 -127 133 -127c60 0 122 32 153 85c19 34 31 74 38 113l98 528h30z" />
    <glyph glyph-name="K" unicode="K" horiz-adv-x="536" 
d="M673 740l-343 -365l206 -375h-36l-194 351l-149 -158l-36 -193h-30l137 740h30l-93 -500h2l470 500h36z" />
    <glyph glyph-name="L" unicode="L" horiz-adv-x="423" 
d="M425 27l-5 -27h-343l137 740h30l-132 -713h313z" />
    <glyph glyph-name="M" unicode="M" horiz-adv-x="933" 
d="M992 740l-137 -740h-30l132 710h-2l-480 -710h-17l-217 710h-2l-132 -710h-30l137 740h48l214 -692l469 692h47z" />
    <glyph glyph-name="N" unicode="N" horiz-adv-x="738" 
d="M798 740l-137 -740h-38l-382 710h-2l-132 -710h-30l137 740h45l377 -700h2l130 700h30z" />
    <glyph glyph-name="O" unicode="O" horiz-adv-x="851" 
d="M885 445c0 -246 -218 -458 -462 -458c-183 0 -321 121 -321 308c0 246 218 458 463 458c182 0 320 -121 320 -308zM854 440c0 172 -125 286 -294 286c-227 0 -427 -199 -427 -426c0 -172 125 -286 295 -286c226 0 426 199 426 426z" />
    <glyph glyph-name="P" unicode="P" horiz-adv-x="511" 
d="M601 571c0 -13 -1 -27 -4 -41c-11 -62 -52 -131 -106 -166c-61 -40 -121 -44 -193 -44h-142l-59 -320h-30l137 740h172c62 0 128 -1 177 -44c35 -30 48 -80 48 -125zM571 568c0 126 -94 145 -199 145h-143l-68 -366h143c65 0 120 5 176 41c44 29 78 90 87 141
c2 13 4 26 4 39z" />
    <glyph glyph-name="Q" unicode="Q" horiz-adv-x="882" 
d="M900 445c0 -151 -76 -272 -189 -365c58 -39 108 -52 177 -62l-5 -31c-89 11 -128 26 -201 74c-71 -45 -157 -74 -241 -74c-187 0 -323 119 -323 309c0 246 218 457 462 457c182 0 320 -121 320 -308zM869 440c0 172 -125 286 -294 286c-227 0 -427 -200 -427 -427
c0 -18 1 -36 5 -53c59 18 115 30 177 30c74 0 146 -17 210 -54c49 -28 109 -87 150 -124c107 80 179 206 179 342zM663 80c-28 22 -55 47 -81 71c-8 6 -16 15 -24 21c-70 53 -149 77 -237 77c-61 0 -105 -12 -162 -32c41 -136 150 -203 288 -203c73 0 155 25 216 66z" />
    <glyph glyph-name="R" unicode="R" horiz-adv-x="554" 
d="M638 553c0 -14 -1 -27 -3 -41c-5 -30 -17 -60 -31 -87c-48 -87 -129 -142 -230 -145l-29 -1l147 -279h-38l-160 306c77 0 154 -4 218 47c58 46 96 123 96 197c0 50 -18 102 -59 133c-43 32 -114 30 -165 30h-155l-132 -713h-30l137 740h169c57 0 141 0 191 -31
c53 -32 74 -97 74 -156z" />
    <glyph glyph-name="S" unicode="S" horiz-adv-x="518" 
d="M561 594c0 -5 0 -9 -1 -14h-30c1 90 -40 145 -136 145c-107 0 -202 -85 -202 -194c0 -95 97 -119 171 -139c82 -23 151 -58 151 -156c0 -135 -125 -249 -257 -249c-102 0 -179 68 -179 172c0 9 1 19 2 28h30c-1 -5 -1 -11 -1 -16c0 -93 57 -157 152 -157
c114 0 222 96 222 213c0 97 -80 125 -159 146c-81 22 -163 52 -163 152c0 130 114 227 240 227c98 0 160 -60 160 -158z" />
    <glyph glyph-name="T" unicode="T" horiz-adv-x="443" 
d="M574 740l-5 -27h-201l-132 -713h-30l132 713h-201l5 27h432z" />
    <glyph glyph-name="U" unicode="U" horiz-adv-x="605" 
d="M666 740l-89 -480c-17 -95 -45 -173 -131 -228c-43 -27 -95 -45 -146 -45c-46 0 -94 15 -129 45c-43 35 -57 82 -57 136c0 31 5 62 10 92l89 480h30l-89 -480c-5 -29 -11 -59 -11 -89c0 -98 69 -157 164 -157c57 0 121 26 161 68c55 58 65 103 79 178l89 480h30z" />
    <glyph glyph-name="V" unicode="V" horiz-adv-x="666" 
d="M796 740l-453 -740h-21l-178 740h34l164 -690l421 690h33z" />
    <glyph glyph-name="W" unicode="W" horiz-adv-x="888" 
d="M1013 740l-349 -740h-39l-58 661h-2l-302 -661h-40l-74 740h32l69 -699h2l318 699h21l62 -699h2l327 699h31z" />
    <glyph glyph-name="X" unicode="X" 
d="M673 740l-310 -364l184 -376h-35l-171 350l-300 -350h-33l322 376l-176 364h36l161 -336l287 336h35z" />
    <glyph glyph-name="Y" unicode="Y" horiz-adv-x="554" 
d="M676 740l-337 -485l-47 -255h-30l47 255l-157 485h33l146 -451l311 451h34z" />
    <glyph glyph-name="Z" unicode="Z" horiz-adv-x="499" 
d="M609 740l-535 -713h424l-5 -27h-473l535 713h-417l5 27h466z" />
    <glyph glyph-name="bracketleft" unicode="[" horiz-adv-x="425" 
d="M484 753l-7 -36c-97 -44 -156 -117 -175 -222l-95 -510c-3 -19 -6 -39 -6 -58c0 -74 35 -128 99 -163l-6 -36c-80 42 -125 103 -125 194c0 21 2 42 6 63l95 510c23 127 95 206 214 258z" />
    <glyph glyph-name="backslash" unicode="\" horiz-adv-x="518" 
d="M432 -100h-33l-195 840h33z" />
    <glyph glyph-name="bracketright" unicode="]" horiz-adv-x="425" 
d="M345 558c0 -21 -2 -42 -6 -63l-95 -510c-23 -126 -95 -205 -213 -257l6 36c97 44 156 116 175 221l95 510c3 20 6 39 6 59c0 74 -34 128 -99 163l7 36c79 -42 124 -103 124 -195z" />
    <glyph glyph-name="asciicircum" unicode="^" horiz-adv-x="600" 
d="M558 375h-32l-95 332l-217 -332h-32l239 365h32z" />
    <glyph glyph-name="underscore" unicode="_" horiz-adv-x="500" 
d="M486 -75l-9 -50h-500l9 50h500z" />
    <glyph glyph-name="quoteleft" unicode="&#x2018;" horiz-adv-x="277" 
d="M296 586h-33l-36 154h33z" />
    <glyph glyph-name="a" unicode="a" horiz-adv-x="674" 
d="M694 530l-98 -530h-28l24 132h-2c-63 -91 -162 -145 -272 -145c-136 0 -233 87 -233 225c0 179 158 331 336 331c91 0 199 -50 218 -148h2l25 135h28zM625 315c0 123 -89 202 -209 202c-161 0 -302 -138 -302 -300c0 -128 86 -204 211 -204c161 0 300 142 300 302z" />
    <glyph glyph-name="b" unicode="b" horiz-adv-x="674" 
d="M687 318c0 -179 -158 -331 -335 -331c-101 0 -187 46 -220 145h-2l-24 -132h-28l137 740h28l-64 -345h2c61 92 163 148 274 148c136 0 232 -86 232 -225zM659 316c0 123 -90 201 -209 201c-162 0 -303 -139 -303 -301c0 -122 86 -203 206 -203c165 0 306 138 306 303z
" />
    <glyph glyph-name="c" unicode="c" horiz-adv-x="619" 
d="M650 358h-31c-17 103 -102 159 -202 159c-163 0 -304 -139 -304 -302c0 -122 90 -202 209 -202c104 0 213 61 261 154h31c-58 -109 -173 -180 -296 -180c-134 0 -233 84 -233 221c0 19 2 38 5 57v-1c29 157 170 279 331 279c115 0 212 -67 229 -185z" />
    <glyph glyph-name="d" unicode="d" horiz-adv-x="677" 
d="M733 740l-137 -740h-28l24 132h-2c-63 -91 -162 -145 -272 -145c-136 0 -233 87 -233 225c0 179 158 331 336 331c91 0 199 -50 218 -148h2l64 345h28zM625 315c0 123 -89 202 -209 202c-161 0 -302 -138 -302 -300c0 -128 86 -204 211 -204c161 0 300 142 300 302z" />
    <glyph glyph-name="e" unicode="e" horiz-adv-x="619" 
d="M643 320c0 -19 -1 -40 -6 -58h-528c-3 -16 -5 -32 -5 -49c0 -119 93 -200 209 -200c103 0 197 55 252 140h31c-63 -102 -168 -166 -288 -166c-134 0 -233 85 -233 222c0 19 2 38 5 56v-1c29 157 171 279 332 279c132 0 231 -87 231 -223zM615 318c0 113 -92 199 -204 199
c-135 0 -264 -97 -297 -229h499c2 10 2 20 2 30z" />
    <glyph glyph-name="f" unicode="f" horiz-adv-x="263" 
d="M400 753l-5 -27c-93 -7 -145 -46 -165 -141c-3 -18 -6 -37 -10 -55h138l-5 -26h-138l-93 -504h-28l93 504h-87l5 26h87l10 52c20 108 85 166 198 171z" />
    <glyph glyph-name="g" unicode="g" horiz-adv-x="675" 
d="M696 530l-87 -471c-23 -123 -99 -217 -216 -263c-32 -12 -71 -22 -106 -22c-105 0 -204 57 -231 163h32c14 -33 28 -58 54 -82c38 -36 94 -55 146 -55c142 0 266 118 292 254c5 26 10 52 14 78h-3c-62 -91 -161 -145 -271 -145c-137 0 -236 85 -236 225
c0 181 160 331 339 331c91 0 199 -50 218 -148h2l25 135h28zM627 315c0 123 -89 202 -209 202c-162 0 -305 -136 -305 -299c0 -129 88 -205 214 -205c161 0 300 142 300 302z" />
    <glyph glyph-name="h" unicode="h" horiz-adv-x="640" 
d="M624 358c0 -26 -3 -52 -8 -78l-52 -280h-28l52 280c4 24 7 48 7 72c0 114 -69 165 -178 165c-134 0 -230 -81 -254 -212l-57 -305h-28l137 740h28l-58 -312h2c46 75 146 115 231 115c124 0 206 -54 206 -185z" />
    <glyph glyph-name="i" unicode="i" horiz-adv-x="184" 
d="M243 740l-17 -91h-28l17 91h28zM204 530l-98 -530h-28l98 530h28z" />
    <glyph glyph-name="j" unicode="j" horiz-adv-x="219" 
d="M260 740l-17 -92h-28l17 92h28zM221 530l-97 -524c-20 -109 -50 -205 -177 -219l5 30c106 15 127 97 144 189l97 524h28z" />
    <glyph glyph-name="k" unicode="k" horiz-adv-x="467" 
d="M532 530l-244 -259l163 -271h-37l-148 249l-142 -152l-18 -97h-28l137 740h28l-110 -595h2l360 385h37z" />
    <glyph glyph-name="l" unicode="l" horiz-adv-x="183" 
d="M243 740l-137 -740h-28l137 740h28z" />
    <glyph glyph-name="m" unicode="m" horiz-adv-x="949" 
d="M937 377c0 -27 -3 -54 -8 -80l-55 -297h-28l55 297c5 24 8 49 8 74c0 96 -49 146 -145 146c-54 0 -111 -22 -148 -61c-49 -49 -59 -93 -71 -159l-55 -297h-28l55 297c5 27 10 55 10 83c0 93 -65 137 -152 137c-49 0 -100 -24 -135 -58c-44 -43 -67 -97 -78 -157l-56 -302
h-28l98 530h28l-17 -94h2c44 65 116 107 196 107c79 0 158 -41 167 -127h2c40 77 129 127 215 127c109 0 168 -57 168 -166z" />
    <glyph glyph-name="n" unicode="n" horiz-adv-x="641" 
d="M624 358c0 -26 -3 -52 -8 -78l-52 -280h-28l52 280c4 24 7 48 7 72c0 114 -69 165 -178 165c-134 0 -230 -81 -254 -212l-57 -305h-28l98 530h28l-19 -102h2c46 75 146 115 231 115c124 0 206 -54 206 -185z" />
    <glyph glyph-name="o" unicode="o" horiz-adv-x="641" 
d="M653 320c0 -180 -157 -333 -335 -333c-134 0 -233 86 -233 223c0 180 157 333 336 333c133 0 232 -87 232 -223zM625 315c0 123 -88 202 -209 202c-162 0 -303 -140 -303 -302c0 -123 89 -202 209 -202c163 0 303 140 303 302z" />
    <glyph glyph-name="p" unicode="p" horiz-adv-x="677" 
d="M687 318c0 -179 -158 -331 -335 -331c-91 0 -200 50 -219 148h-2l-64 -348h-28l137 743h28l-24 -132h2c63 91 162 145 273 145c135 0 232 -87 232 -225zM658 313c0 128 -86 204 -211 204c-161 0 -300 -142 -300 -302c0 -123 89 -202 209 -202c162 0 302 138 302 300z" />
    <glyph glyph-name="q" unicode="q" horiz-adv-x="674" 
d="M694 530l-137 -743h-28l64 348h-2c-51 -91 -172 -148 -273 -148c-136 0 -233 87 -233 225c0 179 158 331 336 331c100 0 187 -46 219 -145h2l24 132h28zM625 314c0 122 -85 203 -206 203c-165 0 -306 -138 -306 -303c0 -123 90 -201 209 -201c162 0 303 139 303 301z" />
    <glyph glyph-name="r" unicode="r" horiz-adv-x="302" 
d="M394 543l-5 -27c-45 -1 -86 -12 -123 -37c-12 -8 -23 -19 -33 -29c-46 -47 -62 -100 -74 -163l-53 -287h-28l98 530h28l-18 -96h2c52 77 117 104 206 109z" />
    <glyph glyph-name="s" unicode="s" horiz-adv-x="426" 
d="M429 437c0 -11 -1 -22 -3 -32h-28c2 9 3 18 3 27c0 58 -40 85 -94 85c-74 0 -138 -54 -138 -130c0 -129 226 -52 226 -214c0 -101 -85 -186 -186 -186c-73 0 -139 44 -139 122c0 13 2 26 5 38h28c-2 -10 -3 -20 -3 -30c0 -69 49 -104 113 -104c85 0 153 70 153 155
c0 140 -226 65 -226 210c0 97 77 165 172 165c66 0 117 -36 117 -106z" />
    <glyph glyph-name="t" unicode="t" horiz-adv-x="296" 
d="M386 530l-5 -26h-136l-93 -504h-28l93 504h-117l5 26h117l39 210h28l-39 -210h136z" />
    <glyph glyph-name="u" unicode="u" horiz-adv-x="641" 
d="M662 530l-98 -530h-28l20 107h-2c-47 -79 -142 -120 -232 -120c-123 0 -206 54 -206 185c0 26 4 52 8 78l52 280h28l-52 -280c-4 -24 -7 -48 -7 -72c0 -114 69 -165 178 -165c137 0 231 83 255 216l56 301h28z" />
    <glyph glyph-name="v" unicode="v" horiz-adv-x="481" 
d="M574 530l-316 -530h-36l-120 530h29l115 -497l296 497h32z" />
    <glyph glyph-name="w" unicode="w" horiz-adv-x="758" 
d="M847 530l-294 -530h-32l-67 402h-2l-215 -402h-32l-97 530h31l89 -488h2l224 416h21l70 -416h2l268 488h32z" />
    <glyph glyph-name="x" unicode="x" horiz-adv-x="407" 
d="M495 530l-225 -264l127 -266h-34l-115 239l-202 -239h-36l226 266l-128 264h36l114 -237l203 237h34z" />
    <glyph glyph-name="y" unicode="y" horiz-adv-x="481" 
d="M578 530l-458 -743h-32l133 214l-112 529h31l105 -491l300 491h33z" />
    <glyph glyph-name="z" unicode="z" horiz-adv-x="407" 
d="M475 530l-5 -27l-417 -477h346l-5 -26h-382l4 24l418 480h-311l5 26h347z" />
    <glyph glyph-name="braceleft" unicode="{" horiz-adv-x="425" 
d="M484 753l-5 -26h-54c-43 0 -58 -16 -70 -55c-6 -20 -10 -40 -14 -60l-34 -185c-12 -67 -52 -158 -116 -190c42 -20 53 -81 53 -123c0 -20 -2 -40 -6 -60l-34 -183c-4 -24 -9 -49 -9 -73c0 -37 15 -44 49 -44h54l-4 -26h-66c-47 0 -65 22 -65 68c0 20 2 39 6 58l34 183
c5 26 9 53 9 79c0 47 -13 84 -56 107l6 28c68 16 105 132 116 192l35 187c11 63 29 123 105 123h66z" />
    <glyph glyph-name="bar" unicode="|" 
d="M430 740l-156 -840h-30l156 840h30z" />
    <glyph glyph-name="braceright" unicode="}" horiz-adv-x="425" 
d="M357 251l-6 -28c-78 -36 -100 -107 -115 -186l-34 -183c-12 -63 -30 -126 -105 -126h-66l4 26h54c13 0 26 1 37 6c32 16 41 80 47 111l34 183c12 64 50 156 115 183c-42 26 -51 86 -51 131c0 20 2 40 5 59l34 185c5 23 9 47 9 70c0 36 -15 45 -49 45h-54l5 26h66
c46 0 65 -21 65 -67c0 -19 -3 -37 -6 -56l-35 -187c-5 -25 -7 -50 -7 -75c0 -38 8 -105 53 -117z" />
    <glyph glyph-name="asciitilde" unicode="~" horiz-adv-x="600" 
d="M573 271c-25 -34 -67 -71 -112 -71c-78 0 -139 73 -217 73c-48 0 -81 -25 -110 -62l-16 18c30 42 78 72 130 72c81 0 154 -73 216 -73c40 0 70 34 94 62z" />
    <glyph glyph-name="exclamdown" unicode="&#xa1;" horiz-adv-x="259" 
d="M243 531l-15 -81h-30l15 81h30zM213 365l-107 -574h-30l107 574h30z" />
    <glyph glyph-name="cent" unicode="&#xa2;" 
d="M574 469h-33c-24 66 -78 94 -146 94c-126 0 -232 -105 -232 -231c0 -97 64 -156 160 -156c68 0 140 32 180 89h34c-47 -67 -121 -113 -203 -118l-20 -108h-30l20 108c-104 7 -171 78 -171 182c0 14 1 27 3 40c22 122 129 213 251 223l17 95h30l-17 -96
c78 -10 133 -42 157 -122z" />
    <glyph glyph-name="sterling" unicode="&#xa3;" 
d="M626 569h-31c-9 94 -77 156 -172 156c-124 0 -222 -90 -247 -210c-2 -10 -3 -21 -3 -31c0 -33 12 -64 31 -91h273l-5 -27h-244l-1 -2c46 -37 73 -94 73 -152c0 -69 -33 -134 -76 -185h92c61 0 112 4 159 45c54 46 84 106 79 177h31c0 -5 1 -11 1 -16
c0 -64 -41 -141 -91 -180c-64 -50 -109 -53 -189 -53h-270l5 27h148c40 49 64 78 77 144c2 13 3 26 3 39c0 66 -37 113 -83 156h-112l5 27h86c-15 25 -22 56 -22 85c0 12 1 25 3 37c25 135 145 237 282 237c111 0 191 -72 198 -183z" />
    <glyph glyph-name="fraction" unicode="&#x2044;" horiz-adv-x="86" 
d="M359 740l-467 -740h-29l466 740h30z" />
    <glyph glyph-name="yen" unicode="&#xa5;" 
d="M661 740l-265 -331h189l-5 -26h-205l-18 -26l-15 -82h218l-5 -26h-218l-46 -249h-30l46 249h-214l5 26h214l15 82l-9 26h-200l5 26h185l-139 331h32l147 -350l281 350h32z" />
    <glyph glyph-name="florin" unicode="&#x192;" 
d="M692 810l-11 -26c-6 1 -12 2 -18 2c-130 0 -167 -124 -203 -224h141l-12 -27h-138l-186 -498c-41 -109 -87 -189 -218 -189c-20 0 -40 2 -59 8l12 28c17 -5 33 -9 52 -9c108 0 146 66 180 156l188 504h-144l11 27h142c28 73 53 162 119 211c33 25 76 40 118 40
c9 0 17 -1 26 -3z" />
    <glyph glyph-name="section" unicode="&#xa7;" horiz-adv-x="573" 
d="M588 623c0 -12 -1 -25 -3 -37h-28c0 8 1 16 1 24c0 87 -51 113 -130 113c-92 0 -179 -63 -179 -161c0 -56 36 -79 80 -102l137 -71c51 -27 93 -65 93 -127c0 -78 -60 -148 -126 -182c31 -25 49 -57 49 -98c0 -10 -1 -19 -3 -29c-20 -110 -124 -176 -231 -176
c-93 0 -181 43 -181 148c0 26 5 51 10 76h28c-4 -22 -9 -45 -9 -67c0 -92 75 -127 156 -127c94 0 181 48 199 146c2 8 3 17 3 25c0 52 -41 81 -83 102l-178 90c-50 25 -77 60 -77 117c0 86 58 155 133 190c-19 22 -29 49 -29 78c0 10 1 19 3 29c19 103 108 169 211 169
c83 0 154 -37 154 -130zM531 258c0 57 -39 81 -84 105l-180 95c-66 -29 -122 -87 -122 -163c0 -41 20 -75 57 -94l206 -104c62 23 123 93 123 161z" />
    <glyph glyph-name="currency" unicode="&#xa4;" 
d="M618 558l-90 -77c21 -30 32 -65 32 -101c0 -69 -36 -131 -86 -177l62 -77l-25 -21l-61 76c-44 -30 -95 -51 -149 -51c-48 0 -94 18 -129 51l-92 -76l-16 21l92 77c-22 30 -33 66 -33 103c0 67 33 131 82 175l-63 77l25 21l63 -77c43 32 96 54 150 54c49 0 96 -17 130 -53
l90 76zM529 376c0 88 -68 150 -155 150c-102 0 -200 -83 -219 -184c-2 -10 -3 -20 -3 -30c0 -87 69 -152 155 -152c112 0 222 103 222 216z" />
    <glyph glyph-name="quotesingle" unicode="'" horiz-adv-x="222" 
d="M263 740l-55 -296h-30l55 296h30z" />
    <glyph glyph-name="quotedblleft" unicode="&#x201c;" horiz-adv-x="370" 
d="M387 586h-33l-36 154h33zM298 586h-33l-36 154h33z" />
    <glyph glyph-name="guillemotleft" unicode="&#xab;" horiz-adv-x="351" 
d="M373 443l-127 -167l65 -166l-23 -26l-77 192l148 193zM262 443l-127 -167l65 -166l-24 -26l-76 192l147 193z" />
    <glyph glyph-name="guilsinglleft" unicode="&#x2039;" horiz-adv-x="248" 
d="M266 443l-127 -168l65 -165l-24 -26l-76 191l147 194z" />
    <glyph glyph-name="guilsinglright" unicode="&#x203a;" horiz-adv-x="248" 
d="M246 275l-146 -191l-16 26l127 165l-65 168l25 26z" />
    <glyph glyph-name="endash" unicode="&#x2013;" horiz-adv-x="500" 
d="M519 291l-5 -29h-430l5 29h430z" />
    <glyph glyph-name="dagger" unicode="&#x2020;" horiz-adv-x="573" 
d="M588 526l-5 -30h-190l-111 -596h-30l111 596h-188l5 30h188l40 214h30l-40 -214h190z" />
    <glyph glyph-name="daggerdbl" unicode="&#x2021;" horiz-adv-x="573" 
d="M594 555l-6 -30h-188l-76 -410h188l-5 -30h-188l-35 -185h-30l35 185h-190l5 30h190l76 410h-190l6 30h190l34 185h30l-34 -185h188z" />
    <glyph glyph-name="periodcentered" unicode="&#xb7;" horiz-adv-x="277" 
d="M209 296l-15 -81h-30l15 81h30z" />
    <glyph glyph-name="paragraph" unicode="&#xb6;" horiz-adv-x="561" 
d="M629 740l-5 -28h-64l-155 -838h-30l155 836h-129l-155 -836h-30l87 469h-20c-99 0 -175 55 -175 159c0 84 52 165 125 206c42 23 103 32 150 32h246z" />
    <glyph glyph-name="bullet" unicode="&#x2022;" horiz-adv-x="375" 
d="M413 406c0 -95 -89 -184 -184 -184c-73 0 -127 54 -127 127c0 96 90 183 186 183c72 0 125 -54 125 -126z" />
    <glyph glyph-name="quotesinglbase" unicode="&#x201a;" horiz-adv-x="277" 
d="M202 82l-92 -154h-33l92 154h33z" />
    <glyph glyph-name="quotedblbase" unicode="&#x201e;" horiz-adv-x="370" 
d="M293 82l-92 -154h-33l92 154h33zM204 82l-92 -154h-33l92 154h33z" />
    <glyph glyph-name="quotedblright" unicode="&#x201d;" horiz-adv-x="370" 
d="M415 740l-92 -154h-33l92 154h33zM326 740l-92 -154h-33l92 154h33z" />
    <glyph glyph-name="guillemotright" unicode="&#xbb;" horiz-adv-x="351" 
d="M353 276l-146 -192l-16 26l127 166l-65 167l25 26zM242 276l-147 -192l-15 26l127 166l-65 167l24 26z" />
    <glyph glyph-name="ellipsis" unicode="&#x2026;" horiz-adv-x="1000" 
d="M863 82l-15 -82h-30l15 82h30zM530 82l-15 -82h-30l15 82h30zM197 82l-15 -82h-30l15 82h30z" />
    <glyph glyph-name="perthousand" unicode="&#x2030;" horiz-adv-x="1089" 
d="M1101 183c0 -106 -90 -196 -196 -196c-79 0 -136 49 -136 130c0 106 90 196 196 196c78 0 136 -49 136 -130zM459 623c0 -106 -90 -196 -197 -196c-78 0 -136 49 -136 130c0 106 90 196 197 196c78 0 136 -49 136 -130zM738 740l-594 -740h-32l594 740h32zM726 183
c0 -106 -90 -196 -196 -196c-79 0 -136 49 -136 130c0 106 90 196 196 196c78 0 136 -49 136 -130zM1073 180c0 67 -46 108 -113 108c-91 0 -163 -77 -163 -168c0 -67 46 -108 112 -108c92 0 164 77 164 168zM430 620c0 67 -46 108 -112 108c-92 0 -163 -77 -163 -168
c0 -67 46 -108 112 -108c91 0 163 77 163 168zM698 180c0 67 -46 108 -113 108c-91 0 -163 -77 -163 -168c0 -67 46 -108 112 -108c92 0 164 77 164 168z" />
    <glyph glyph-name="questiondown" unicode="&#xbf;" horiz-adv-x="536" 
d="M391 530l-15 -81h-29l15 81h29zM494 -13c-28 -119 -130 -209 -254 -209c-100 0 -177 68 -177 170c0 110 83 168 158 232c66 56 94 100 109 184h30c-21 -99 -52 -146 -130 -212c-66 -56 -137 -102 -137 -200c0 -88 67 -143 152 -143c107 0 195 74 219 178h30z" />
    <glyph glyph-name="grave" unicode="`" 
d="M511 628l-17 -23l-212 138l18 23z" />
    <glyph glyph-name="acute" unicode="&#xb4;" 
d="M549 743l-264 -138l-9 23l263 138z" />
    <glyph glyph-name="circumflex" unicode="&#x2c6;" 
d="M591 638l-29 -15l-152 94l-188 -94l-22 15l216 110z" />
    <glyph glyph-name="tilde" unicode="&#x2dc;" 
d="M581 665c-28 -17 -62 -32 -95 -32c-80 0 -100 53 -165 53c-29 0 -59 -10 -83 -27l-16 20c32 23 65 35 104 35c66 0 101 -51 165 -51c28 0 49 10 74 23z" />
    <glyph glyph-name="macron" unicode="&#xaf;" 
d="M583 690l-6 -30h-356l6 30h356z" />
    <glyph glyph-name="breve" unicode="&#x2d8;" 
d="M602 716c-53 -68 -123 -82 -207 -82c-68 0 -149 9 -176 82h38c24 -50 95 -53 143 -53c60 0 122 6 164 53h38z" />
    <glyph glyph-name="dotaccent" unicode="&#x2d9;" 
d="M429 734l-21 -116h-31l21 116h31z" />
    <glyph glyph-name="dieresis" unicode="&#xa8;" 
d="M488 734l-21 -116h-29l21 116h29zM368 734l-21 -116h-29l21 116h29z" />
    <glyph glyph-name="ring" unicode="&#x2da;" 
d="M498 702c0 -57 -54 -107 -111 -107c-43 0 -75 31 -75 75c0 56 53 107 109 107c43 0 77 -31 77 -75zM469 699c0 31 -22 52 -53 52c-39 0 -76 -36 -76 -75c0 -30 23 -52 53 -52c39 0 76 35 76 75z" />
    <glyph glyph-name="cedilla" unicode="&#xb8;" 
d="M329 -112c0 -47 -41 -89 -88 -89c-39 0 -63 22 -63 62h27c2 -24 18 -35 41 -35c30 0 56 28 56 58c0 22 -17 36 -39 36c-19 0 -34 -10 -45 -25l-22 5l65 100h29l-36 -56l1 -1c5 2 9 3 14 3c35 0 60 -22 60 -58z" />
    <glyph glyph-name="hungarumlaut" unicode="&#x2dd;" 
d="M679 766l-256 -161l-12 23l256 160zM488 766l-256 -161l-12 23l256 160z" />
    <glyph glyph-name="ogonek" unicode="&#x2db;" 
d="M327 -164l-6 -29c-20 -10 -36 -13 -58 -13c-49 0 -88 27 -88 79c0 51 37 97 110 127h29c-84 -47 -107 -78 -107 -120c0 -33 21 -57 61 -57c20 0 40 6 59 13z" />
    <glyph glyph-name="caron" unicode="&#x2c7;" 
d="M609 734l-216 -111l-175 110l29 15l152 -94l188 94z" />
    <glyph glyph-name="emdash" unicode="&#x2014;" horiz-adv-x="1000" 
d="M1019 291l-5 -29h-930l5 29h930z" />
    <glyph glyph-name="AE" unicode="&#xc6;" horiz-adv-x="944" 
d="M1007 740l-5 -27h-316l-60 -327h316l-5 -27h-316l-62 -332h316l-5 -27h-346l49 264h-315l-232 -264h-34l649 740h366zM658 722h-2l-371 -431h293z" />
    <glyph glyph-name="ordfeminine" unicode="&#xaa;" horiz-adv-x="468" 
d="M540 745l-62 -333h-28l16 83h-2c-34 -58 -102 -91 -168 -91c-86 0 -152 55 -152 143c0 113 107 206 217 206c59 0 119 -31 133 -93h2l16 85h28zM484 605c0 72 -57 122 -128 122c-93 0 -184 -80 -184 -175c0 -74 57 -122 130 -122c93 0 182 79 182 175z" />
    <glyph glyph-name="Lslash" unicode="&#x141;" horiz-adv-x="423" 
d="M429 27l-5 -27h-343l63 340l-92 -60l6 35l93 60l67 365h30l-63 -343l178 115l-7 -35l-178 -115l-62 -335h313z" />
    <glyph glyph-name="Oslash" unicode="&#xd8;" horiz-adv-x="851" 
d="M903 791l-111 -121c63 -59 93 -139 93 -225c0 -246 -218 -458 -462 -458c-71 0 -142 18 -199 61l-123 -134l-20 18l121 132c-67 59 -99 143 -99 232c0 245 218 457 462 457c73 0 148 -20 207 -65l110 121zM854 440c0 77 -26 153 -83 207l-526 -576
c53 -40 117 -57 183 -57c226 0 426 199 426 426zM750 665c-55 42 -122 61 -190 61c-227 0 -427 -199 -427 -426c0 -81 29 -159 90 -213z" />
    <glyph glyph-name="OE" unicode="&#x152;" horiz-adv-x="1178" 
d="M1254 740l-5 -27h-315l-60 -327h315l-5 -27h-315l-62 -332h315l-5 -27h-345l42 229h-2c-69 -146 -232 -242 -392 -242c-183 0 -318 117 -318 305c0 246 208 461 456 461c149 0 289 -84 307 -242h2l42 229h345zM848 440c0 172 -123 286 -293 286
c-231 0 -422 -201 -422 -429c0 -172 121 -283 290 -283c198 0 377 152 416 346c5 26 9 53 9 80z" />
    <glyph glyph-name="ordmasculine" unicode="&#xba;" horiz-adv-x="423" 
d="M501 611c0 -110 -103 -207 -212 -207c-81 0 -145 58 -145 141c0 110 100 208 210 208c84 0 147 -55 147 -142zM473 607c0 71 -51 120 -122 120c-93 0 -179 -83 -179 -177c0 -69 53 -120 122 -120c92 0 179 83 179 177z" />
    <glyph glyph-name="ae" unicode="&#xe6;" horiz-adv-x="1154" 
d="M1166 314c0 -17 -2 -35 -4 -52h-518c-2 -12 -2 -24 -2 -37c0 -89 37 -164 123 -197c26 -10 53 -15 80 -15c100 0 189 63 247 140h33c-58 -92 -170 -166 -281 -166c-109 0 -206 61 -217 175h-2l-30 -162h-28l30 162h-2c-10 -22 -21 -43 -37 -61
c-58 -66 -152 -114 -240 -114c-134 0 -233 86 -233 223c0 18 2 37 5 54c29 156 169 279 329 279c85 0 170 -39 204 -122c6 -15 9 -30 12 -46h2l28 155h28l-28 -154h2c9 15 17 32 28 46c62 77 141 121 241 121c139 0 230 -90 230 -229zM1136 298c1 130 -68 219 -203 219
c-77 0 -138 -30 -193 -82c-49 -46 -69 -86 -91 -147h486zM621 309c0 118 -86 208 -204 208c-163 0 -304 -139 -304 -302c0 -124 89 -202 210 -202c151 0 298 145 298 296z" />
    <glyph glyph-name="dotlessi" unicode="&#x131;" horiz-adv-x="184" 
d="M204 530l-98 -530h-28l98 530h28z" />
    <glyph glyph-name="lslash" unicode="&#x142;" horiz-adv-x="219" 
d="M312 499l-5 -29l-110 -72l-74 -398h-28l71 382l-90 -58l6 30l89 58l61 328h28l-58 -312z" />
    <glyph glyph-name="oslash" unicode="&#xf8;" horiz-adv-x="641" 
d="M661 568l-75 -84c45 -44 67 -102 67 -165c0 -180 -157 -332 -335 -332c-52 0 -103 13 -145 44l-76 -83l-18 17l75 82c-47 42 -69 102 -69 164c0 179 158 332 336 332c51 0 103 -13 144 -44l78 86zM625 315c0 56 -19 109 -59 147l-374 -410c38 -27 84 -39 130 -39
c163 0 303 140 303 302zM545 477c-37 28 -83 40 -129 40c-162 0 -303 -140 -303 -302c0 -55 19 -109 60 -147z" />
    <glyph glyph-name="oe" unicode="&#x153;" horiz-adv-x="1156" 
d="M1169 313c0 -17 -1 -33 -4 -50h-518c-2 -15 -3 -30 -3 -45c0 -122 81 -205 203 -205c100 0 198 54 246 142h31c-34 -56 -64 -93 -123 -126c-48 -28 -102 -42 -158 -42c-115 0 -214 72 -225 191h-2c-63 -109 -168 -191 -298 -191c-134 0 -233 86 -233 223c0 18 2 37 5 55
v-1c29 157 170 279 331 279c121 0 208 -73 225 -194c1 1 2 3 2 4c14 23 27 46 45 67c60 72 152 119 248 119c132 0 228 -93 228 -226zM1138 312c0 118 -86 201 -203 201c-132 0 -245 -101 -282 -224h484c1 8 1 15 1 23zM621 307c0 120 -83 210 -205 210
c-162 0 -303 -140 -303 -302c0 -123 89 -202 209 -202c151 0 299 142 299 294z" />
    <glyph glyph-name="germandbls" unicode="&#xdf;" horiz-adv-x="559" 
d="M570 600c0 -96 -57 -188 -148 -222v-2c83 -11 133 -70 133 -153c0 -125 -112 -236 -236 -236c-102 0 -165 59 -165 162c0 14 2 28 3 42h28c-1 -12 -2 -25 -2 -37c0 -88 57 -141 143 -141c108 0 200 97 200 203c0 38 -13 75 -41 102c-44 42 -116 39 -172 39l5 26h27
c110 0 197 109 197 214c0 86 -57 129 -139 129c-51 0 -106 -25 -139 -63c-48 -55 -60 -121 -73 -191l-87 -472h-28l87 472c13 70 28 146 77 201c41 47 103 79 166 79c96 0 164 -52 164 -152z" />
    <glyph glyph-name="logicalnot" unicode="&#xac;" horiz-adv-x="600" 
d="M617 361l-41 -222h-28l36 194h-472l5 28h500z" />
    <glyph glyph-name="mu" unicode="&#xb5;" horiz-adv-x="561" 
d="M582 530l-98 -530h-28l22 119h-2c-42 -82 -111 -132 -205 -132c-70 0 -128 21 -154 90h-2l-48 -258h-28l132 711h28l-55 -300c-6 -28 -11 -57 -11 -85c0 -89 58 -132 142 -132c146 0 210 142 233 265l46 252h28z" />
    <glyph glyph-name="trademark" unicode="&#x2122;" horiz-adv-x="908" 
d="M967 740l-82 -444h-27l75 405h-2l-283 -405h-16l-133 404h-2l-75 -404h-27l82 444h37l134 -402l283 402h36zM414 740l-4 -24h-125l-78 -420h-27l78 420h-124l5 24h275z" />
    <glyph glyph-name="Eth" unicode="&#xd0;" horiz-adv-x="711" 
d="M747 462c0 -31 -4 -62 -9 -92c-42 -230 -208 -370 -442 -370h-209l67 359h-77l5 27h77l65 354h209c181 0 314 -85 314 -278zM716 455c0 179 -120 258 -288 258h-179l-60 -327h251l-5 -27h-251l-62 -332h179c215 0 368 129 406 341c5 29 9 58 9 87z" />
    <glyph glyph-name="onehalf" unicode="&#xbd;" horiz-adv-x="730" 
d="M746 351c0 -68 -41 -111 -89 -153l-197 -173h232l-5 -25h-271l4 23l221 193c41 36 77 72 77 131c0 53 -32 80 -85 80c-71 0 -114 -58 -126 -123h-28c15 81 74 148 161 148c63 0 106 -35 106 -101zM619 740l-467 -740h-29l466 740h30zM284 740l-82 -444h-28l78 419h-95
l4 25h123z" />
    <glyph glyph-name="plusminus" unicode="&#xb1;" horiz-adv-x="600" 
d="M609 309l-5 -28h-238l-36 -197h-28l36 197h-238l5 28h238l37 197h28l-37 -197h238zM557 28l-5 -28h-504l5 28h504z" />
    <glyph glyph-name="Thorn" unicode="&#xde;" horiz-adv-x="511" 
d="M572 415c0 -13 -1 -27 -4 -41c-11 -63 -52 -131 -105 -166c-64 -42 -119 -44 -194 -44h-142l-30 -164h-30l137 740h30l-29 -156h142c65 0 126 0 177 -44c35 -30 48 -80 48 -125zM542 411c0 128 -93 146 -199 146h-143l-68 -366h143c66 0 120 3 176 41c44 30 78 89 87 141
c2 12 4 25 4 38z" />
    <glyph glyph-name="onequarter" unicode="&#xbc;" horiz-adv-x="680" 
d="M619 740l-467 -740h-29l466 740h30zM284 740l-82 -444h-28l78 419h-95l4 25h123zM677 444l-62 -334h42l-4 -25h-42l-16 -85h-28l16 85h-228l4 21l285 338h33zM642 407h-1l-248 -297h194z" />
    <glyph glyph-name="divide" unicode="&#xf7;" horiz-adv-x="600" 
d="M408 500l-15 -81h-30l15 81h30zM599 264l-5 -28h-500l5 28h500zM330 81l-15 -81h-30l15 81h30z" />
    <glyph glyph-name="brokenbar" unicode="&#xa6;" 
d="M430 740l-62 -336h-30l62 336h30zM337 236l-63 -336h-30l63 336h30z" />
    <glyph glyph-name="degree" unicode="&#xb0;" horiz-adv-x="400" 
d="M450 593c0 -90 -82 -170 -172 -170c-68 0 -119 47 -119 116c0 90 83 170 172 170c69 0 119 -47 119 -116zM422 588c0 56 -41 93 -96 93c-72 0 -138 -64 -138 -137c0 -56 41 -93 96 -93c72 0 138 64 138 137z" />
    <glyph glyph-name="thorn" unicode="&#xfe;" horiz-adv-x="681" 
d="M693 319c0 -180 -158 -332 -336 -332c-101 0 -192 54 -223 153h-2l-65 -353h-28l176 953h28l-65 -353h2c60 93 167 156 280 156c133 0 233 -87 233 -224zM665 316c0 123 -88 201 -209 201c-155 0 -305 -139 -305 -296c0 -121 92 -208 211 -208c163 0 303 140 303 303z
" />
    <glyph glyph-name="threequarters" unicode="&#xbe;" horiz-adv-x="807" 
d="M747 740l-467 -740h-29l466 740h30zM805 444l-62 -334h42l-4 -25h-42l-16 -85h-28l16 85h-228l4 21l285 338h33zM411 663c0 -51 -32 -91 -76 -112c40 -18 64 -57 64 -100c0 -90 -79 -163 -167 -163c-67 0 -115 44 -115 112c0 10 1 20 3 30h28c-2 -8 -2 -17 -2 -25
c0 -55 37 -92 91 -92c72 0 134 58 134 131c0 60 -43 93 -100 93h-27l4 25h27c57 0 108 37 108 97c0 40 -28 64 -67 64c-48 0 -85 -35 -95 -81h-28c14 61 66 106 130 106c49 0 88 -35 88 -85zM770 407h-1l-248 -297h194z" />
    <glyph glyph-name="registered" unicode="&#xae;" horiz-adv-x="800" 
d="M856 443c0 -242 -218 -454 -458 -454c-182 0 -319 120 -319 306c0 244 217 456 460 456c183 0 317 -123 317 -308zM828 438c0 172 -123 287 -294 287c-224 0 -426 -198 -426 -423c0 -172 125 -287 295 -287c224 0 425 198 425 423zM663 496c0 -67 -46 -117 -109 -134v-2
c40 -10 60 -31 60 -73c0 -40 -11 -80 -11 -121c0 -7 0 -14 3 -20h-29c-2 4 -3 9 -3 14c0 41 12 81 12 121c0 65 -67 66 -117 66h-142l-37 -201h-28l82 443h188c61 0 131 -19 131 -93zM634 491c0 61 -61 72 -109 72h-158l-35 -190h140c11 0 22 2 33 3c60 7 114 28 127 94
c1 7 2 14 2 21z" />
    <glyph glyph-name="minus" unicode="&#x2212;" horiz-adv-x="600" 
d="M599 264l-5 -28h-500l5 28h500z" />
    <glyph glyph-name="eth" unicode="&#xf0;" horiz-adv-x="641" 
d="M657 346c0 -27 -3 -54 -8 -80c-30 -161 -169 -278 -331 -279h-4c-130 -1 -230 82 -230 217c0 188 154 339 341 339c69 0 141 -30 179 -90l2 2c-37 81 -103 141 -179 186l-205 -77l-17 20l194 73c-50 27 -101 49 -154 68l37 15c53 -19 105 -42 153 -70l188 70l15 -21
l-175 -65c112 -74 194 -168 194 -308zM626 311c0 119 -90 206 -208 206c-163 0 -305 -139 -305 -303c0 -123 88 -201 209 -201c160 0 304 137 304 298z" />
    <glyph glyph-name="multiply" unicode="&#xd7;" horiz-adv-x="600" 
d="M638 477l-270 -226l186 -228l-24 -21l-187 229l-273 -229l-16 21l272 228l-188 226l24 22l188 -228l272 228z" />
    <glyph glyph-name="copyright" unicode="&#xa9;" horiz-adv-x="800" 
d="M856 443c0 -242 -218 -454 -458 -454c-182 0 -319 120 -319 306c0 244 217 456 460 456c183 0 317 -123 317 -308zM828 438c0 172 -123 287 -294 287c-224 0 -426 -198 -426 -423c0 -172 125 -287 295 -287c224 0 425 198 425 423zM684 460v-9h-28
c-1 84 -66 124 -143 124c-139 0 -231 -125 -231 -256c0 -94 61 -153 154 -153c101 0 177 67 206 162h28c-29 -109 -127 -188 -240 -188c-105 0 -177 68 -177 174c0 150 109 287 265 287c85 0 169 -48 166 -141z" />
    <glyph glyph-name="Aacute" unicode="&#xc1;" horiz-adv-x="687" 
d="M680 0h-32l-63 258h-387l-159 -258h-32l454 740h39zM577 285l-102 427l-259 -427h361zM650 928l-264 -138l-9 23l263 138z" />
    <glyph glyph-name="Acircumflex" unicode="&#xc2;" horiz-adv-x="687" 
d="M680 0h-32l-63 258h-387l-159 -258h-32l454 740h39zM577 285l-102 427l-259 -427h361zM692 823l-29 -15l-152 94l-188 -94l-22 15l216 110z" />
    <glyph glyph-name="Adieresis" unicode="&#xc4;" horiz-adv-x="687" 
d="M680 0h-32l-63 258h-387l-159 -258h-32l454 740h39zM577 285l-102 427l-259 -427h361zM588 919l-21 -116h-29l21 116h29zM468 919l-21 -116h-29l21 116h29z" />
    <glyph glyph-name="Agrave" unicode="&#xc0;" horiz-adv-x="687" 
d="M680 0h-32l-63 258h-387l-159 -258h-32l454 740h39zM577 285l-102 427l-259 -427h361zM612 813l-17 -23l-212 138l18 23z" />
    <glyph glyph-name="Aring" unicode="&#xc5;" horiz-adv-x="687" 
d="M680 0h-32l-63 258h-387l-159 -258h-32l454 740h39zM577 285l-102 427l-259 -427h361zM593 862c0 -57 -54 -107 -111 -107c-43 0 -75 31 -75 75c0 56 53 107 109 107c43 0 77 -31 77 -75zM564 859c0 31 -22 52 -53 52c-39 0 -76 -36 -76 -75c0 -30 23 -52 53 -52
c39 0 76 35 76 75z" />
    <glyph glyph-name="Atilde" unicode="&#xc3;" horiz-adv-x="687" 
d="M680 0h-32l-63 258h-387l-159 -258h-32l454 740h39zM577 285l-102 427l-259 -427h361zM683 860c-28 -17 -62 -32 -95 -32c-80 0 -100 53 -165 53c-29 0 -59 -10 -83 -27l-16 20c32 23 65 35 104 35c66 0 101 -51 165 -51c28 0 49 10 74 23z" />
    <glyph glyph-name="Ccedilla" unicode="&#xc7;" horiz-adv-x="786" 
d="M465 -112c0 -47 -41 -89 -88 -89c-39 0 -63 22 -63 62h27c2 -24 18 -35 41 -35c30 0 56 28 56 58c0 22 -17 36 -39 36c-19 0 -34 -10 -45 -25l-22 5l57 89c-166 13 -287 130 -287 306c0 246 218 458 463 458c123 0 238 -64 291 -178h-35c-51 96 -154 151 -261 151
c-227 0 -427 -199 -427 -426c0 -172 125 -286 295 -286c118 0 237 60 316 147h34c-81 -105 -223 -174 -355 -174h-6l-27 -43l1 -1c5 2 9 3 14 3c35 0 60 -22 60 -58z" />
    <glyph glyph-name="Eacute" unicode="&#xc9;" horiz-adv-x="547" 
d="M620 740l-5 -27h-376l-60 -327h376l-5 -27h-376l-62 -332h376l-5 -27h-406l137 740h406zM580 928l-264 -138l-9 23l263 138z" />
    <glyph glyph-name="Ecircumflex" unicode="&#xca;" horiz-adv-x="547" 
d="M620 740l-5 -27h-376l-60 -327h376l-5 -27h-376l-62 -332h376l-5 -27h-406l137 740h406zM622 823l-29 -15l-152 94l-188 -94l-22 15l216 110z" />
    <glyph glyph-name="Edieresis" unicode="&#xcb;" horiz-adv-x="547" 
d="M620 740l-5 -27h-376l-60 -327h376l-5 -27h-376l-62 -332h376l-5 -27h-406l137 740h406zM518 919l-21 -116h-29l21 116h29zM398 919l-21 -116h-29l21 116h29z" />
    <glyph glyph-name="Egrave" unicode="&#xc8;" horiz-adv-x="547" 
d="M620 740l-5 -27h-376l-60 -327h376l-5 -27h-376l-62 -332h376l-5 -27h-406l137 740h406zM542 813l-17 -23l-212 138l18 23z" />
    <glyph glyph-name="Iacute" unicode="&#xcd;" horiz-adv-x="185" 
d="M244 740l-137 -740h-30l137 740h30zM419 928l-264 -138l-9 23l263 138z" />
    <glyph glyph-name="Icircumflex" unicode="&#xce;" horiz-adv-x="185" 
d="M244 740l-137 -740h-30l137 740h30zM441 823l-29 -15l-152 94l-188 -94l-22 15l216 110z" />
    <glyph glyph-name="Idieresis" unicode="&#xcf;" horiz-adv-x="185" 
d="M244 740l-137 -740h-30l137 740h30zM337 919l-21 -116h-29l21 116h29zM217 919l-21 -116h-29l21 116h29z" />
    <glyph glyph-name="Igrave" unicode="&#xcc;" horiz-adv-x="185" 
d="M244 740l-137 -740h-30l137 740h30zM341 813l-17 -23l-212 138l18 23z" />
    <glyph glyph-name="Ntilde" unicode="&#xd1;" horiz-adv-x="738" 
d="M798 740l-137 -740h-38l-382 710h-2l-132 -710h-30l137 740h45l377 -700h2l130 700h30zM709 860c-28 -17 -62 -32 -95 -32c-80 0 -100 53 -165 53c-29 0 -59 -10 -83 -27l-16 20c32 23 65 35 104 35c66 0 101 -51 165 -51c28 0 49 10 74 23z" />
    <glyph glyph-name="Oacute" unicode="&#xd3;" horiz-adv-x="851" 
d="M885 445c0 -246 -218 -458 -462 -458c-183 0 -321 121 -321 308c0 246 218 458 463 458c182 0 320 -121 320 -308zM854 440c0 172 -125 286 -294 286c-227 0 -427 -199 -427 -426c0 -172 125 -286 295 -286c226 0 426 199 426 426zM732 928l-264 -138l-9 23l263 138z" />
    <glyph glyph-name="Ocircumflex" unicode="&#xd4;" horiz-adv-x="851" 
d="M885 445c0 -246 -218 -458 -462 -458c-183 0 -321 121 -321 308c0 246 218 458 463 458c182 0 320 -121 320 -308zM854 440c0 172 -125 286 -294 286c-227 0 -427 -199 -427 -426c0 -172 125 -286 295 -286c226 0 426 199 426 426zM774 823l-29 -15l-152 94l-188 -94
l-22 15l216 110z" />
    <glyph glyph-name="Odieresis" unicode="&#xd6;" horiz-adv-x="851" 
d="M885 445c0 -246 -218 -458 -462 -458c-183 0 -321 121 -321 308c0 246 218 458 463 458c182 0 320 -121 320 -308zM854 440c0 172 -125 286 -294 286c-227 0 -427 -199 -427 -426c0 -172 125 -286 295 -286c226 0 426 199 426 426zM670 919l-21 -116h-29l21 116h29z
M550 919l-21 -116h-29l21 116h29z" />
    <glyph glyph-name="Ograve" unicode="&#xd2;" horiz-adv-x="851" 
d="M885 445c0 -246 -218 -458 -462 -458c-183 0 -321 121 -321 308c0 246 218 458 463 458c182 0 320 -121 320 -308zM854 440c0 172 -125 286 -294 286c-227 0 -427 -199 -427 -426c0 -172 125 -286 295 -286c226 0 426 199 426 426zM694 813l-17 -23l-212 138l18 23z" />
    <glyph glyph-name="Otilde" unicode="&#xd5;" horiz-adv-x="851" 
d="M885 445c0 -246 -218 -458 -462 -458c-183 0 -321 121 -321 308c0 246 218 458 463 458c182 0 320 -121 320 -308zM854 440c0 172 -125 286 -294 286c-227 0 -427 -199 -427 -426c0 -172 125 -286 295 -286c226 0 426 199 426 426zM765 860c-28 -17 -62 -32 -95 -32
c-80 0 -100 53 -165 53c-29 0 -59 -10 -83 -27l-16 20c32 23 65 35 104 35c66 0 101 -51 165 -51c28 0 49 10 74 23z" />
    <glyph glyph-name="Scaron" unicode="&#x160;" horiz-adv-x="518" 
d="M561 594c0 -5 0 -9 -1 -14h-30c1 90 -40 145 -136 145c-107 0 -202 -85 -202 -194c0 -95 97 -119 171 -139c82 -23 151 -58 151 -156c0 -135 -125 -249 -257 -249c-102 0 -179 68 -179 172c0 9 1 19 2 28h30c-1 -5 -1 -11 -1 -16c0 -93 57 -157 152 -157
c114 0 222 96 222 213c0 97 -80 125 -159 146c-81 22 -163 52 -163 152c0 130 114 227 240 227c98 0 160 -60 160 -158zM625 919l-216 -111l-175 110l29 15l152 -94l188 94z" />
    <glyph glyph-name="Uacute" unicode="&#xda;" horiz-adv-x="605" 
d="M666 740l-89 -480c-17 -95 -45 -173 -131 -228c-43 -27 -95 -45 -146 -45c-46 0 -94 15 -129 45c-43 35 -57 82 -57 136c0 31 5 62 10 92l89 480h30l-89 -480c-5 -29 -11 -59 -11 -89c0 -98 69 -157 164 -157c57 0 121 26 161 68c55 58 65 103 79 178l89 480h30zM609 928
l-264 -138l-9 23l263 138z" />
    <glyph glyph-name="Ucircumflex" unicode="&#xdb;" horiz-adv-x="605" 
d="M666 740l-89 -480c-17 -95 -45 -173 -131 -228c-43 -27 -95 -45 -146 -45c-46 0 -94 15 -129 45c-43 35 -57 82 -57 136c0 31 5 62 10 92l89 480h30l-89 -480c-5 -29 -11 -59 -11 -89c0 -98 69 -157 164 -157c57 0 121 26 161 68c55 58 65 103 79 178l89 480h30zM651 823
l-29 -15l-152 94l-188 -94l-22 15l216 110z" />
    <glyph glyph-name="Udieresis" unicode="&#xdc;" horiz-adv-x="605" 
d="M666 740l-89 -480c-17 -95 -45 -173 -131 -228c-43 -27 -95 -45 -146 -45c-46 0 -94 15 -129 45c-43 35 -57 82 -57 136c0 31 5 62 10 92l89 480h30l-89 -480c-5 -29 -11 -59 -11 -89c0 -98 69 -157 164 -157c57 0 121 26 161 68c55 58 65 103 79 178l89 480h30zM547 919
l-21 -116h-29l21 116h29zM427 919l-21 -116h-29l21 116h29z" />
    <glyph glyph-name="Ugrave" unicode="&#xd9;" horiz-adv-x="605" 
d="M666 740l-89 -480c-17 -95 -45 -173 -131 -228c-43 -27 -95 -45 -146 -45c-46 0 -94 15 -129 45c-43 35 -57 82 -57 136c0 31 5 62 10 92l89 480h30l-89 -480c-5 -29 -11 -59 -11 -89c0 -98 69 -157 164 -157c57 0 121 26 161 68c55 58 65 103 79 178l89 480h30zM571 813
l-17 -23l-212 138l18 23z" />
    <glyph glyph-name="Yacute" unicode="&#xdd;" horiz-adv-x="554" 
d="M676 740l-337 -485l-47 -255h-30l47 255l-157 485h33l146 -451l311 451h34zM584 928l-264 -138l-9 23l263 138z" />
    <glyph glyph-name="Ydieresis" unicode="&#x178;" horiz-adv-x="554" 
d="M676 740l-337 -485l-47 -255h-30l47 255l-157 485h33l146 -451l311 451h34zM522 919l-21 -116h-29l21 116h29zM402 919l-21 -116h-29l21 116h29z" />
    <glyph glyph-name="Zcaron" unicode="&#x17d;" horiz-adv-x="499" 
d="M609 740l-535 -713h424l-5 -27h-473l535 713h-417l5 27h466zM610 919l-216 -111l-175 110l29 15l152 -94l188 94z" />
    <glyph glyph-name="aacute" unicode="&#xe1;" horiz-adv-x="674" 
d="M694 530l-98 -530h-28l24 132h-2c-63 -91 -162 -145 -272 -145c-136 0 -233 87 -233 225c0 179 158 331 336 331c91 0 199 -50 218 -148h2l25 135h28zM625 315c0 123 -89 202 -209 202c-161 0 -302 -138 -302 -300c0 -128 86 -204 211 -204c161 0 300 142 300 302z
M604 743l-264 -138l-9 23l263 138z" />
    <glyph glyph-name="acircumflex" unicode="&#xe2;" horiz-adv-x="674" 
d="M694 530l-98 -530h-28l24 132h-2c-63 -91 -162 -145 -272 -145c-136 0 -233 87 -233 225c0 179 158 331 336 331c91 0 199 -50 218 -148h2l25 135h28zM625 315c0 123 -89 202 -209 202c-161 0 -302 -138 -302 -300c0 -128 86 -204 211 -204c161 0 300 142 300 302z
M651 638l-29 -15l-152 94l-188 -94l-22 15l216 110z" />
    <glyph glyph-name="adieresis" unicode="&#xe4;" horiz-adv-x="674" 
d="M694 530l-98 -530h-28l24 132h-2c-63 -91 -162 -145 -272 -145c-136 0 -233 87 -233 225c0 179 158 331 336 331c91 0 199 -50 218 -148h2l25 135h28zM625 315c0 123 -89 202 -209 202c-161 0 -302 -138 -302 -300c0 -128 86 -204 211 -204c161 0 300 142 300 302z
M548 734l-21 -116h-29l21 116h29zM428 734l-21 -116h-29l21 116h29z" />
    <glyph glyph-name="agrave" unicode="&#xe0;" horiz-adv-x="674" 
d="M694 530l-98 -530h-28l24 132h-2c-63 -91 -162 -145 -272 -145c-136 0 -233 87 -233 225c0 179 158 331 336 331c91 0 199 -50 218 -148h2l25 135h28zM625 315c0 123 -89 202 -209 202c-161 0 -302 -138 -302 -300c0 -128 86 -204 211 -204c161 0 300 142 300 302z
M571 628l-17 -23l-212 138l18 23z" />
    <glyph glyph-name="aring" unicode="&#xe5;" horiz-adv-x="674" 
d="M694 530l-98 -530h-28l24 132h-2c-63 -91 -162 -145 -272 -145c-136 0 -233 87 -233 225c0 179 158 331 336 331c91 0 199 -50 218 -148h2l25 135h28zM625 315c0 123 -89 202 -209 202c-161 0 -302 -138 -302 -300c0 -128 86 -204 211 -204c161 0 300 142 300 302z
M557 700c0 -57 -54 -107 -111 -107c-43 0 -75 31 -75 75c0 56 53 107 109 107c43 0 77 -31 77 -75zM528 697c0 31 -22 52 -53 52c-39 0 -76 -36 -76 -75c0 -30 23 -52 53 -52c39 0 76 35 76 75z" />
    <glyph glyph-name="atilde" unicode="&#xe3;" horiz-adv-x="674" 
d="M694 530l-98 -530h-28l24 132h-2c-63 -91 -162 -145 -272 -145c-136 0 -233 87 -233 225c0 179 158 331 336 331c91 0 199 -50 218 -148h2l25 135h28zM625 315c0 123 -89 202 -209 202c-161 0 -302 -138 -302 -300c0 -128 86 -204 211 -204c161 0 300 142 300 302z
M641 665c-28 -17 -62 -32 -95 -32c-80 0 -100 53 -165 53c-29 0 -59 -10 -83 -27l-16 20c32 23 65 35 104 35c66 0 101 -51 165 -51c28 0 49 10 74 23z" />
    <glyph glyph-name="ccedilla" unicode="&#xe7;" horiz-adv-x="619" 
d="M650 358h-31c-17 103 -102 159 -202 159c-163 0 -304 -139 -304 -302c0 -122 90 -202 209 -202c104 0 213 61 261 154h31c-59 -111 -173 -180 -298 -180l-28 -43l1 -1c5 2 9 3 14 3c35 0 60 -22 60 -58c0 -47 -41 -89 -88 -89c-39 0 -63 22 -63 62h27
c2 -25 18 -35 41 -35c30 0 56 28 56 58c0 22 -18 36 -39 36c-19 0 -34 -10 -45 -25l-22 5l58 90c-121 11 -203 95 -203 218c0 180 156 335 336 335c115 0 212 -67 229 -185z" />
    <glyph glyph-name="eacute" unicode="&#xe9;" horiz-adv-x="619" 
d="M643 320c0 -19 -1 -40 -6 -58h-528c-3 -16 -5 -32 -5 -49c0 -119 93 -200 209 -200c103 0 197 55 252 140h31c-63 -102 -168 -166 -288 -166c-134 0 -233 85 -233 222c0 19 2 38 5 56v-1c29 157 171 279 332 279c132 0 231 -87 231 -223zM615 318c0 113 -92 199 -204 199
c-135 0 -264 -97 -297 -229h499c2 10 2 20 2 30zM576 743l-264 -138l-9 23l263 138z" />
    <glyph glyph-name="ecircumflex" unicode="&#xea;" horiz-adv-x="619" 
d="M643 320c0 -19 -1 -40 -6 -58h-528c-3 -16 -5 -32 -5 -49c0 -119 93 -200 209 -200c103 0 197 55 252 140h31c-63 -102 -168 -166 -288 -166c-134 0 -233 85 -233 222c0 19 2 38 5 56v-1c29 157 171 279 332 279c132 0 231 -87 231 -223zM615 318c0 113 -92 199 -204 199
c-135 0 -264 -97 -297 -229h499c2 10 2 20 2 30zM623 638l-29 -15l-152 94l-188 -94l-22 15l216 110z" />
    <glyph glyph-name="edieresis" unicode="&#xeb;" horiz-adv-x="619" 
d="M643 320c0 -19 -1 -40 -6 -58h-528c-3 -16 -5 -32 -5 -49c0 -119 93 -200 209 -200c103 0 197 55 252 140h31c-63 -102 -168 -166 -288 -166c-134 0 -233 85 -233 222c0 19 2 38 5 56v-1c29 157 171 279 332 279c132 0 231 -87 231 -223zM615 318c0 113 -92 199 -204 199
c-135 0 -264 -97 -297 -229h499c2 10 2 20 2 30zM515 734l-21 -116h-29l21 116h29zM395 734l-21 -116h-29l21 116h29z" />
    <glyph glyph-name="egrave" unicode="&#xe8;" horiz-adv-x="619" 
d="M643 320c0 -19 -1 -40 -6 -58h-528c-3 -16 -5 -32 -5 -49c0 -119 93 -200 209 -200c103 0 197 55 252 140h31c-63 -102 -168 -166 -288 -166c-134 0 -233 85 -233 222c0 19 2 38 5 56v-1c29 157 171 279 332 279c132 0 231 -87 231 -223zM615 318c0 113 -92 199 -204 199
c-135 0 -264 -97 -297 -229h499c2 10 2 20 2 30zM543 628l-17 -23l-212 138l18 23z" />
    <glyph glyph-name="iacute" unicode="&#xed;" horiz-adv-x="184" 
d="M204 530l-98 -530h-28l98 530h28zM384 743l-264 -138l-9 23l263 138z" />
    <glyph glyph-name="icircumflex" unicode="&#xee;" horiz-adv-x="184" 
d="M204 530l-98 -530h-28l98 530h28zM406 638l-29 -15l-152 94l-188 -94l-22 15l216 110z" />
    <glyph glyph-name="idieresis" unicode="&#xef;" horiz-adv-x="184" 
d="M204 530l-98 -530h-28l98 530h28zM303 734l-21 -116h-29l21 116h29zM183 734l-21 -116h-29l21 116h29z" />
    <glyph glyph-name="igrave" unicode="&#xec;" horiz-adv-x="184" 
d="M204 530l-98 -530h-28l98 530h28zM306 628l-17 -23l-212 138l18 23z" />
    <glyph glyph-name="ntilde" unicode="&#xf1;" horiz-adv-x="641" 
d="M624 358c0 -26 -3 -52 -8 -78l-52 -280h-28l52 280c4 24 7 48 7 72c0 114 -69 165 -178 165c-134 0 -230 -81 -254 -212l-57 -305h-28l98 530h28l-19 -102h2c46 75 146 115 231 115c124 0 206 -54 206 -185zM624 665c-28 -17 -62 -32 -95 -32c-80 0 -100 53 -165 53
c-29 0 -59 -10 -83 -27l-16 20c32 23 65 35 104 35c66 0 101 -51 165 -51c28 0 49 10 74 23z" />
    <glyph glyph-name="oacute" unicode="&#xf3;" horiz-adv-x="641" 
d="M653 320c0 -180 -157 -333 -335 -333c-134 0 -233 86 -233 223c0 180 157 333 336 333c133 0 232 -87 232 -223zM625 315c0 123 -88 202 -209 202c-162 0 -303 -140 -303 -302c0 -123 89 -202 209 -202c163 0 303 140 303 302zM587 743l-264 -138l-9 23l263 138z" />
    <glyph glyph-name="ocircumflex" unicode="&#xf4;" horiz-adv-x="641" 
d="M653 320c0 -180 -157 -333 -335 -333c-134 0 -233 86 -233 223c0 180 157 333 336 333c133 0 232 -87 232 -223zM625 315c0 123 -88 202 -209 202c-162 0 -303 -140 -303 -302c0 -123 89 -202 209 -202c163 0 303 140 303 302zM634 638l-29 -15l-152 94l-188 -94l-22 15
l216 110z" />
    <glyph glyph-name="odieresis" unicode="&#xf6;" horiz-adv-x="641" 
d="M653 320c0 -180 -157 -333 -335 -333c-134 0 -233 86 -233 223c0 180 157 333 336 333c133 0 232 -87 232 -223zM625 315c0 123 -88 202 -209 202c-162 0 -303 -140 -303 -302c0 -123 89 -202 209 -202c163 0 303 140 303 302zM531 734l-21 -116h-29l21 116h29zM411 734
l-21 -116h-29l21 116h29z" />
    <glyph glyph-name="ograve" unicode="&#xf2;" horiz-adv-x="641" 
d="M653 320c0 -180 -157 -333 -335 -333c-134 0 -233 86 -233 223c0 180 157 333 336 333c133 0 232 -87 232 -223zM625 315c0 123 -88 202 -209 202c-162 0 -303 -140 -303 -302c0 -123 89 -202 209 -202c163 0 303 140 303 302zM554 628l-17 -23l-212 138l18 23z" />
    <glyph glyph-name="otilde" unicode="&#xf5;" horiz-adv-x="641" 
d="M653 320c0 -180 -157 -333 -335 -333c-134 0 -233 86 -233 223c0 180 157 333 336 333c133 0 232 -87 232 -223zM625 315c0 123 -88 202 -209 202c-162 0 -303 -140 -303 -302c0 -123 89 -202 209 -202c163 0 303 140 303 302zM624 665c-28 -17 -62 -32 -95 -32
c-80 0 -100 53 -165 53c-29 0 -59 -10 -83 -27l-16 20c32 23 65 35 104 35c66 0 101 -51 165 -51c28 0 49 10 74 23z" />
    <glyph glyph-name="scaron" unicode="&#x161;" horiz-adv-x="426" 
d="M429 437c0 -11 -1 -22 -3 -32h-28c2 9 3 18 3 27c0 58 -40 85 -94 85c-74 0 -138 -54 -138 -130c0 -129 226 -52 226 -214c0 -101 -85 -186 -186 -186c-73 0 -139 44 -139 122c0 13 2 26 5 38h28c-2 -10 -3 -20 -3 -30c0 -69 49 -104 113 -104c85 0 153 70 153 155
c0 140 -226 65 -226 210c0 97 77 165 172 165c66 0 117 -36 117 -106zM545 734l-216 -111l-175 110l29 15l152 -94l188 94z" />
    <glyph glyph-name="uacute" unicode="&#xfa;" horiz-adv-x="641" 
d="M662 530l-98 -530h-28l20 107h-2c-47 -79 -142 -120 -232 -120c-123 0 -206 54 -206 185c0 26 4 52 8 78l52 280h28l-52 -280c-4 -24 -7 -48 -7 -72c0 -114 69 -165 178 -165c137 0 231 83 255 216l56 301h28zM592 743l-264 -138l-9 23l263 138z" />
    <glyph glyph-name="ucircumflex" unicode="&#xfb;" horiz-adv-x="641" 
d="M662 530l-98 -530h-28l20 107h-2c-47 -79 -142 -120 -232 -120c-123 0 -206 54 -206 185c0 26 4 52 8 78l52 280h28l-52 -280c-4 -24 -7 -48 -7 -72c0 -114 69 -165 178 -165c137 0 231 83 255 216l56 301h28zM634 638l-29 -15l-152 94l-188 -94l-22 15l216 110z" />
    <glyph glyph-name="udieresis" unicode="&#xfc;" horiz-adv-x="641" 
d="M662 530l-98 -530h-28l20 107h-2c-47 -79 -142 -120 -232 -120c-123 0 -206 54 -206 185c0 26 4 52 8 78l52 280h28l-52 -280c-4 -24 -7 -48 -7 -72c0 -114 69 -165 178 -165c137 0 231 83 255 216l56 301h28zM531 734l-21 -116h-29l21 116h29zM411 734l-21 -116h-29
l21 116h29z" />
    <glyph glyph-name="ugrave" unicode="&#xf9;" horiz-adv-x="641" 
d="M662 530l-98 -530h-28l20 107h-2c-47 -79 -142 -120 -232 -120c-123 0 -206 54 -206 185c0 26 4 52 8 78l52 280h28l-52 -280c-4 -24 -7 -48 -7 -72c0 -114 69 -165 178 -165c137 0 231 83 255 216l56 301h28zM554 628l-17 -23l-212 138l18 23z" />
    <glyph glyph-name="yacute" unicode="&#xfd;" horiz-adv-x="481" 
d="M578 530l-458 -743h-32l133 214l-112 529h31l105 -491l300 491h33zM512 743l-264 -138l-9 23l263 138z" />
    <glyph glyph-name="ydieresis" unicode="&#xff;" horiz-adv-x="481" 
d="M578 530l-458 -743h-32l133 214l-112 529h31l105 -491l300 491h33zM451 734l-21 -116h-29l21 116h29zM331 734l-21 -116h-29l21 116h29z" />
    <glyph glyph-name="zcaron" unicode="&#x17e;" horiz-adv-x="407" 
d="M475 530l-5 -27l-417 -477h346l-5 -26h-382l4 24l418 480h-311l5 26h347zM535 734l-216 -111l-175 110l29 15l152 -94l188 94z" />
    <glyph glyph-name="oneeighth" unicode="&#x215b;" horiz-adv-x="722" 
d="M202 296h-28l78 419h-95l5 25h123zM619 740l-467 -740h-29l466 740h30zM417 104c0 66 48 126 109 147c-23 17 -40 47 -40 78c0 64 67 123 131 123c54 0 92 -37 92 -88c0 -46 -34 -89 -75 -113c38 -16 63 -52 63 -98c0 -86 -82 -161 -165 -161c-68 0 -115 48 -115 112z
M445 107c0 -51 38 -90 92 -90c67 0 132 61 132 130c0 52 -38 91 -92 91c-68 0 -131 -62 -132 -131zM514 329c0 -38 26 -67 68 -67c53 0 99 47 99 99c0 38 -27 66 -68 66c-52 0 -99 -45 -99 -98z" />
    <glyph glyph-name="threeeighths" unicode="&#x215c;" horiz-adv-x="850" 
d="M399 450c0 -89 -79 -162 -167 -162c-60 0 -115 38 -115 113c0 9 0 19 2 29h28c-1 -9 -2 -17 -2 -25c0 -68 53 -92 92 -92c74 0 133 59 133 132c0 43 -26 92 -100 92h-27l5 25h27c85 0 103 66 105 80c1 6 2 12 2 17c0 35 -22 64 -65 64c-48 0 -86 -34 -97 -81h-28
c19 77 84 106 130 106c48 0 89 -34 89 -86c0 -70 -58 -102 -76 -111c39 -17 64 -55 64 -101zM747 740l-467 -740h-29l466 740h30zM545 104c0 66 48 126 109 147c-23 17 -40 47 -40 78c0 64 67 123 131 123c54 0 92 -37 92 -88c0 -46 -34 -89 -75 -113c38 -16 63 -52 63 -98
c0 -86 -82 -161 -165 -161c-68 0 -115 48 -115 112zM573 107c0 -51 38 -90 92 -90c67 0 132 61 132 130c0 52 -38 91 -92 91c-68 0 -131 -62 -132 -131zM642 329c0 -38 26 -67 68 -67c53 0 99 47 99 99c0 38 -27 66 -68 66c-52 0 -99 -45 -99 -98z" />
    <glyph glyph-name="fiveeighths" unicode="&#x215d;" horiz-adv-x="875" 
d="M397 466c0 60 -43 104 -100 104c-18 0 -61 -4 -107 -52l-21 6l80 216h205l-5 -25h-182c-21 -54 -37 -99 -57 -153c20 15 52 33 93 33c76 0 123 -56 123 -124c0 -100 -93 -183 -182 -183c-55 0 -124 40 -124 128c0 5 0 10 1 16h28v-12c0 -69 49 -107 101 -107
c74 0 147 72 147 153zM772 740l-467 -740h-29l466 740h30zM570 104c0 66 48 126 109 147c-23 17 -40 47 -40 78c0 64 67 123 131 123c54 0 92 -37 92 -88c0 -46 -34 -89 -75 -113c38 -16 63 -52 63 -98c0 -86 -82 -161 -165 -161c-68 0 -115 48 -115 112zM598 107
c0 -51 38 -90 92 -90c67 0 132 61 132 130c0 52 -38 91 -92 91c-68 0 -131 -62 -132 -131zM667 329c0 -38 26 -67 68 -67c53 0 99 47 99 99c0 38 -27 66 -68 66c-52 0 -99 -45 -99 -98z" />
    <glyph glyph-name="seveneighths" unicode="&#x215e;" horiz-adv-x="707" 
d="M407 718l-276 -422h-29l274 419h-210l5 25h240zM604 740l-467 -740h-29l466 740h30zM402 104c0 66 48 126 109 147c-23 17 -40 47 -40 78c0 64 67 123 131 123c54 0 92 -37 92 -88c0 -46 -34 -89 -75 -113c38 -16 63 -52 63 -98c0 -86 -82 -161 -165 -161
c-68 0 -115 48 -115 112zM430 107c0 -51 38 -90 92 -90c67 0 132 61 132 130c0 52 -38 91 -92 91c-68 0 -131 -62 -132 -131zM499 329c0 -38 26 -67 68 -67c53 0 99 47 99 99c0 38 -27 66 -68 66c-52 0 -99 -45 -99 -98z" />
    <glyph glyph-name="onethird" unicode="&#x2153;" horiz-adv-x="719" 
d="M202 296h-28l78 419h-95l5 25h123zM619 740l-467 -740h-29l466 740h30zM694 154c0 -89 -79 -162 -167 -162c-60 0 -115 38 -115 113c0 9 0 19 2 29h28c-1 -9 -2 -17 -2 -25c0 -68 53 -92 92 -92c74 0 133 59 133 132c0 43 -26 92 -100 92h-27l5 25h27c85 0 103 66 105 80
c1 6 2 12 2 17c0 35 -22 64 -65 64c-48 0 -86 -34 -97 -81h-28c19 77 84 106 130 106c48 0 89 -34 89 -86c0 -70 -58 -102 -76 -111c39 -17 64 -55 64 -101z" />
    <glyph glyph-name="twothirds" unicode="&#x2154;" horiz-adv-x="840" 
d="M376 296h-271l5 23l220 193c60 52 78 85 78 131c0 41 -21 80 -85 80c-60 0 -108 -42 -125 -114l-1 -9h-28l1 8c22 101 98 140 159 140c66 0 107 -37 107 -101c0 -60 -31 -101 -90 -153l-197 -173h232zM738 740l-467 -740h-29l466 740h30zM814 154
c0 -89 -79 -162 -167 -162c-60 0 -115 38 -115 113c0 9 0 19 2 29h28c-1 -9 -2 -17 -2 -25c0 -68 53 -92 92 -92c74 0 133 59 133 132c0 43 -26 92 -100 92h-27l5 25h27c85 0 103 66 105 80c1 6 2 12 2 17c0 35 -22 64 -65 64c-48 0 -86 -34 -97 -81h-28
c19 77 84 106 130 106c48 0 89 -34 89 -86c0 -70 -58 -102 -76 -111c39 -17 64 -55 64 -101z" />
    <glyph glyph-name="uni00A0" unicode="&#xa0;" horiz-adv-x="277" 
 />
    <glyph glyph-name="uni00AD" unicode="&#xad;" horiz-adv-x="266" 
d="M320 291l-5 -29h-266l5 29h266z" />
    <glyph glyph-name="two.superior" unicode="&#xb2;" horiz-adv-x="351" 
d="M381 422h-271l5 23l220 193c60 52 78 85 78 131c0 41 -21 80 -85 80c-60 0 -108 -42 -125 -114l-1 -9h-28l1 8c22 101 98 140 159 140c66 0 107 -37 107 -101c0 -60 -31 -101 -90 -153l-197 -173h232z" />
    <glyph glyph-name="three.superior" unicode="&#xb3;" horiz-adv-x="351" 
d="M412 576c0 -89 -79 -162 -167 -162c-60 0 -115 38 -115 113c0 9 0 19 2 29h28c-1 -9 -2 -17 -2 -25c0 -68 53 -92 92 -92c74 0 133 59 133 132c0 43 -26 92 -100 92h-27l5 25h27c85 0 103 66 105 80c1 6 2 12 2 17c0 35 -22 64 -65 64c-48 0 -86 -34 -97 -81h-28
c19 77 84 106 130 106c48 0 89 -34 89 -86c0 -70 -58 -102 -76 -111c39 -17 64 -55 64 -101z" />
    <glyph glyph-name="one.superior" unicode="&#xb9;" horiz-adv-x="247" 
d="M216 422h-28l78 419h-95l5 25h123z" />
    <glyph glyph-name="uni02C9" unicode="&#x2c9;" 
d="M583 690l-6 -30h-356l6 30h356z" />
    <glyph glyph-name="uni03A9" unicode="&#x3a9;" horiz-adv-x="652" 
d="M599 0h-189l5 28c77 58 189 159 225 352c6 30 8 59 8 86c0 129 -63 220 -192 220c-150 0 -272 -132 -304 -304c-6 -34 -9 -66 -9 -95c0 -127 55 -205 105 -259l-5 -28h-189l5 28h147c-41 41 -92 124 -92 250c0 31 4 64 10 100c34 188 171 334 335 334
c141 0 218 -93 218 -240c0 -29 -3 -60 -9 -93c-31 -165 -134 -292 -212 -351h148z" />
    <glyph glyph-name="uni03BC" unicode="&#x3bc;" horiz-adv-x="561" 
d="M582 530l-98 -530h-28l22 119h-2c-42 -82 -111 -132 -205 -132c-70 0 -128 21 -154 90h-2l-48 -258h-28l132 711h28l-55 -300c-6 -28 -11 -57 -11 -85c0 -89 58 -132 142 -132c146 0 210 142 233 265l46 252h28z" />
    <glyph glyph-name="pi" unicode="&#x3c0;" horiz-adv-x="558" 
d="M516 30l4 -28c-11 -5 -29 -7 -41 -7c-53 0 -77 33 -77 78c0 9 1 20 3 30l68 367h-227l-65 -350c-8 -43 -22 -92 -33 -120h-31c15 34 27 82 33 118l66 352c-27 0 -74 -9 -101 -18c-1 9 -3 20 -4 29c19 7 59 19 116 19h386l-5 -30h-105l-68 -367c-2 -9 -3 -18 -3 -26
c0 -32 16 -52 54 -52c9 0 18 1 30 5z" />
    <glyph glyph-name="Euro" unicode="&#x20ac;" 
d="M639 606c0 -7 0 -14 -1 -21h-29c1 4 1 9 1 13c0 88 -55 128 -139 128c-153 0 -215 -142 -246 -269h304l-10 -26h-300c-8 -36 -14 -72 -20 -108h280l-10 -26h-274c-4 -33 -8 -66 -8 -100c0 -107 32 -183 153 -183c99 0 160 46 194 138h30c-38 -109 -114 -165 -230 -165
c-135 0 -178 83 -178 206c0 35 3 70 8 104h-82l10 26h76c7 36 13 72 21 108h-82l10 26h78c35 148 108 296 282 296c95 0 162 -45 162 -147z" />
    <glyph glyph-name="litre" unicode="&#x2113;" horiz-adv-x="450" 
d="M381 60c-30 -31 -75 -71 -131 -71c-25 0 -45 9 -56 24c-11 14 -17 34 -17 60c0 13 1 28 4 44l29 153l-76 -74l-19 17l103 104l49 264c18 98 60 147 119 147c42 0 55 -29 55 -62c0 -9 -1 -19 -3 -28c-17 -93 -76 -202 -154 -293c-8 -10 -25 -30 -36 -40l-37 -200
c-2 -11 -3 -20 -3 -29c0 -41 22 -57 49 -57c38 0 72 28 104 58c6 -6 13 -11 20 -17zM408 638c1 5 2 10 2 16c0 22 -10 43 -34 43c-30 0 -60 -23 -79 -126l-40 -215c8 8 17 19 23 27c60 75 114 182 128 255z" />
    <glyph glyph-name="Omega" unicode="&#x2126;" horiz-adv-x="652" 
d="M599 0h-189l5 28c77 58 189 159 225 352c6 30 8 59 8 86c0 129 -63 220 -192 220c-150 0 -272 -132 -304 -304c-6 -34 -9 -66 -9 -95c0 -127 55 -205 105 -259l-5 -28h-189l5 28h147c-41 41 -92 124 -92 250c0 31 4 64 10 100c34 188 171 334 335 334
c141 0 218 -93 218 -240c0 -29 -3 -60 -9 -93c-31 -165 -134 -292 -212 -351h148z" />
    <glyph glyph-name="estimated" unicode="&#x212e;" horiz-adv-x="626" 
d="M652 284h-439l-36 -195c34 -42 83 -64 144 -64c97 0 170 48 233 129c12 -7 21 -14 32 -21c-75 -89 -154 -145 -272 -145c-147 0 -228 99 -228 231c0 21 2 43 6 65c31 165 160 297 332 297c155 0 233 -101 233 -237c0 -19 -2 -39 -5 -60zM533 321l29 158
c-34 42 -85 65 -145 65c-62 0 -118 -21 -168 -64l-29 -159h313z" />
    <glyph glyph-name="partialdiff" unicode="&#x2202;" horiz-adv-x="518" 
d="M559 518c-9 -48 -31 -123 -65 -202c-57 -137 -168 -325 -317 -325c-68 0 -107 46 -107 120c0 14 1 30 4 46c32 177 176 346 316 346c68 0 99 -37 112 -79h2c7 23 16 51 22 85c5 26 7 49 7 69c0 83 -39 116 -108 116c-24 0 -55 -8 -86 -24c-3 9 -5 18 -7 27
c21 12 71 27 103 27c85 0 131 -46 131 -138c0 -21 -2 -43 -7 -68zM486 373c-4 58 -39 99 -110 99c-119 0 -243 -154 -272 -313c-3 -14 -4 -28 -4 -40c0 -65 36 -99 86 -99c102 0 209 119 300 353z" />
    <glyph glyph-name="Delta" unicode="&#x2206;" horiz-adv-x="536" 
d="M504 0h-486l4 23c121 226 241 451 362 677h15c36 -226 73 -451 109 -677zM475 28c-29 189 -59 379 -88 568c-4 21 -3 34 -5 51h-1c-7 -16 -15 -36 -24 -51c-100 -190 -199 -379 -299 -568h417z" />
    <glyph glyph-name="product" unicode="&#x220f;" horiz-adv-x="644" 
d="M514 -230h-29l167 904h-411l-167 -904h-29l172 930h469z" />
    <glyph glyph-name="summation" unicode="&#x2211;" horiz-adv-x="569" 
d="M510 -230h-530l1 6c140 155 280 308 421 463c-75 150 -151 299 -226 449l2 12h476l-5 -28h-428c72 -144 146 -288 218 -433l-402 -441h478z" />
    <glyph glyph-name="uni2215" unicode="&#x2215;" horiz-adv-x="86" 
d="M359 740l-467 -740h-29l466 740h30z" />
    <glyph glyph-name="uni2219" unicode="&#x2219;" horiz-adv-x="277" 
d="M224 420l-15 -81h-30l15 81h30z" />
    <glyph glyph-name="radical" unicode="&#x221a;" horiz-adv-x="436" 
d="M587 728c-110 -247 -218 -493 -328 -740h-25c-23 125 -43 250 -66 375c-19 -9 -38 -16 -57 -25c-2 10 -3 20 -5 30c29 11 60 24 89 35c22 -114 42 -229 63 -343c98 222 195 446 292 668h37z" />
    <glyph glyph-name="infinity" unicode="&#x221e;" horiz-adv-x="695" 
d="M691 294c-14 -76 -77 -138 -155 -138c-80 0 -120 56 -138 106h-2c-42 -54 -108 -106 -171 -106c-79 0 -114 47 -114 104c0 10 1 19 3 29c14 76 69 138 158 138c85 0 121 -65 136 -105h2c37 46 97 105 171 105c67 0 113 -37 113 -102c0 -10 -1 -20 -3 -31zM655 293
c2 9 2 17 2 25c0 45 -24 78 -79 78c-58 0 -109 -41 -159 -104c26 -69 69 -105 118 -105c66 0 107 47 118 106zM387 292c-21 58 -69 104 -120 104c-70 0 -106 -49 -117 -107c-1 -8 -2 -16 -2 -24c0 -49 32 -78 80 -78c59 0 115 50 159 105z" />
    <glyph glyph-name="integral" unicode="&#x222b;" horiz-adv-x="449" 
d="M501 709c-7 5 -24 10 -41 10c-55 0 -93 -40 -105 -105l-129 -699c-16 -85 -75 -129 -142 -129c-17 0 -37 4 -48 10c5 9 9 18 15 28c11 -5 20 -9 41 -9c58 0 92 37 104 104l130 701c15 81 74 128 144 128c19 0 38 -5 45 -10c-4 -9 -9 -20 -14 -29z" />
    <glyph glyph-name="approxequal" unicode="&#x2248;" horiz-adv-x="600" 
d="M589 358c-32 -44 -75 -71 -112 -71c-38 0 -72 18 -108 36c-35 18 -72 36 -105 37h-5c-33 0 -70 -11 -109 -62l-16 18c34 47 82 72 129 72h6c40 -2 77 -20 112 -37c35 -18 68 -36 99 -36c39 0 69 33 93 62zM557 188c-32 -44 -75 -71 -112 -71c-38 0 -71 18 -107 36
s-72 36 -105 37h-5c-33 0 -70 -11 -110 -62l-15 18c33 47 82 72 129 72h6c40 -2 76 -20 111 -37c36 -18 68 -36 99 -36c39 0 69 33 94 62z" />
    <glyph glyph-name="notequal" unicode="&#x2260;" horiz-adv-x="600" 
d="M580 500l-123 -139h159l-5 -28h-175l-147 -166h291l-5 -28h-306l-122 -139h-35l122 139h-159l5 28h174l147 166h-290l5 28h306l123 139h35z" />
    <glyph glyph-name="lessequal" unicode="&#x2264;" horiz-adv-x="600" 
d="M564 80l-456 235l6 32l543 235l-5 -31l-508 -220l426 -220zM552 0h-504l5 28h504z" />
    <glyph glyph-name="greaterequal" unicode="&#x2265;" horiz-adv-x="600" 
d="M608 315l-544 -235l6 31l508 220l-426 220l5 31l457 -235zM552 0h-504l5 28h504z" />
    <glyph glyph-name="lozenge" unicode="&#x25ca;" horiz-adv-x="495" 
d="M507 350c-81 -117 -163 -233 -244 -350h-22c-39 116 -77 233 -116 349c82 117 164 234 245 351h22c39 -117 77 -233 115 -350zM469 350c-32 99 -65 198 -98 297c-69 -99 -139 -198 -209 -297c33 -99 66 -198 98 -297c71 99 140 198 209 297z" />
    <glyph glyph-name="A.alt01" unicode="&#xe000;" horiz-adv-x="656" 
d="M716 740l-137 -740h-30l47 251h-341l-225 -251h-37l663 740h60zM684 728h-2l-402 -450h321z" />
    <glyph glyph-name="Aacute.alt01" unicode="&#xe001;" horiz-adv-x="657" 
d="M716 740l-137 -740h-30l47 251h-341l-225 -251h-37l663 740h60zM684 728h-2l-402 -450h321zM630 803l262 138l10 -23l-263 -138z" />
    <glyph glyph-name="Agrave.alt01" unicode="&#xe002;" horiz-adv-x="656" 
d="M716 740l-137 -740h-30l47 251h-341l-225 -251h-37l663 740h60zM684 728h-2l-402 -450h321zM529 941l212 -138l-17 -23l-213 138z" />
    <glyph glyph-name="Acircumflex.alt01" unicode="&#xe003;" horiz-adv-x="656" 
d="M716 740l-137 -740h-30l47 251h-341l-225 -251h-37l663 740h60zM684 728h-2l-402 -450h321zM722 915l160 -117h-45l-133 95l-168 -95h-45l203 117h28z" />
    <glyph glyph-name="Adieresis.alt01" unicode="&#xe004;" horiz-adv-x="656" 
d="M716 740l-137 -740h-30l47 251h-341l-225 -251h-37l663 740h60zM684 728h-2l-402 -450h321zM638 914l-21 -116h-29l21 116h29zM804 914l-21 -116h-29l21 116h29z" />
    <glyph glyph-name="Atilde.alt01" unicode="&#xe005;" horiz-adv-x="656" 
d="M716 740l-137 -740h-30l47 251h-341l-225 -251h-37l663 740h60zM684 728h-2l-402 -450h321zM874 880l16 -20c-27 -26 -65 -40 -102 -40c-67 0 -107 37 -168 37c-30 0 -60 -12 -81 -32l-16 20c27 26 65 40 102 40c67 0 107 -37 168 -37c30 0 60 12 81 32z" />
    <glyph glyph-name="Aring.alt01" unicode="&#xe006;" horiz-adv-x="656" 
d="M716 740l-137 -740h-30l47 251h-341l-225 -251h-37l663 740h60zM684 728h-2l-402 -450h321zM729 942c43 0 76 -31 76 -74c0 -57 -55 -108 -111 -108c-43 0 -76 31 -76 74c0 58 55 108 111 108zM722 916c-39 0 -75 -36 -75 -75c0 -30 22 -52 52 -52c39 0 77 34 77 74
c0 32 -23 53 -54 53z" />
    <glyph glyph-name="A.alt02" unicode="&#xe00a;" horiz-adv-x="657" 
d="M664 0h-37l-131 251h-341l-47 -251h-30l137 740h60zM481 278l-236 450h-2l-83 -450h321z" />
    <glyph glyph-name="Aacute.alt02" unicode="&#xe00b;" horiz-adv-x="657" 
d="M664 0h-37l-131 251h-341l-47 -251h-30l137 740h60zM481 278l-236 450h-2l-83 -450h321zM200 803l262 138l10 -23l-263 -138z" />
    <glyph glyph-name="Agrave.alt02" unicode="&#xe00c;" horiz-adv-x="657" 
d="M664 0h-37l-131 251h-341l-47 -251h-30l137 740h60zM481 278l-236 450h-2l-83 -450h321zM119 941l212 -138l-17 -23l-213 138z" />
    <glyph glyph-name="Acircumflex.alt02" unicode="&#xe00d;" horiz-adv-x="657" 
d="M664 0h-37l-131 251h-341l-47 -251h-30l137 740h60zM481 278l-236 450h-2l-83 -450h321zM284 915l160 -117h-45l-133 95l-168 -95h-45l203 117h28z" />
    <glyph glyph-name="Adieresis.alt02" unicode="&#xe00e;" horiz-adv-x="657" 
d="M664 0h-37l-131 251h-341l-47 -251h-30l137 740h60zM481 278l-236 450h-2l-83 -450h321zM198 914l-21 -116h-29l21 116h29zM364 914l-21 -116h-29l21 116h29z" />
    <glyph glyph-name="Atilde.alt02" unicode="&#xe00f;" horiz-adv-x="657" 
d="M664 0h-37l-131 251h-341l-47 -251h-30l137 740h60zM481 278l-236 450h-2l-83 -450h321zM400 875l16 -20c-27 -26 -65 -40 -102 -40c-67 0 -107 37 -168 37c-30 0 -60 -12 -81 -32l-16 20c27 26 65 40 102 40c66 0 107 -37 168 -37c30 0 60 12 81 32z" />
    <glyph glyph-name="Aring.alt02" unicode="&#xe010;" horiz-adv-x="657" 
d="M664 0h-37l-131 251h-341l-47 -251h-30l137 740h60zM481 278l-236 450h-2l-83 -450h321zM277 942c43 0 76 -31 76 -74c0 -57 -55 -108 -111 -108c-43 0 -76 31 -76 74c0 58 55 108 111 108zM270 916c-39 0 -75 -36 -75 -75c0 -30 22 -52 52 -52c39 0 77 34 77 74
c0 32 -23 53 -54 53z" />
    <glyph glyph-name="A.alt03" unicode="&#xe014;" horiz-adv-x="886" 
d="M946 740l-137 -740h-30l40 216h-2c-77 -132 -228 -229 -394 -229c-188 0 -321 126 -321 308c0 24 3 49 8 75c41 222 243 383 455 383c168 0 283 -103 309 -229h2l40 216h30zM854 440c0 168 -121 286 -294 286c-196 0 -382 -151 -420 -356c-5 -24 -7 -47 -7 -70
c0 -168 122 -286 295 -286c196 0 382 151 420 356c4 24 6 47 6 70z" />
    <glyph glyph-name="Aacute.alt03" unicode="&#xe015;" horiz-adv-x="886" 
d="M946 740l-137 -740h-30l40 216h-2c-77 -132 -228 -229 -394 -229c-188 0 -321 126 -321 308c0 24 3 49 8 75c41 222 243 383 455 383c168 0 283 -103 309 -229h2l40 216h30zM854 440c0 168 -121 286 -294 286c-196 0 -382 -151 -420 -356c-5 -24 -7 -47 -7 -70
c0 -168 122 -286 295 -286c196 0 382 151 420 356c4 24 6 47 6 70zM500 823l262 138l10 -23l-263 -138z" />
    <glyph glyph-name="Agrave.alt03" unicode="&#xe016;" horiz-adv-x="886" 
d="M946 740l-137 -740h-30l40 216h-2c-77 -132 -228 -229 -394 -229c-188 0 -321 126 -321 308c0 24 3 49 8 75c41 222 243 383 455 383c168 0 283 -103 309 -229h2l40 216h30zM854 440c0 168 -121 286 -294 286c-196 0 -382 -151 -420 -356c-5 -24 -7 -47 -7 -70
c0 -168 122 -286 295 -286c196 0 382 151 420 356c4 24 6 47 6 70zM468 961l212 -138l-17 -23l-213 138z" />
    <glyph glyph-name="Acircumflex.alt03" unicode="&#xe017;" horiz-adv-x="886" 
d="M946 740l-137 -740h-30l40 216h-2c-77 -132 -228 -229 -394 -229c-188 0 -321 126 -321 308c0 24 3 49 8 75c41 222 243 383 455 383c168 0 283 -103 309 -229h2l40 216h30zM854 440c0 168 -121 286 -294 286c-196 0 -382 -151 -420 -356c-5 -24 -7 -47 -7 -70
c0 -168 122 -286 295 -286c196 0 382 151 420 356c4 24 6 47 6 70zM614 915l160 -117h-45l-133 95l-168 -95h-45l203 117h28z" />
    <glyph glyph-name="Adieresis.alt03" unicode="&#xe018;" horiz-adv-x="886" 
d="M946 740l-137 -740h-30l40 216h-2c-77 -132 -228 -229 -394 -229c-188 0 -321 126 -321 308c0 24 3 49 8 75c41 222 243 383 455 383c168 0 283 -103 309 -229h2l40 216h30zM854 440c0 168 -121 286 -294 286c-196 0 -382 -151 -420 -356c-5 -24 -7 -47 -7 -70
c0 -168 122 -286 295 -286c196 0 382 151 420 356c4 24 6 47 6 70zM528 934l-21 -116h-29l21 116h29zM694 934l-21 -116h-29l21 116h29z" />
    <glyph glyph-name="Atilde.alt03" unicode="&#xe019;" horiz-adv-x="886" 
d="M946 740l-137 -740h-30l40 216h-2c-77 -132 -228 -229 -394 -229c-188 0 -321 126 -321 308c0 24 3 49 8 75c41 222 243 383 455 383c168 0 283 -103 309 -229h2l40 216h30zM854 440c0 168 -121 286 -294 286c-196 0 -382 -151 -420 -356c-5 -24 -7 -47 -7 -70
c0 -168 122 -286 295 -286c196 0 382 151 420 356c4 24 6 47 6 70zM749 895l16 -20c-27 -26 -65 -40 -102 -40c-67 0 -107 37 -168 37c-30 0 -60 -12 -81 -32l-16 20c27 26 65 40 102 40c66 0 107 -37 168 -37c30 0 60 12 81 32z" />
    <glyph glyph-name="Aring.alt03" unicode="&#xe01a;" horiz-adv-x="886" 
d="M946 740l-137 -740h-30l40 216h-2c-77 -132 -228 -229 -394 -229c-188 0 -321 126 -321 308c0 24 3 49 8 75c41 222 243 383 455 383c168 0 283 -103 309 -229h2l40 216h30zM854 440c0 168 -121 286 -294 286c-196 0 -382 -151 -420 -356c-5 -24 -7 -47 -7 -70
c0 -168 122 -286 295 -286c196 0 382 151 420 356c4 24 6 47 6 70zM605 962c43 0 76 -31 76 -74c0 -57 -55 -108 -111 -108c-43 0 -76 31 -76 74c0 58 55 108 111 108zM598 936c-39 0 -75 -36 -75 -75c0 -30 22 -52 52 -52c39 0 77 34 77 74c0 32 -23 53 -54 53z" />
    <glyph glyph-name="C.alt01" unicode="&#xe01e;" horiz-adv-x="601" 
d="M685 731l-5 -29c-31 13 -70 24 -120 24c-196 0 -382 -151 -420 -356c-5 -24 -7 -47 -7 -70c0 -168 122 -286 295 -286c53 0 87 9 129 22l-6 -29c-36 -12 -84 -20 -128 -20c-188 0 -321 126 -321 308c0 24 3 49 8 75c41 222 243 383 455 383c45 0 97 -10 120 -22z" />
    <glyph glyph-name="Ccedilla.alt01" unicode="&#xe01f;" horiz-adv-x="601" 
d="M685 731l-5 -29c-31 13 -70 24 -120 24c-196 0 -382 -151 -420 -356c-5 -24 -7 -47 -7 -70c0 -168 122 -286 295 -286c53 0 87 9 129 22l-6 -29c-36 -12 -84 -20 -128 -20c-11 0 -21 0 -31 1l-28 -44l1 -1c3 1 8 3 14 3c41 0 60 -28 60 -58c0 -4 0 -9 -1 -13
c-7 -36 -38 -76 -87 -76c-13 0 -63 3 -63 60v2h27c3 -35 34 -35 41 -35c22 0 49 16 55 49c0 3 1 6 1 9c0 22 -17 36 -39 36c-17 0 -32 -8 -45 -25l-22 5l59 91c-156 23 -263 141 -263 304c0 24 3 49 8 75c41 222 243 383 455 383c45 0 97 -10 120 -22z" />
    <glyph glyph-name="E.alt01" unicode="&#xe024;" horiz-adv-x="601" 
d="M685 731l-5 -29c-31 13 -70 24 -120 24c-191 0 -373 -143 -417 -340h470l-5 -27h-470c-4 -20 -5 -39 -5 -58c0 -169 122 -287 295 -287c53 0 87 9 129 22l-6 -29c-36 -12 -84 -20 -128 -20c-188 0 -321 126 -321 308c0 24 3 49 8 75c41 222 243 383 455 383
c45 0 97 -10 120 -22z" />
    <glyph glyph-name="Eacute.alt01" unicode="&#xe025;" horiz-adv-x="601" 
d="M685 731l-5 -29c-31 13 -70 24 -120 24c-191 0 -373 -143 -417 -340h470l-5 -27h-470c-4 -20 -5 -39 -5 -58c0 -169 122 -287 295 -287c53 0 87 9 129 22l-6 -29c-36 -12 -84 -20 -128 -20c-188 0 -321 126 -321 308c0 24 3 49 8 75c41 222 243 383 455 383
c45 0 97 -10 120 -22zM458 838l262 138l10 -23l-264 -138z" />
    <glyph glyph-name="Egrave.alt01" unicode="&#xe026;" horiz-adv-x="601" 
d="M685 731l-5 -29c-31 13 -70 24 -120 24c-191 0 -373 -143 -417 -340h470l-5 -27h-470c-4 -20 -5 -39 -5 -58c0 -169 122 -287 295 -287c53 0 87 9 129 22l-6 -29c-36 -12 -84 -20 -128 -20c-188 0 -321 126 -321 308c0 24 3 49 8 75c41 222 243 383 455 383
c45 0 97 -10 120 -22zM420 976l212 -138l-18 -23l-212 138z" />
    <glyph glyph-name="Ecircumflex.alt01" unicode="&#xe027;" horiz-adv-x="601" 
d="M685 731l-5 -29c-31 13 -70 24 -120 24c-191 0 -373 -143 -417 -340h470l-5 -27h-470c-4 -20 -5 -39 -5 -58c0 -169 122 -287 295 -287c53 0 87 9 129 22l-6 -29c-36 -12 -84 -20 -128 -20c-188 0 -321 126 -321 308c0 24 3 49 8 75c41 222 243 383 455 383
c45 0 97 -10 120 -22zM560 950l160 -117h-45l-134 95l-167 -95h-45l203 117h28z" />
    <glyph glyph-name="Edieresis.alt01" unicode="&#xe028;" horiz-adv-x="601" 
d="M685 731l-5 -29c-31 13 -70 24 -120 24c-191 0 -373 -143 -417 -340h470l-5 -27h-470c-4 -20 -5 -39 -5 -58c0 -169 122 -287 295 -287c53 0 87 9 129 22l-6 -29c-36 -12 -84 -20 -128 -20c-188 0 -321 126 -321 308c0 24 3 49 8 75c41 222 243 383 455 383
c45 0 97 -10 120 -22zM483 949l-21 -116h-29l21 116h29zM649 949l-21 -116h-29l21 116h29z" />
    <glyph glyph-name="E.alt02" unicode="&#xe02e;" horiz-adv-x="851" 
d="M885 445c0 -24 -3 -49 -7 -75c-1 -2 -2 -6 -3 -11h-737c-4 -20 -5 -39 -5 -58c0 -169 122 -287 295 -287c142 0 277 79 355 199h33c-84 -137 -235 -226 -393 -226c-188 0 -321 126 -321 308c0 24 3 49 8 75c41 222 243 383 455 383c187 0 320 -126 320 -308zM854 440
c0 168 -121 286 -294 286c-191 0 -373 -143 -417 -340h708c2 18 3 36 3 54z" />
    <glyph glyph-name="Eacute.alt02" unicode="&#xe02f;" horiz-adv-x="851" 
d="M885 445c0 -24 -3 -49 -7 -75c-1 -2 -2 -6 -3 -11h-737c-4 -20 -5 -39 -5 -58c0 -169 122 -287 295 -287c142 0 277 79 355 199h33c-84 -137 -235 -226 -393 -226c-188 0 -321 126 -321 308c0 24 3 49 8 75c41 222 243 383 455 383c187 0 320 -126 320 -308zM855 440
c0 168 -122 286 -295 286c-191 0 -373 -143 -417 -340h708c2 18 4 36 4 54zM484 833l262 138l10 -23l-263 -138z" />
    <glyph glyph-name="Egrave.alt02" unicode="&#xe030;" horiz-adv-x="851" 
d="M885 445c0 -24 -3 -49 -7 -75c-1 -2 -2 -6 -3 -11h-737c-4 -20 -5 -39 -5 -58c0 -169 122 -287 295 -287c142 0 277 79 355 199h33c-84 -137 -235 -226 -393 -226c-188 0 -321 126 -321 308c0 24 3 49 8 75c41 222 243 383 455 383c187 0 320 -126 320 -308zM855 440
c0 168 -122 286 -295 286c-191 0 -373 -143 -417 -340h708c2 18 4 36 4 54zM469 971l212 -138l-17 -23l-213 138z" />
    <glyph glyph-name="Ecircumflex.alt02" unicode="&#xe031;" horiz-adv-x="851" 
d="M885 445c0 -24 -3 -49 -7 -75c-1 -2 -2 -6 -3 -11h-737c-4 -20 -5 -39 -5 -58c0 -169 122 -287 295 -287c142 0 277 79 355 199h33c-84 -137 -235 -226 -393 -226c-188 0 -321 126 -321 308c0 24 3 49 8 75c41 222 243 383 455 383c187 0 320 -126 320 -308zM855 440
c0 168 -122 286 -295 286c-191 0 -373 -143 -417 -340h708c2 18 4 36 4 54zM611 945l160 -117h-45l-133 95l-168 -95h-45l203 117h28z" />
    <glyph glyph-name="Edieresis.alt02" unicode="&#xe032;" horiz-adv-x="851" 
d="M885 445c0 -24 -3 -49 -7 -75c-1 -2 -2 -6 -3 -11h-737c-4 -20 -5 -39 -5 -58c0 -169 122 -287 295 -287c142 0 277 79 355 199h33c-84 -137 -235 -226 -393 -226c-188 0 -321 126 -321 308c0 24 3 49 8 75c41 222 243 383 455 383c187 0 320 -126 320 -308zM855 440
c0 168 -122 286 -295 286c-191 0 -373 -143 -417 -340h708c2 18 4 36 4 54zM528 944l-21 -116h-29l21 116h29zM694 944l-21 -116h-29l21 116h29z" />
    <glyph glyph-name="K.alt01" unicode="&#xe038;" horiz-adv-x="522" 
d="M659 740l-344 -365l207 -375h-36l-194 351l-149 -158l-36 -193h-30l137 740h30l-93 -500h2l470 500h36z" />
    <glyph glyph-name="K.alt02" unicode="&#xe03a;" horiz-adv-x="529" 
d="M651 740l-349 -359l227 -381h-38l-227 380l351 360h36zM244 740l-137 -740h-30l137 740h30z" />
    <glyph glyph-name="M.alt01" unicode="&#xe03c;" horiz-adv-x="1190" 
d="M1250 740l-137 -740h-30l132 712h-2l-640 -712h-23l132 712h-2l-640 -712h-37l666 740h48l-125 -676h2l608 676h48z" />
    <glyph glyph-name="M.alt02" unicode="&#xe03d;" horiz-adv-x="1196" 
d="M1193 0h-37l-381 720h-2l-133 -720h-23l-376 712h-2l-132 -712h-30l137 740h48l358 -676h2l125 676h55z" />
    <glyph glyph-name="M.alt03" unicode="&#xe03e;" horiz-adv-x="1143" 
d="M1165 561c0 -23 -3 -47 -8 -73l-90 -488h-30l91 489c4 24 6 46 6 68c0 98 -50 169 -184 169c-158 0 -249 -112 -273 -239l-90 -487h-30l91 489c4 24 6 46 6 68c0 98 -50 169 -184 169c-158 0 -249 -112 -273 -239l-90 -487h-30l137 740h30l-22 -117h2
c55 82 135 130 251 130c131 0 204 -58 204 -175h2c52 113 142 175 274 175c147 0 210 -77 210 -192z" />
    <glyph glyph-name="N.alt01" unicode="&#xe03f;" horiz-adv-x="678" 
d="M699 555c0 -21 -2 -44 -7 -67l-90 -488h-30l91 489c4 21 6 42 6 61c0 102 -57 176 -194 176c-158 0 -254 -112 -278 -239l-90 -487h-30l137 740h30l-22 -119h2c52 78 134 132 256 132c150 0 219 -79 219 -198z" />
    <glyph glyph-name="Ntilde.alt01" unicode="&#xe040;" horiz-adv-x="678" 
d="M699 555c0 -21 -2 -44 -7 -67l-90 -488h-30l91 489c4 21 6 42 6 61c0 102 -57 176 -194 176c-158 0 -254 -112 -278 -239l-90 -487h-30l137 740h30l-22 -119h2c52 78 134 132 256 132c150 0 219 -79 219 -198zM660 905l16 -20c-27 -26 -65 -40 -102 -40
c-67 0 -107 37 -168 37c-30 0 -60 -12 -81 -32l-16 20c27 26 65 40 102 40c66 0 107 -37 168 -37c30 0 60 12 81 32z" />
    <glyph glyph-name="U.alt01" unicode="&#xe044;" horiz-adv-x="678" 
d="M738 740l-137 -740h-30l22 117h-2c-60 -84 -139 -130 -255 -130c-151 0 -220 79 -220 198c0 21 2 44 7 67l90 488h30l-90 -489c-4 -21 -6 -42 -6 -61c0 -102 56 -176 194 -176c158 0 253 112 277 239l90 487h30z" />
    <glyph glyph-name="Uacute.alt01" unicode="&#xe045;" horiz-adv-x="678" 
d="M738 740l-137 -740h-30l22 117h-2c-60 -84 -139 -130 -255 -130c-151 0 -220 79 -220 198c0 21 2 44 7 67l90 488h30l-90 -489c-4 -21 -6 -42 -6 -61c0 -102 56 -176 194 -176c158 0 253 112 277 239l90 487h30zM380 803l262 138l10 -23l-263 -138z" />
    <glyph glyph-name="Ugrave.alt01" unicode="&#xe046;" horiz-adv-x="678" 
d="M738 740l-137 -740h-30l22 117h-2c-60 -84 -139 -130 -255 -130c-151 0 -220 79 -220 198c0 21 2 44 7 67l90 488h30l-90 -489c-4 -21 -6 -42 -6 -61c0 -102 56 -176 194 -176c158 0 253 112 277 239l90 487h30zM364 941l212 -138l-17 -23l-213 138z" />
    <glyph glyph-name="Ucircumflex.alt01" unicode="&#xe047;" horiz-adv-x="678" 
d="M738 740l-137 -740h-30l22 117h-2c-60 -84 -139 -130 -255 -130c-151 0 -220 79 -220 198c0 21 2 44 7 67l90 488h30l-90 -489c-4 -21 -6 -42 -6 -61c0 -102 56 -176 194 -176c158 0 253 112 277 239l90 487h30zM523 945l160 -117h-45l-133 95l-168 -95h-45l203 117h28z
" />
    <glyph glyph-name="Udieresis.alt01" unicode="&#xe048;" horiz-adv-x="678" 
d="M738 740l-137 -740h-30l22 117h-2c-60 -84 -139 -130 -255 -130c-151 0 -220 79 -220 198c0 21 2 44 7 67l90 488h30l-90 -489c-4 -21 -6 -42 -6 -61c0 -102 56 -176 194 -176c158 0 253 112 277 239l90 487h30zM418 914l-21 -116h-29l21 116h29zM584 914l-21 -116h-29
l21 116h29z" />
    <glyph glyph-name="V.alt02" unicode="&#xe04f;" horiz-adv-x="651" 
d="M785 740l-657 -740h-51l137 740h30l-132 -715h2l635 715h36z" />
    <glyph glyph-name="V.alt01" unicode="&#xe050;" horiz-adv-x="651" 
d="M711 740l-137 -740h-51l-383 740h36l371 -715h2l132 715h30z" />
    <glyph glyph-name="W.alt02" unicode="&#xe051;" horiz-adv-x="1190" 
d="M1324 740l-654 -740h-55l134 721h-2l-618 -721h-52l137 740h30l-133 -718h2l615 718h54l-133 -720h2l636 720h37z" />
    <glyph glyph-name="W.alt01" unicode="&#xe056;" horiz-adv-x="1190" 
d="M1250 740l-137 -740h-52l-350 721h-2l-134 -721h-55l-380 740h37l370 -720h2l133 720h54l349 -718h2l133 718h30z" />
    <glyph glyph-name="c.alt01" unicode="&#xe05b;" horiz-adv-x="522" 
d="M555 507l-6 -32c-33 25 -73 42 -132 42c-133 0 -270 -98 -299 -252c-3 -17 -5 -34 -5 -50c0 -122 90 -202 209 -202c76 0 120 26 149 41l-6 -32c-41 -20 -90 -35 -147 -35c-136 0 -233 87 -233 221c0 18 1 37 5 57c29 157 170 278 331 278c66 0 112 -21 134 -36z" />
    <glyph glyph-name="ccedilla.alt01" unicode="&#xe05c;" horiz-adv-x="522" 
d="M555 507l-6 -32c-33 25 -73 42 -132 42c-133 0 -270 -98 -299 -252c-3 -17 -5 -34 -5 -50c0 -122 90 -202 209 -202c76 0 120 26 149 41l-6 -32c-41 -20 -90 -35 -147 -35h-10l-28 -43l1 -1c3 1 8 3 14 3c41 0 60 -28 60 -58c0 -4 0 -9 -1 -13c-7 -36 -38 -76 -87 -76
c-13 0 -63 3 -63 60v2h27c3 -35 34 -35 41 -35c22 0 49 16 55 49c0 3 1 6 1 9c0 22 -17 36 -39 36c-17 0 -32 -8 -45 -25l-22 5l58 89c-116 15 -195 98 -195 219c0 18 1 37 5 57c29 157 170 278 331 278c66 0 112 -21 134 -36z" />
    <glyph glyph-name="e.alt01" unicode="&#xe061;" horiz-adv-x="602" 
d="M630 425l-469 -341c43 -53 117 -71 162 -71c78 0 144 32 194 73l-7 -37c-33 -23 -93 -62 -192 -62c-141 0 -233 92 -233 222c0 18 1 36 5 55c29 159 174 279 332 279c111 0 178 -59 208 -118zM591 428c-21 37 -81 89 -173 89c-128 0 -271 -96 -300 -250
c-3 -17 -4 -35 -4 -52c0 -40 9 -79 31 -111z" />
    <glyph glyph-name="eacute.alt01" unicode="&#xe062;" horiz-adv-x="602" 
d="M630 425l-469 -341c43 -53 117 -71 162 -71c78 0 144 32 194 73l-7 -37c-33 -23 -93 -62 -192 -62c-141 0 -233 92 -233 222c0 18 1 36 5 55c29 159 174 279 332 279c111 0 178 -59 208 -118zM591 428c-21 37 -81 89 -173 89c-128 0 -271 -96 -300 -250
c-3 -17 -4 -35 -4 -52c0 -40 9 -79 31 -111zM330 613l262 138l10 -23l-264 -138z" />
    <glyph glyph-name="egrave.alt01" unicode="&#xe063;" horiz-adv-x="602" 
d="M630 425l-469 -341c43 -53 117 -71 162 -71c78 0 144 32 194 73l-7 -37c-33 -23 -93 -62 -192 -62c-141 0 -233 92 -233 222c0 18 1 36 5 55c29 159 174 279 332 279c111 0 178 -59 208 -118zM591 428c-21 37 -81 89 -173 89c-128 0 -271 -96 -300 -250
c-3 -17 -4 -35 -4 -52c0 -40 9 -79 31 -111zM329 751l212 -138l-18 -23l-212 138z" />
    <glyph glyph-name="ecircumflex.alt01" unicode="&#xe064;" horiz-adv-x="602" 
d="M630 425l-469 -341c43 -53 117 -71 162 -71c78 0 144 32 194 73l-7 -37c-33 -23 -93 -62 -192 -62c-141 0 -233 92 -233 222c0 18 1 36 5 55c29 159 174 279 332 279c111 0 178 -59 208 -118zM591 428c-21 37 -81 89 -173 89c-128 0 -271 -96 -300 -250
c-3 -17 -4 -35 -4 -52c0 -40 9 -79 31 -111zM470 725l161 -117h-45l-134 95l-167 -95h-45l202 117h28z" />
    <glyph glyph-name="edieresis.alt01" unicode="&#xe065;" horiz-adv-x="602" 
d="M630 425l-469 -341c43 -53 117 -71 162 -71c78 0 144 32 194 73l-7 -37c-33 -23 -93 -62 -192 -62c-141 0 -233 92 -233 222c0 18 1 36 5 55c29 159 174 279 332 279c111 0 178 -59 208 -118zM591 428c-21 37 -81 89 -173 89c-128 0 -271 -96 -300 -250
c-3 -17 -4 -35 -4 -52c0 -40 9 -79 31 -111zM379 724l-21 -116h-29l21 116h29zM545 724l-21 -116h-29l21 116h29z" />
    <glyph glyph-name="f.alt01" unicode="&#xe06b;" horiz-adv-x="200" 
d="M400 753l-5 -27c-37 -3 -140 -8 -165 -141l-108 -585h-28l93 504h-87l5 26h87l10 52c7 37 30 163 198 171z" />
    <glyph glyph-name="f.alt02" unicode="&#xe06c;" horiz-adv-x="247" 
d="M384 753l-5 -27c-37 -3 -140 -8 -165 -141l-10 -55h138l-5 -26h-138l-93 -504h-28l108 582c7 37 30 163 198 171z" />
    <glyph glyph-name="k.alt01" unicode="&#xe06d;" horiz-adv-x="467" 
d="M532 530l-244 -259l163 -271h-37l-148 249l-142 -152l-18 -97h-28l137 740h28l-110 -595h2l360 385h37z" />
    <glyph glyph-name="k.alt02" unicode="&#xe06f;" horiz-adv-x="442" 
d="M106 0h-28l137 740h28zM156 257l307 273h41l-310 -270l236 -260h-43z" />
    <glyph glyph-name="t.alt01" unicode="&#xe071;" horiz-adv-x="230" 
d="M289 740l-137 -740h-28l93 504h-117l5 26h117l39 210h28z" />
    <glyph glyph-name="t.alt02" unicode="&#xe075;" horiz-adv-x="250" 
d="M340 530l-5 -26h-136l-93 -504h-28l137 740h28l-39 -210h136z" />
    <glyph glyph-name="v.alt02" unicode="&#xe079;" horiz-adv-x="502" 
d="M595 530l-471 -530h-46l98 530h28l-93 -504h2l448 504h34z" />
    <glyph glyph-name="v.alt01" unicode="&#xe07a;" horiz-adv-x="502" 
d="M522 530l-98 -530h-46l-275 530h34l262 -504h2l93 504h28z" />
    <glyph glyph-name="w.alt02" unicode="&#xe07b;" horiz-adv-x="883" 
d="M976 530l-461 -530h-44l95 512h-3l-442 -512h-43l98 530h28l-92 -500h2l431 500h52l-93 -501h2l437 501h33z" />
    <glyph glyph-name="w.alt01" unicode="&#xe080;" horiz-adv-x="883" 
d="M903 530l-98 -530h-43l-252 512h-3l-95 -512h-44l-265 530h33l251 -501h2l93 501h52l247 -500h2l92 500h28z" />
    <glyph glyph-name="y.alt01" unicode="&#xe085;" horiz-adv-x="521" 
d="M613 530l-647 -730h-34l138 155l106 575h28l-98 -532h2l471 532h34z" />
    <glyph glyph-name="yacute.alt01" unicode="&#xe086;" horiz-adv-x="521" 
d="M613 530l-647 -730h-34l138 155l106 575h28l-98 -532h2l471 532h34zM333 613l262 138l10 -23l-264 -138z" />
    <glyph glyph-name="ydieresis.alt01" unicode="&#xe087;" horiz-adv-x="521" 
d="M613 530l-647 -730h-34l138 155l106 575h28l-98 -532h2l471 532h34zM344 724l-21 -116h-29l21 116h29zM510 724l-21 -116h-29l21 116h29z" />
    <glyph glyph-name="C_A" unicode="&#xe08a;" horiz-adv-x="1047" 
d="M1107 740l-137 -740h-30l56 301h-305l-257 -287c159 2 294 97 368 199h34c-85 -122 -235 -226 -413 -226c-188 0 -321 126 -321 308c0 24 3 49 8 75c41 222 243 383 455 383c128 0 211 -53 260 -105l-24 -21c-59 58 -133 99 -241 99c-196 0 -382 -151 -420 -356
c-5 -24 -7 -47 -7 -70c0 -158 108 -272 265 -285l649 725h60zM1075 728h-2l-358 -400h286z" />
    <glyph glyph-name="C_O.alt01" unicode="&#xe0a1;" horiz-adv-x="786" 
d="M746 420c0 -15 -2 -31 -5 -47c-25 -138 -150 -242 -288 -242c-121 0 -202 81 -202 194c0 16 1 32 4 48c26 137 150 242 288 242c122 0 203 -82 203 -195zM856 575h-35c-21 39 -98 151 -261 151c-196 1 -382 -151 -420 -356c-5 -24 -7 -47 -7 -70
c0 -168 122 -286 295 -286s289 118 316 147h34c-66 -85 -200 -174 -355 -174c-188 0 -321 126 -321 308c0 24 3 49 8 75c41 222 243 384 455 383c157 0 252 -94 291 -178zM717 416c0 101 -71 173 -179 173c-123 0 -232 -93 -255 -216c-3 -15 -4 -29 -4 -43
c0 -101 71 -173 179 -173c123 0 232 93 255 216c3 15 4 29 4 43z" />
    <glyph glyph-name="C_O" unicode="&#xe0a2;" horiz-adv-x="1202" 
d="M1236 445c0 -24 -3 -49 -7 -75c-42 -222 -243 -383 -455 -383c-64 0 -122 14 -169 41c-54 -25 -116 -41 -182 -41c-188 0 -321 126 -321 308c0 24 3 49 8 75c41 221 242 383 455 383c66 0 120 -17 165 -42c58 27 122 42 186 42c187 0 320 -126 320 -308zM1205 440
c0 168 -121 286 -294 286c-53 0 -106 -11 -155 -31c48 -34 80 -78 100 -120h-35c-12 22 -43 69 -98 104c-116 -59 -207 -172 -232 -309c-5 -24 -7 -48 -7 -70c0 -106 48 -191 126 -240c72 36 119 84 134 101h34c-32 -42 -81 -84 -140 -117c41 -19 89 -30 141 -30
c196 0 382 151 420 356c4 24 6 47 6 70zM697 695c-37 18 -82 31 -137 31c-197 0 -382 -152 -420 -356c-5 -24 -7 -47 -7 -70c0 -168 122 -286 295 -286c56 0 107 13 150 30c-77 54 -124 143 -124 251c0 24 2 49 7 75c26 142 118 259 236 325z" />
    <glyph glyph-name="D_E" unicode="&#xe0ba;" horiz-adv-x="1129" 
d="M1202 740l-5 -27h-376l-60 -327h376l-5 -27h-376l-62 -332h376l-5 -27h-406l61 327h-2c-56 -214 -221 -327 -432 -327h-209l137 740h209c208 0 313 -110 313 -277c0 -16 -1 -33 -2 -50h2l60 327h406zM706 455c0 163 -102 258 -288 258h-179l-127 -686h179
c214 0 367 127 406 341c6 31 9 60 9 87z" />
    <glyph glyph-name="D_I" unicode="&#xe0c8;" horiz-adv-x="766" 
d="M826 740l-137 -740h-30l61 327h-2c-56 -214 -221 -327 -432 -327h-209l137 740h209c208 0 313 -110 313 -277c0 -16 -1 -33 -2 -50h2l60 327h30zM706 455c0 163 -102 258 -288 258h-179l-127 -686h179c214 0 367 127 406 341c6 31 9 60 9 87z" />
    <glyph glyph-name="E_A" unicode="&#xe0d5;" horiz-adv-x="939" 
d="M999 740l-137 -740h-30l45 244h-346l-194 -217h238l-5 -27h-493l137 740h367l-5 -27h-337l-60 -327h337l-5 -27h-337l-62 -332h188l639 713h60zM967 728h-2l-409 -457h326z" />
    <glyph glyph-name="F_A" unicode="&#xe0de;" horiz-adv-x="919" 
d="M979 740l-137 -740h-30l53 285h-316l-256 -285h-37l256 285h-352l-53 -285h-30l137 740h363l-5 -27h-333l-74 -401h371l383 428h60zM947 728h-2l-371 -416h296z" />
    <glyph glyph-name="F_R" unicode="&#xe0e7;" horiz-adv-x="666" 
d="M729 433c0 -13 -1 -25 -4 -37c-18 -99 -99 -208 -240 -208h-9l99 -188h-38l-112 215h53c60 0 102 11 142 46c44 38 67 89 75 134c2 9 3 21 3 34c0 31 -6 69 -26 91c-32 37 -64 52 -178 52h-117l-32 -172h169l-5 -27h-169l-69 -373h-30l69 373h-134l-69 -373h-30l137 740
h363l-5 -27h-333l-58 -313h134l37 200h147c97 0 156 -12 192 -51c27 -29 38 -75 38 -116z" />
    <glyph glyph-name="G_A" unicode="&#xe0e9;" horiz-adv-x="1020" 
d="M1080 740l-137 -740h-30l135 728h-2l-372 -415h203c-46 -151 -217 -326 -445 -326c-196 0 -330 126 -330 308c0 24 3 49 8 75c41 222 243 383 455 383c107 0 192 -39 247 -95l-23 -25c-46 51 -121 93 -229 93c-196 0 -382 -151 -420 -356c-5 -23 -7 -46 -7 -67
c0 -153 104 -260 240 -285l240 268h-218l5 27h237l383 427h60zM836 286h-186l-243 -271c7 -1 14 -1 21 -1c184 0 354 130 408 272z" />
    <glyph glyph-name="G_O" unicode="&#xe0fc;" horiz-adv-x="1245" 
d="M1279 445c0 -24 -3 -49 -7 -75c-42 -222 -243 -383 -455 -383c-71 0 -134 18 -185 50c-65 -32 -136 -50 -209 -50c-188 0 -321 126 -321 308c0 24 3 49 8 75c41 222 243 383 455 383c70 0 136 -18 190 -50c63 32 133 50 204 50c187 0 320 -126 320 -308zM1248 440
c0 168 -121 286 -294 286c-60 0 -120 -14 -174 -40c39 -29 69 -66 88 -110h-36c-22 38 -50 70 -84 94c-107 -62 -190 -170 -214 -300c-4 -20 -7 -39 -7 -57h350c-31 -105 -112 -199 -214 -259c44 -26 99 -40 159 -40c196 0 382 151 420 356c4 24 6 47 6 70zM836 286h-309
c4 -92 45 -168 111 -216c94 52 167 133 198 216zM724 685c-47 27 -102 41 -164 41c-196 0 -382 -151 -420 -356c-5 -24 -7 -47 -7 -70c0 -168 122 -286 295 -286c63 0 124 15 179 41c-67 52 -108 133 -110 231h-102l5 27h97c0 18 3 38 7 57c25 135 110 248 220 315z" />
    <glyph glyph-name="H_T" unicode="&#xe10c;" horiz-adv-x="898" 
d="M1029 740l-5 -27h-201l-132 -713h-30l137 740h231zM688 740l-137 -740h-30l65 349h-414l-65 -349h-30l137 740h30l-67 -364h414l62 337h-209l5 27h239z" />
    <glyph glyph-name="I_C" unicode="&#xe10e;" horiz-adv-x="851" 
d="M921 575h-35c-21 39 -98 151 -261 151c-197 0 -382 -152 -420 -356c-5 -24 -7 -47 -7 -70c0 -168 122 -286 295 -286s289 118 316 147h34c-66 -85 -200 -174 -355 -174c-190 0 -320 127 -320 304c0 13 1 27 2 40h-2l-61 -331h-30l137 740h30l-61 -331h2
c55 198 241 344 445 344c157 0 252 -94 291 -178z" />
    <glyph glyph-name="K_A" unicode="&#xe124;" horiz-adv-x="891" 
d="M951 740l-137 -740h-30l47 251h-341l-55 -61l114 -190h-38l-98 165l-148 -165h-37l170 190l-114 190l321 360h36l-319 -359l99 -166l470 525h60zM244 740l-137 -740h-30l137 740h30zM919 728h-2l-402 -450h321z" />
    <glyph glyph-name="L_A" unicode="&#xe130;" horiz-adv-x="742" 
d="M802 740l-137 -740h-30l47 251h-341l-201 -224h311l-5 -27h-369l137 740h30l-129 -697h3l624 697h60zM770 728h-2l-402 -450h321z" />
    <glyph glyph-name="L_A.alt01" unicode="&#xe141;" horiz-adv-x="811" 
d="M871 740l-137 -740h-30l47 251h-341l-201 -224h269l-5 -27h-396l137 740h30l-132 -713h60l639 713h60zM839 728h-2l-402 -450h321z" />
    <glyph glyph-name="L_L" unicode="&#xe152;" horiz-adv-x="551" 
d="M536 149l-5 -27h-290l114 618h30l-109 -591h260zM513 27l-5 -27h-431l137 740h30l-132 -713h401z" />
    <glyph glyph-name="N_T" unicode="&#xe153;" horiz-adv-x="985" 
d="M1116 740l-5 -27h-201l-132 -713h-30l137 740h231zM784 740l-137 -740h-38l-368 710h-2l-132 -710h-30l137 740h45l363 -700h2l125 673h-202l5 27h232z" />
    <glyph glyph-name="O_C" unicode="&#xe15b;" horiz-adv-x="1134" 
d="M1204 575h-35c-21 39 -98 151 -261 151h-1c-51 0 -102 -10 -149 -29c79 -54 127 -143 127 -252c0 -24 -3 -49 -7 -75c-27 -143 -121 -261 -241 -327c41 -19 87 -29 139 -29c173 0 289 118 316 147h34c-66 -85 -200 -174 -355 -174c-63 0 -120 14 -167 40
c-57 -26 -119 -40 -181 -40c-188 0 -321 126 -321 308c0 24 3 49 8 75c41 222 243 383 455 383c62 0 119 -14 166 -39c57 25 119 39 182 39c157 0 252 -94 291 -178zM854 440c0 107 -49 193 -129 242c-118 -59 -212 -173 -237 -312c-5 -24 -7 -47 -7 -70
c0 -107 49 -193 129 -242c118 59 212 173 238 312c4 24 6 47 6 70zM698 697c-41 19 -87 29 -138 29c-196 0 -382 -151 -420 -356c-5 -24 -7 -47 -7 -70c0 -168 122 -286 295 -286c51 0 101 10 149 29c-79 54 -127 143 -127 252c0 24 3 49 8 75c26 143 120 261 240 327z" />
    <glyph glyph-name="O_O" unicode="&#xe170;" horiz-adv-x="1199" 
d="M1233 445c0 -24 -3 -49 -7 -75c-42 -222 -243 -383 -455 -383c-63 0 -120 14 -167 40c-57 -26 -118 -40 -181 -40c-188 0 -321 126 -321 308c0 24 3 49 8 75c41 222 243 383 455 383c63 0 119 -14 166 -40c57 26 119 40 182 40c187 0 320 -126 320 -308zM1202 440
c0 168 -121 286 -294 286c-51 0 -102 -10 -150 -29c79 -54 127 -143 127 -253c0 -23 -3 -48 -7 -74c-27 -143 -121 -261 -241 -327c40 -19 88 -29 139 -29c196 0 382 151 420 356c4 24 6 47 6 70zM854 440c0 107 -48 193 -129 242c-119 -59 -212 -173 -237 -312
c-5 -24 -7 -48 -7 -70c0 -107 49 -193 129 -242c119 59 212 173 238 312c4 24 6 48 6 70zM698 697c-40 19 -87 29 -138 29c-196 0 -382 -151 -420 -356c-5 -24 -7 -47 -7 -70c0 -168 122 -286 295 -286c51 0 101 10 149 29c-79 54 -126 143 -126 253c0 23 2 48 7 74
c26 143 120 261 240 327z" />
    <glyph glyph-name="P_P" unicode="&#xe172;" horiz-adv-x="652" 
d="M716 433c0 -13 -1 -25 -4 -37c-17 -96 -92 -209 -281 -209h-138l-35 -187h-30l58 312h-131l-58 -312h-30l137 740h161c116 0 211 -30 226 -150c38 -9 65 -24 86 -46c28 -29 39 -72 39 -111zM562 560v7c-21 3 -48 5 -81 5h-117l-43 -233c117 3 215 64 238 190
c2 11 3 21 3 31zM558 596c-19 96 -102 117 -197 117h-132l-69 -374h131l48 261h147c27 0 51 -1 72 -4zM685 428c0 62 -33 114 -92 132c-1 -10 -2 -20 -4 -30c-26 -144 -140 -215 -273 -218l-18 -97h141c154 0 226 87 243 180c2 11 3 22 3 33z" />
    <glyph glyph-name="P_R" unicode="&#xe173;" horiz-adv-x="652" 
d="M716 433c0 -13 -1 -25 -4 -37c-18 -99 -99 -208 -240 -208h-9l99 -188h-38l-112 215h53c60 0 102 11 142 46c44 38 67 89 75 134c2 9 3 19 3 31c0 30 -7 66 -27 89c-17 21 -34 36 -65 45c-1 -10 -2 -20 -4 -30c-12 -67 -56 -137 -106 -169c-52 -33 -93 -47 -167 -49
l-58 -312h-30l58 312h-131l-58 -312h-30l137 740h161c88 0 132 -11 174 -47c26 -22 46 -60 52 -103c38 -9 65 -24 86 -46c28 -29 39 -72 39 -111zM562 560v7c-21 3 -48 5 -81 5h-117l-43 -233c71 2 106 17 150 46c41 26 78 88 88 144c2 11 3 21 3 31zM558 596
c-6 31 -21 57 -39 73c-36 31 -74 44 -158 44h-132l-69 -374h131l48 261h147c27 0 51 -1 72 -4z" />
    <glyph glyph-name="R_A" unicode="&#xe174;" horiz-adv-x="1081" 
d="M1141 740l-137 -740h-30l41 222h-361l-170 -189l18 -33h-84l29 32l-135 259h60c71 0 134 22 180 58s83 97 93 152c3 17 5 34 5 50c0 45 -13 84 -41 110c-40 36 -78 52 -184 52h-186l-132 -713h-30l137 740h198c115 0 168 -10 218 -55c30 -27 50 -71 50 -129
c0 -17 -1 -35 -5 -54c-25 -135 -151 -238 -300 -238h-12l108 -205l610 681h60zM1109 728h-2l-428 -479h341z" />
    <glyph glyph-name="S_S" unicode="&#xe185;" horiz-adv-x="812" 
d="M863 594c0 -5 0 -9 -1 -14h-30c0 59 -17 145 -136 145c-94 0 -167 -64 -185 -161c-3 -13 -4 -26 -4 -37c0 -87 72 -112 158 -135c81 -22 143 -67 143 -156c0 -13 -1 -27 -4 -42c-20 -106 -118 -207 -245 -207c-52 0 -109 20 -144 65c-44 -41 -99 -65 -158 -65
c-83 0 -179 52 -179 172c0 9 1 18 2 28h30c-1 -5 -1 -11 -1 -16c0 -128 97 -157 152 -157c93 0 180 70 199 176c3 17 5 32 5 45c0 74 -45 112 -141 138c-56 15 -153 41 -153 149c0 12 1 24 4 37c21 123 119 193 226 193c56 0 109 -21 139 -69c41 45 100 69 163 69
c84 0 160 -47 160 -158zM777 231c0 83 -59 117 -151 142c-56 15 -150 41 -150 148c0 12 1 24 4 38c6 37 19 69 37 96c-16 38 -51 70 -123 70c-94 0 -170 -64 -188 -161c-3 -13 -4 -25 -4 -36c0 -87 74 -112 161 -136s133 -73 133 -152c0 -14 -2 -30 -5 -46
c-8 -45 -28 -86 -54 -118c32 -49 89 -62 126 -62c107 0 193 83 210 176c3 15 4 28 4 41z" />
    <glyph glyph-name="S_T" unicode="&#xe186;" horiz-adv-x="841" 
d="M972 740l-5 -27h-201l-132 -713h-30l132 713h-201l5 27h432zM561 594c0 -5 0 -9 -1 -14h-30c0 59 -17 145 -136 145c-94 0 -180 -64 -198 -161c-3 -12 -4 -23 -4 -33c0 -90 83 -115 171 -139c49 -14 131 -49 131 -154c0 -13 -1 -28 -4 -44c-23 -122 -133 -207 -243 -207
c-83 0 -179 52 -179 172c0 9 1 18 2 28h30c-1 -5 -1 -11 -1 -16c0 -128 97 -157 152 -157c93 0 189 70 208 176c3 15 4 29 4 42c0 97 -77 124 -139 141c-56 15 -163 42 -163 152c0 10 1 22 4 34c21 123 129 193 236 193c84 0 160 -47 160 -158z" />
    <glyph glyph-name="S_T.alt01" unicode="&#xe18e;" horiz-adv-x="789" 
d="M920 740l-5 -27h-201l-132 -713h-30l132 713h-191l5 27h422zM501 232c0 -12 -2 -25 -4 -38c-21 -115 -126 -207 -240 -207c-98 0 -179 62 -179 172c0 9 1 18 2 28h30c-1 -5 -1 -11 -1 -16c0 -128 97 -157 152 -157c100 0 188 82 205 176c3 13 4 25 4 36
c0 60 -34 102 -127 122s-164 64 -164 158c0 12 2 26 4 41c25 131 139 193 242 193h47l-5 -27h-49c-94 0 -186 -64 -204 -161c-2 -15 -4 -28 -4 -41c0 -77 52 -114 152 -136c96 -20 139 -72 139 -143z" />
    <glyph glyph-name="T_H" unicode="&#xe196;" horiz-adv-x="898" 
d="M958 740l-137 -740h-30l65 349h-414l-65 -349h-30l137 740h239l-5 -27h-209l-62 -337h414l67 364h30zM374 740l-137 -740h-30l132 713h-201l5 27h231z" />
    <glyph glyph-name="T_T" unicode="&#xe198;" horiz-adv-x="866" 
d="M997 740l-5 -27h-201l-132 -713h-30l132 713h-393l-132 -713h-30l132 713h-201l5 27h855z" />
    <glyph glyph-name="T_T.alt01" unicode="&#xe199;" horiz-adv-x="583" 
d="M714 740l-5 -27h-201l-132 -713h-30l137 740h231zM373 740l-137 -740h-30l132 713h-201l5 27h231z" />
    <glyph glyph-name="T_U" unicode="&#xe19a;" horiz-adv-x="881" 
d="M942 740l-89 -480c-12 -67 -26 -138 -98 -203c-58 -52 -134 -70 -186 -70c-66 0 -128 24 -164 74c-23 32 -31 68 -31 107c0 29 4 59 10 92l89 480h229l-5 -27h-199l-84 -453c-7 -37 -10 -65 -10 -89c0 -34 7 -60 25 -89c26 -41 84 -68 143 -68c63 0 129 26 170 68
c50 51 66 96 81 178l89 480h30zM374 740l-137 -740h-30l132 713h-201l5 27h231z" />
    <glyph glyph-name="T_h" unicode="&#xe1a5;" horiz-adv-x="999" 
d="M546 428c47 76 146 115 235 115c60 0 122 -18 156 -53c32 -33 46 -75 46 -134c0 -25 -3 -51 -8 -76l-52 -280h-28l52 280c4 24 7 48 7 73c0 50 -13 88 -37 114c-33 36 -85 50 -141 50c-134 0 -230 -82 -254 -212l-57 -305h-28l132 713h-201l-132 -713h-30l132 713h-201
l5 27h460l-58 -312h2z" />
    <glyph glyph-name="U_T" unicode="&#xe1a9;" horiz-adv-x="881" 
d="M1012 740l-5 -27h-201l-132 -713h-30l137 740h231zM682 740l-89 -480c-14 -77 -33 -143 -95 -199c-54 -50 -124 -74 -190 -74c-52 0 -122 18 -160 70c-27 36 -35 73 -35 111c0 31 6 62 11 92l89 480h30l-89 -480c-6 -35 -10 -63 -10 -87c0 -34 7 -61 25 -91
c26 -42 83 -68 146 -68c59 0 127 27 167 68c50 50 65 90 81 178l84 453h-199l5 27h229z" />
    <glyph glyph-name="c_t" unicode="&#xe1b8;" horiz-adv-x="756" 
d="M846 530l-5 -26h-136l-93 -504h-28l93 504h-117l5 26h117l39 210h28l-39 -210h136zM539 530l-5 -26h-120c-139 0 -269 -92 -296 -239c-3 -17 -5 -34 -5 -50c0 -122 90 -202 209 -202c76 0 120 26 149 41l-6 -32c-41 -20 -90 -35 -147 -35c-136 0 -233 87 -233 221
c0 18 1 37 5 57c29 157 167 265 328 265h121z" />
    <glyph glyph-name="o_o" unicode="&#xe1c1;" horiz-adv-x="932" 
d="M944 320c0 -18 -1 -36 -5 -55c-29 -159 -171 -278 -330 -278c-54 0 -102 14 -138 38c-47 -24 -99 -38 -153 -38c-140 0 -233 92 -233 223c0 18 2 36 5 55c29 158 172 278 331 278c54 0 101 -14 138 -38c46 24 99 38 153 38c140 0 232 -93 232 -223zM916 315
c0 118 -83 202 -209 202c-44 0 -87 -10 -127 -29c47 -40 73 -99 73 -169c0 -17 -1 -35 -5 -54c-17 -94 -74 -173 -149 -223c31 -19 70 -29 114 -29c143 0 271 108 298 252c3 17 5 34 5 50zM625 315c0 67 -27 122 -71 158c-74 -45 -128 -119 -145 -208c-3 -17 -5 -34 -5 -50
c0 -67 27 -122 72 -158c73 45 128 119 144 208c3 17 5 34 5 50zM531 488c-32 19 -71 29 -115 29c-143 0 -271 -108 -298 -252c-3 -17 -5 -34 -5 -50c0 -118 84 -202 209 -202c44 0 87 10 126 29c-46 40 -72 98 -72 168c0 18 2 36 5 55c17 93 74 173 150 223z" />
    <glyph glyph-name="s_s" unicode="&#xe1c3;" horiz-adv-x="682" 
d="M657 432c1 58 -44 85 -93 85c-60 0 -125 -36 -138 -111c-1 -7 -1 -13 -1 -19c0 -50 33 -71 97 -90c59 -17 129 -37 129 -122c0 -11 -1 -22 -3 -35c-16 -87 -94 -153 -185 -153c-55 0 -97 24 -119 59c-35 -36 -83 -59 -135 -59c-76 0 -139 47 -139 122c0 12 2 25 5 38h28
c-2 -11 -3 -21 -3 -30c0 -67 46 -104 113 -104c69 0 137 50 151 129c2 9 3 18 3 27c0 51 -34 81 -107 100c-68 18 -121 40 -121 107c0 9 1 19 3 30c17 87 90 137 170 137c63 0 101 -31 112 -71c32 46 88 71 144 71c67 0 117 -36 117 -106c0 -10 -1 -21 -3 -32h-28
c2 10 3 19 3 27zM623 168c0 54 -37 82 -107 101c-63 17 -121 38 -121 107c0 9 1 19 3 29l1 4c1 8 2 16 2 24c0 57 -45 84 -94 84c-60 0 -123 -36 -137 -111c-1 -7 -2 -14 -2 -20c0 -47 35 -72 98 -89c83 -22 130 -54 130 -121c0 -11 -2 -23 -4 -35c-5 -27 -13 -47 -28 -69
c13 -29 45 -59 105 -59c79 0 138 58 151 127c2 10 3 19 3 28z" />
    <glyph glyph-name="s_t" unicode="&#xe1c4;" horiz-adv-x="617" 
d="M142 406c18 89 87 137 170 137c38 0 70 -11 91 -33l3 20h137l39 210h28l-39 -210h136l-5 -26h-136l-93 -504h-28l93 504h-131c14 -17 22 -39 22 -67c0 -10 -1 -21 -3 -32h-28c2 10 3 19 3 27c0 59 -42 85 -94 85c-58 0 -123 -35 -137 -111c-1 -7 -1 -13 -1 -19
c0 -50 33 -71 97 -90c61 -18 129 -35 129 -124c0 -8 -1 -17 -2 -27c-11 -87 -93 -159 -184 -159c-76 0 -139 47 -139 122c0 12 2 25 5 38h28c-2 -11 -3 -21 -3 -30c0 -67 46 -104 113 -104c79 0 140 60 151 129c2 9 2 17 2 25c0 56 -35 83 -106 102c-69 18 -120 40 -120 109
c0 8 1 18 2 28z" />
    <glyph glyph-name="s_t.alt01" unicode="&#xe1cc;" horiz-adv-x="609" 
d="M699 530l-5 -26h-136l-93 -504h-28l93 504h-117l5 26h117l39 210h28l-39 -210h136zM395 173c0 -9 0 -19 -2 -30c-18 -92 -95 -156 -184 -156c-76 0 -139 47 -139 122c0 12 2 25 5 38h28c-2 -11 -3 -21 -3 -30c0 -67 46 -104 113 -104c77 0 138 57 151 126c1 9 2 18 2 26
c0 49 -32 78 -107 98c-69 18 -121 44 -121 109c0 9 1 18 3 28c15 82 83 130 168 130h83l-5 -26h-83c-71 0 -123 -40 -135 -104c-1 -7 -2 -14 -2 -20c0 -47 35 -71 98 -89c71 -21 130 -45 130 -118z" />
    <glyph glyph-name="t_t" unicode="&#xe1d4;" horiz-adv-x="489" 
d="M579 530l-5 -26h-136l-93 -504h-28l93 504h-165l-93 -504h-28l93 504h-117l5 26h117l39 210h28l-39 -210h165l39 210h28l-39 -210h136z" />
    <glyph glyph-name="t_t.alt01" unicode="&#xe1d6;" horiz-adv-x="434" 
d="M524 530l-5 -26h-136l-93 -504h-28l137 740h28l-39 -210h136zM289 740l-137 -740h-28l93 504h-117l5 26h117l39 210h28z" />
    <glyph glyph-name="zero.numerator" unicode="&#xe1da;" horiz-adv-x="410" 
d="M429 430c-21 -115 -130 -142 -170 -142c-47 0 -123 27 -123 112c0 9 1 19 3 30l32 170c25 130 137 148 170 148c72 0 124 -45 124 -114c0 -9 -1 -18 -3 -28zM402 430l33 176c1 8 2 15 2 23c0 48 -28 94 -99 94c-60 0 -123 -42 -138 -122l-32 -171c-1 -8 -2 -17 -2 -24
c0 -60 45 -93 98 -93c42 0 121 27 138 117z" />
    <glyph glyph-name="one.numerator" unicode="&#xe1db;" horiz-adv-x="247" 
d="M196 296h-28l78 419h-95l5 25h123z" />
    <glyph glyph-name="two.numerator" unicode="&#xe1dc;" horiz-adv-x="351" 
d="M361 296h-271l5 23l220 193c60 52 78 85 78 131c0 41 -21 80 -85 80c-60 0 -108 -42 -125 -114l-1 -9h-28l1 8c22 101 98 140 159 140c66 0 107 -37 107 -101c0 -60 -31 -101 -90 -153l-197 -173h232z" />
    <glyph glyph-name="three.numerator" unicode="&#xe1dd;" horiz-adv-x="351" 
d="M392 450c0 -89 -79 -162 -167 -162c-60 0 -115 38 -115 113c0 9 0 19 2 29h28c-1 -9 -2 -17 -2 -25c0 -68 53 -92 92 -92c74 0 133 59 133 132c0 43 -26 92 -100 92h-27l5 25h27c85 0 103 66 105 80c1 6 2 12 2 17c0 35 -22 64 -65 64c-48 0 -86 -34 -97 -81h-28
c19 77 84 106 130 106c48 0 89 -34 89 -86c0 -70 -58 -102 -76 -111c39 -17 64 -55 64 -101z" />
    <glyph glyph-name="four.numerator" unicode="&#xe1de;" horiz-adv-x="374" 
d="M405 381h-42l-16 -85h-28l16 85h-228l4 21l286 338h33l-62 -334h42zM340 406l55 297h-1l-248 -297h194z" />
    <glyph glyph-name="five.numerator" unicode="&#xe1df;" horiz-adv-x="369" 
d="M387 466c0 60 -43 104 -100 104c-18 0 -61 -4 -107 -52l-21 6l80 216h205l-5 -25h-182c-21 -54 -37 -99 -57 -153c20 15 52 33 93 33c76 0 123 -56 123 -124c0 -100 -93 -183 -182 -183c-55 0 -124 40 -124 128c0 5 0 10 1 16h28v-12c0 -69 49 -107 101 -107
c74 0 147 72 147 153z" />
    <glyph glyph-name="six.numerator" unicode="&#xe1e0;" horiz-adv-x="386" 
d="M430 473c0 -94 -81 -185 -179 -185c-89 0 -123 63 -123 120c0 62 33 109 60 139l169 193h31l-148 -166v-1c20 13 48 20 69 20c70 0 121 -48 121 -120zM402 469c0 67 -49 99 -97 99c-69 0 -149 -57 -149 -157c0 -54 33 -98 99 -98c82 0 147 77 147 156z" />
    <glyph glyph-name="seven.numerator" unicode="&#xe1e1;" horiz-adv-x="301" 
d="M397 718l-276 -422h-29l274 419h-210l5 25h240z" />
    <glyph glyph-name="eight.numerator" unicode="&#xe1e2;" horiz-adv-x="356" 
d="M116 400c0 66 48 126 109 147c-23 17 -40 47 -40 78c0 64 67 123 131 123c54 0 92 -37 92 -88c0 -46 -34 -89 -75 -113c38 -16 63 -52 63 -98c0 -86 -82 -161 -165 -161c-68 0 -115 48 -115 112zM144 403c0 -51 38 -90 92 -90c67 0 132 61 132 130c0 52 -38 91 -92 91
c-68 0 -131 -62 -132 -131zM213 625c0 -38 26 -67 68 -67c53 0 99 47 99 99c0 38 -27 66 -68 66c-52 0 -99 -45 -99 -98z" />
    <glyph glyph-name="nine.numerator" unicode="&#xe1e3;" horiz-adv-x="386" 
d="M147 564c0 93 82 184 179 184c90 0 124 -62 124 -120s-36 -110 -61 -139l-169 -193h-31l148 165v1c-19 -13 -48 -19 -69 -19c-69 0 -121 48 -121 121zM175 567c0 -66 50 -99 97 -99c80 0 150 70 150 158c0 53 -33 97 -99 97c-82 0 -148 -77 -148 -156z" />
    <glyph glyph-name="zero.denominator" unicode="&#xe1e4;" horiz-adv-x="410" 
d="M379 134c-21 -115 -130 -142 -170 -142c-47 0 -123 27 -123 112c0 9 1 19 3 30l32 170c25 130 137 148 170 148c72 0 124 -45 124 -114c0 -9 -1 -18 -3 -28zM352 134l33 176c1 8 2 15 2 23c0 48 -28 94 -99 94c-60 0 -123 -42 -138 -122l-32 -171c-1 -8 -2 -17 -2 -24
c0 -60 45 -93 98 -93c42 0 121 27 138 117z" />
    <glyph glyph-name="one.denominator" unicode="&#xe1e5;" horiz-adv-x="247" 
d="M146 0h-28l78 419h-95l5 25h123z" />
    <glyph glyph-name="two.denominator" unicode="&#xe1e6;" horiz-adv-x="351" 
d="M311 0h-271l5 23l220 193c60 52 78 85 78 131c0 41 -21 80 -85 80c-60 0 -108 -42 -125 -114l-1 -9h-28l1 8c22 101 98 140 159 140c66 0 107 -37 107 -101c0 -60 -31 -101 -90 -153l-197 -173h232z" />
    <glyph glyph-name="three.denominator" unicode="&#xe1e7;" horiz-adv-x="351" 
d="M342 154c0 -89 -79 -162 -167 -162c-60 0 -115 38 -115 113c0 9 0 19 2 29h28c-1 -9 -2 -17 -2 -25c0 -68 53 -92 92 -92c74 0 133 59 133 132c0 43 -26 92 -100 92h-27l5 25h27c85 0 103 66 105 80c1 6 2 12 2 17c0 35 -22 64 -65 64c-48 0 -86 -34 -97 -81h-28
c19 77 84 106 130 106c48 0 89 -34 89 -86c0 -70 -58 -102 -76 -111c39 -17 64 -55 64 -101z" />
    <glyph glyph-name="four.denominator" unicode="&#xe1e8;" horiz-adv-x="374" 
d="M355 85h-42l-16 -85h-28l16 85h-228l4 21l286 338h33l-62 -334h42zM290 110l55 297h-1l-248 -297h194z" />
    <glyph glyph-name="five.denominator" unicode="&#xe1e9;" horiz-adv-x="369" 
d="M337 170c0 60 -43 104 -100 104c-18 0 -61 -4 -107 -52l-21 6l80 216h205l-5 -25h-182c-21 -54 -37 -99 -57 -153c20 15 52 33 93 33c76 0 123 -56 123 -124c0 -100 -93 -183 -182 -183c-55 0 -124 40 -124 128c0 5 0 10 1 16h28v-12c0 -69 49 -107 101 -107
c74 0 147 72 147 153z" />
    <glyph glyph-name="six.denominator" unicode="&#xe1ea;" horiz-adv-x="386" 
d="M380 177c0 -94 -81 -185 -179 -185c-89 0 -123 63 -123 120c0 62 33 109 60 139l169 193h31l-148 -166v-1c20 13 48 20 69 20c70 0 121 -48 121 -120zM352 173c0 67 -49 99 -97 99c-69 0 -149 -57 -149 -157c0 -54 33 -98 99 -98c82 0 147 77 147 156z" />
    <glyph glyph-name="seven.denominator" unicode="&#xe1eb;" horiz-adv-x="301" 
d="M347 422l-276 -422h-29l274 419h-210l5 25h240z" />
    <glyph glyph-name="eight.denominator" unicode="&#xe1ec;" horiz-adv-x="356" 
d="M66 104c0 66 48 126 109 147c-23 17 -40 47 -40 78c0 64 67 123 131 123c54 0 92 -37 92 -88c0 -46 -34 -89 -75 -113c38 -16 63 -52 63 -98c0 -86 -82 -161 -165 -161c-68 0 -115 48 -115 112zM94 107c0 -51 38 -90 92 -90c67 0 132 61 132 130c0 52 -38 91 -92 91
c-68 0 -131 -62 -132 -131zM163 329c0 -38 26 -67 68 -67c53 0 99 47 99 99c0 38 -27 66 -68 66c-52 0 -99 -45 -99 -98z" />
    <glyph glyph-name="nine.denominator" unicode="&#xe1ed;" horiz-adv-x="386" 
d="M97 268c0 93 82 184 179 184c90 0 124 -62 124 -120s-36 -110 -61 -139l-169 -193h-31l148 165v1c-19 -13 -48 -19 -69 -19c-69 0 -121 48 -121 121zM125 271c0 -66 50 -99 97 -99c80 0 150 70 150 158c0 53 -33 97 -99 97c-82 0 -148 -77 -148 -156z" />
    <glyph glyph-name="zero.superior" unicode="&#xe1ee;" horiz-adv-x="410" 
d="M449 556c-21 -115 -130 -142 -170 -142c-47 0 -123 27 -123 112c0 9 1 19 3 30l32 170c25 130 137 148 170 148c72 0 124 -45 124 -114c0 -9 -1 -18 -3 -28zM422 556l33 176c1 8 2 15 2 23c0 48 -28 94 -99 94c-60 0 -123 -42 -138 -122l-32 -171c-1 -8 -2 -17 -2 -24
c0 -60 45 -93 98 -93c42 0 121 27 138 117z" />
    <glyph glyph-name="four.superior" unicode="&#xe1ef;" horiz-adv-x="374" 
d="M425 507h-42l-16 -85h-28l16 85h-228l4 21l286 338h33l-62 -334h42zM360 532l55 297h-1l-248 -297h194z" />
    <glyph glyph-name="five.superior" unicode="&#xe1f0;" horiz-adv-x="369" 
d="M407 592c0 60 -43 104 -100 104c-18 0 -61 -4 -107 -52l-21 6l80 216h205l-5 -25h-182c-21 -54 -37 -99 -57 -153c20 15 52 33 93 33c76 0 123 -56 123 -124c0 -100 -93 -183 -182 -183c-55 0 -124 40 -124 128c0 5 0 10 1 16h28v-12c0 -69 49 -107 101 -107
c74 0 147 72 147 153z" />
    <glyph glyph-name="six.superior" unicode="&#xe1f1;" horiz-adv-x="386" 
d="M450 599c0 -94 -81 -185 -179 -185c-89 0 -123 63 -123 120c0 62 33 109 60 139l169 193h31l-148 -166v-1c20 13 48 20 69 20c70 0 121 -48 121 -120zM422 595c0 67 -49 99 -97 99c-69 0 -149 -57 -149 -157c0 -54 33 -98 99 -98c82 0 147 77 147 156z" />
    <glyph glyph-name="seven.superior" unicode="&#xe1f2;" horiz-adv-x="301" 
d="M417 844l-276 -422h-29l274 419h-210l5 25h240z" />
    <glyph glyph-name="eight.superior" unicode="&#xe1f3;" horiz-adv-x="356" 
d="M136 526c0 66 48 126 109 147c-23 17 -40 47 -40 78c0 64 67 123 131 123c54 0 92 -37 92 -88c0 -46 -34 -89 -75 -113c38 -16 63 -52 63 -98c0 -86 -82 -161 -165 -161c-68 0 -115 48 -115 112zM164 529c0 -51 38 -90 92 -90c67 0 132 61 132 130c0 52 -38 91 -92 91
c-68 0 -131 -62 -132 -131zM233 751c0 -38 26 -67 68 -67c53 0 99 47 99 99c0 38 -27 66 -68 66c-52 0 -99 -45 -99 -98z" />
    <glyph glyph-name="nine.superior" unicode="&#xe1f4;" horiz-adv-x="386" 
d="M167 690c0 93 82 184 179 184c90 0 124 -62 124 -120s-36 -110 -61 -139l-169 -193h-31l148 165v1c-19 -13 -48 -19 -69 -19c-69 0 -121 48 -121 121zM195 693c0 -66 50 -99 97 -99c80 0 150 70 150 158c0 53 -33 97 -99 97c-82 0 -148 -77 -148 -156z" />
    <glyph glyph-name="zero.inferior" unicode="&#xe1f5;" horiz-adv-x="410" 
d="M364 8c-21 -115 -130 -142 -170 -142c-47 0 -123 27 -123 112c0 9 1 19 3 30l32 170c25 130 137 148 170 148c72 0 124 -45 124 -114c0 -9 -1 -18 -3 -28zM337 8l33 176c1 8 2 15 2 23c0 48 -28 94 -99 94c-60 0 -123 -42 -138 -122l-32 -171c-1 -8 -2 -17 -2 -24
c0 -60 45 -93 98 -93c42 0 121 27 138 117z" />
    <glyph glyph-name="one.inferior" unicode="&#xe1f6;" horiz-adv-x="247" 
d="M137 -126h-28l78 419h-95l5 25h123z" />
    <glyph glyph-name="two.inferior" unicode="&#xe1f7;" horiz-adv-x="351" 
d="M296 -126h-271l5 23l220 193c60 52 78 85 78 131c0 41 -21 80 -85 80c-60 0 -108 -42 -125 -114l-1 -9h-28l1 8c22 101 98 140 159 140c66 0 107 -37 107 -101c0 -60 -31 -101 -90 -153l-197 -173h232z" />
    <glyph glyph-name="three.inferior" unicode="&#xe1f8;" horiz-adv-x="351" 
d="M327 28c0 -89 -79 -162 -167 -162c-60 0 -115 38 -115 113c0 9 0 19 2 29h28c-1 -9 -2 -17 -2 -25c0 -68 53 -92 92 -92c74 0 133 59 133 132c0 43 -26 92 -100 92h-27l5 25h27c85 0 103 66 105 80c1 6 2 12 2 17c0 35 -22 64 -65 64c-48 0 -86 -34 -97 -81h-28
c19 77 84 106 130 106c48 0 89 -34 89 -86c0 -70 -58 -102 -76 -111c39 -17 64 -55 64 -101z" />
    <glyph glyph-name="four.inferior" unicode="&#xe1f9;" horiz-adv-x="374" 
d="M340 -41h-42l-16 -85h-28l16 85h-228l4 21l286 338h33l-62 -334h42zM275 -16l55 297h-1l-248 -297h194z" />
    <glyph glyph-name="five.inferior" unicode="&#xe1fa;" horiz-adv-x="369" 
d="M322 44c0 60 -43 104 -100 104c-18 0 -61 -4 -107 -52l-21 6l80 216h205l-5 -25h-182c-21 -54 -37 -99 -57 -153c20 15 52 33 93 33c76 0 123 -56 123 -124c0 -100 -93 -183 -182 -183c-55 0 -124 40 -124 128c0 5 0 10 1 16h28v-12c0 -69 49 -107 101 -107
c74 0 147 72 147 153z" />
    <glyph glyph-name="six.inferior" unicode="&#xe1fb;" horiz-adv-x="386" 
d="M365 51c0 -94 -81 -185 -179 -185c-89 0 -123 63 -123 120c0 62 33 109 60 139l169 193h31l-148 -166v-1c20 13 48 20 69 20c70 0 121 -48 121 -120zM337 47c0 67 -49 99 -97 99c-69 0 -149 -57 -149 -157c0 -54 33 -98 99 -98c82 0 147 77 147 156z" />
    <glyph glyph-name="seven.inferior" unicode="&#xe1fc;" horiz-adv-x="301" 
d="M327 296l-276 -422h-29l274 419h-210l5 25h240z" />
    <glyph glyph-name="eight.inferior" unicode="&#xe1fd;" horiz-adv-x="356" 
d="M51 -22c0 66 48 126 109 147c-23 17 -40 47 -40 78c0 64 67 123 131 123c54 0 92 -37 92 -88c0 -46 -34 -89 -75 -113c38 -16 63 -52 63 -98c0 -86 -82 -161 -165 -161c-68 0 -115 48 -115 112zM79 -19c0 -51 38 -90 92 -90c67 0 132 61 132 130c0 52 -38 91 -92 91
c-68 0 -131 -62 -132 -131zM148 203c0 -38 26 -67 68 -67c53 0 99 47 99 99c0 38 -27 66 -68 66c-52 0 -99 -45 -99 -98z" />
    <glyph glyph-name="nine.inferior" unicode="&#xe1fe;" horiz-adv-x="386" 
d="M82 142c0 93 82 184 179 184c90 0 124 -62 124 -120s-36 -110 -61 -139l-169 -193h-31l148 165v1c-19 -13 -48 -19 -69 -19c-69 0 -121 48 -121 121zM110 145c0 -66 50 -99 97 -99c80 0 150 70 150 158c0 53 -33 97 -99 97c-82 0 -148 -77 -148 -156z" />
    <glyph glyph-name="zero.fitted" unicode="&#xe1ff;" 
d="M615 565c0 -16 -1 -32 -4 -47c-18 -99 -36 -197 -55 -296c-20 -107 -89 -182 -190 -218c-28 -9 -60 -17 -89 -17c-110 0 -202 68 -202 184c0 17 2 34 5 51c18 96 35 191 53 287c21 109 83 190 188 227c28 10 63 17 93 17c113 0 201 -70 201 -188zM585 559
c0 107 -72 167 -176 167c-127 0 -222 -93 -245 -214c-18 -97 -36 -193 -54 -290c-3 -14 -4 -29 -4 -44c0 -102 75 -164 174 -164c29 0 58 7 85 17c87 32 144 100 161 191c19 99 37 197 55 296c3 14 4 27 4 41z" />
    <glyph glyph-name="one.fitted" unicode="&#xe200;" horiz-adv-x="348" 
d="M347 740l-137 -740h-30l132 713h-164l5 27h194z" />
    <glyph glyph-name="two.fitted" unicode="&#xe201;" horiz-adv-x="548" 
d="M589 579c0 -112 -72 -181 -151 -249l-354 -303h407l-5 -27h-447l5 27l378 325c70 60 137 125 137 223c0 93 -66 151 -156 151c-123 0 -204 -100 -227 -212h-30c27 130 127 239 266 239c103 0 177 -69 177 -174z" />
    <glyph glyph-name="three.fitted" unicode="&#xe202;" horiz-adv-x="542" 
d="M554 618c0 -83 -56 -166 -136 -192v-2c75 -28 118 -89 118 -169c0 -13 -2 -26 -4 -38c-24 -134 -133 -230 -270 -230c-107 0 -187 74 -187 183c0 15 1 30 4 45h30c-2 -13 -3 -26 -3 -39c0 -97 68 -162 164 -162c124 0 234 106 234 232c0 105 -75 164 -177 164h-40l5 27
h39c74 0 138 29 173 97c8 15 14 32 17 48c2 10 3 21 3 31c0 70 -48 113 -116 113c-85 0 -153 -61 -174 -141h-30c24 94 106 168 206 168c81 0 144 -50 144 -135z" />
    <glyph glyph-name="four.fitted" unicode="&#xe203;" 
d="M571 740l-105 -569h75l-5 -27h-75l-27 -144h-30l27 144h-387l5 26l481 570h41zM534 704h-2l-448 -533h352z" />
    <glyph glyph-name="five.fitted" unicode="&#xe204;" 
d="M610 740l-5 -27h-308l-106 -279c54 36 104 58 170 58c119 0 203 -86 203 -205c0 -154 -144 -300 -299 -300c-119 0 -205 89 -205 207c0 8 1 15 1 23h30v-18c0 -105 73 -185 180 -185c136 0 262 132 262 267c0 103 -74 184 -179 184c-72 0 -135 -36 -185 -86l-24 7
l133 354h332z" />
    <glyph glyph-name="six.fitted" unicode="&#xe205;" 
d="M570 291c0 -156 -137 -304 -295 -304c-122 0 -204 75 -204 198c0 89 45 164 102 229l284 326h34l-251 -288l2 -1c38 23 83 38 129 38c116 0 199 -81 199 -198zM540 287c0 101 -72 175 -173 175c-145 0 -265 -133 -265 -275c0 -106 71 -173 177 -173
c144 0 261 131 261 273z" />
    <glyph glyph-name="seven.fitted" unicode="&#xe206;" horiz-adv-x="482" 
d="M572 740l-5 -27l-462 -713h-31l461 713h-361l5 27h393z" />
    <glyph glyph-name="eight.fitted" unicode="&#xe207;" 
d="M565 611c0 -85 -64 -162 -140 -192c74 -25 120 -91 120 -169c0 -140 -132 -263 -270 -263c-107 0 -188 74 -188 182c0 116 90 217 198 250c-51 24 -81 75 -81 131c0 107 108 203 213 203c83 0 148 -57 148 -142zM535 606c0 72 -53 120 -123 120c-93 0 -178 -82 -178 -176
c0 -71 53 -119 123 -119c93 0 178 82 178 175zM514 246c0 94 -69 158 -162 158c-122 0 -235 -109 -235 -232c0 -94 70 -158 163 -158c122 0 234 109 234 232z" />
    <glyph glyph-name="nine.fitted" unicode="&#xe208;" 
d="M621 555c0 -89 -45 -164 -102 -229l-284 -326h-34l251 288l-1 1c-38 -23 -85 -38 -129 -38c-117 0 -200 81 -200 198c0 156 138 304 296 304c121 0 203 -75 203 -198zM590 553c0 106 -71 173 -176 173c-145 0 -262 -131 -262 -273c0 -101 72 -175 174 -175
c145 0 264 133 264 275z" />
    <glyph glyph-name="parenleft.cap" unicode="&#xe209;" horiz-adv-x="425" 
d="M549 880l-7 -35c-201 -112 -356 -347 -356 -580c0 -143 59 -291 179 -375l-7 -37c-48 35 -82 66 -117 116c-59 84 -87 190 -87 292c0 253 174 503 395 619z" />
    <glyph glyph-name="parenright.cap" unicode="&#xe20a;" horiz-adv-x="425" 
d="M392 473c0 -253 -173 -504 -395 -620l7 34c200 113 356 347 356 581c0 142 -60 291 -179 375l7 37c48 -35 82 -66 117 -116c59 -84 87 -189 87 -291z" />
    <glyph glyph-name="bracketleft.cap" unicode="&#xe20b;" horiz-adv-x="425" 
d="M500 880l-7 -36c-97 -44 -156 -117 -175 -222l-95 -510c-3 -19 -6 -39 -6 -58c0 -74 35 -128 99 -163l-6 -36c-80 42 -125 103 -125 194c0 21 2 42 6 63l95 510c23 127 95 206 214 258z" />
    <glyph glyph-name="bracketright.cap" unicode="&#xe20c;" horiz-adv-x="425" 
d="M361 685c0 -21 -2 -42 -6 -63l-95 -510c-23 -126 -95 -205 -213 -257l6 36c97 44 156 116 175 221l95 510c3 20 6 39 6 59c0 74 -34 128 -99 163l7 36c79 -42 124 -103 124 -195z" />
    <glyph glyph-name="braceleft.cap" unicode="&#xe20d;" horiz-adv-x="425" 
d="M500 880l-5 -26h-54c-43 0 -58 -16 -70 -55c-6 -20 -10 -40 -14 -60l-34 -185c-12 -67 -52 -158 -116 -190c42 -20 53 -81 53 -123c0 -20 -2 -40 -6 -60l-34 -183c-4 -24 -9 -49 -9 -73c0 -37 15 -44 49 -44h54l-4 -26h-66c-47 0 -65 22 -65 68c0 20 2 39 6 58l34 183
c5 26 9 53 9 79c0 47 -13 84 -56 107l6 28c68 16 105 132 116 192l35 187c11 63 29 123 105 123h66z" />
    <glyph glyph-name="braceright.cap" unicode="&#xe20e;" horiz-adv-x="425" 
d="M373 378l-6 -28c-78 -36 -100 -107 -115 -186l-34 -183c-12 -63 -30 -126 -105 -126h-66l4 26h54c13 0 26 1 37 6c32 16 41 80 47 111l34 183c12 64 50 156 115 183c-42 26 -51 86 -51 131c0 20 2 40 5 59l34 185c5 23 9 47 9 70c0 36 -15 45 -49 45h-54l5 26h66
c46 0 65 -21 65 -67c0 -19 -3 -37 -6 -56l-35 -187c-5 -25 -7 -50 -7 -75c0 -38 8 -105 53 -117z" />
    <glyph glyph-name="guilsinglleft.cap" unicode="&#xe20f;" horiz-adv-x="248" 
d="M281 567l-127 -168l65 -165l-24 -26l-76 191l147 194z" />
    <glyph glyph-name="guilsinglright.cap" unicode="&#xe210;" horiz-adv-x="248" 
d="M261 399l-146 -191l-16 26l127 165l-65 168l25 26z" />
    <glyph glyph-name="guillemotleft.cap" unicode="&#xe211;" horiz-adv-x="351" 
d="M388 567l-127 -167l65 -166l-23 -26l-77 192l148 193zM277 567l-127 -167l65 -166l-24 -26l-76 192l147 193z" />
    <glyph glyph-name="guillemotright.cap" unicode="&#xe212;" horiz-adv-x="351" 
d="M368 400l-146 -192l-16 26l127 166l-65 167l25 26zM257 400l-147 -192l-15 26l127 166l-65 167l24 26z" />
    <glyph glyph-name="hyphen.cap" unicode="&#xe213;" horiz-adv-x="266" 
d="M345 415l-5 -29h-266l5 29h266z" />
    <glyph glyph-name="endash.cap" unicode="&#xe214;" horiz-adv-x="500" 
d="M534 415l-5 -29h-430l5 29h430z" />
    <glyph glyph-name="emdash.cap" unicode="&#xe215;" horiz-adv-x="1000" 
d="M1034 415l-5 -29h-930l5 29h930z" />
    <glyph glyph-name="exclamdown.cap" unicode="&#xe216;" horiz-adv-x="259" 
d="M116 0l106 574h30l-106 -574h-30zM238 659l15 81h30l-15 -81h-30z" />
    <glyph glyph-name="questiondown.cap" unicode="&#xe217;" horiz-adv-x="536" 
d="M103 158c0 110 82 168 158 232c66 56 94 100 109 184h30c-21 -99 -52 -146 -130 -212c-67 -56 -137 -102 -137 -200c0 -88 67 -143 151 -143c107 0 196 74 219 178h30c-27 -119 -130 -209 -253 -209c-100 0 -177 68 -177 170zM387 659l15 81h29l-15 -81h-29z" />
    <glyph glyph-name="periodcentered.cap" unicode="&#xe218;" horiz-adv-x="277" 
d="M224 420l-15 -81h-30l15 81h30z" />
    </font>
</defs>
</svg>
