<svg xmlns="http://www.w3.org/2000/svg" xmlns:xlink="http://www.w3.org/1999/xlink" width="593.213" height="584.656" viewBox="0 0 593.213 584.656"><defs><path id="a" d="M0 0h593.213v584.656H0z"/></defs><clipPath id="b"><use xlink:href="#a" overflow="visible"/></clipPath><path clip-path="url(#b)" fill="#DE0065" d="M539.497 149.091h-66.482c23.688-14.879 39.244-39.342 39.244-67.004 0-45.264-41.504-82.086-92.511-82.086-43.283 0-94.535 74.174-123.143 122.114C267.999 74.183 216.73.001 173.456.001c-51.007 0-92.511 36.83-92.511 82.086 0 27.662 15.548 52.125 39.244 67.004H53.724C24.104 149.091 0 173.188 0 202.799v85.153c0 21.095 12.252 39.327 29.986 48.104v194.877c0 29.627 24.097 53.724 53.708 53.724h429.79c29.627 0 53.725-24.097 53.725-53.724V333.886c15.555-9.414 26.005-26.446 26.005-45.926v-85.161c.007-29.611-24.089-53.708-53.717-53.708M53.724 292.724c-2.635 0-4.78-2.137-4.78-4.764v-85.161c0-2.627 2.145-4.764 4.78-4.764h218.403v94.681H53.724v.008zm267.354-94.689h218.419c2.635 0 4.78 2.137 4.78 4.764v85.153c0 2.627-2.146 4.764-4.78 4.764H321.078v-94.681zM419.74 48.944c23.615 0 43.568 15.181 43.568 33.143 0 17.963-19.953 33.143-43.568 33.143h-60.445c24.758-35.753 50.191-64.173 60.445-66.286m-246.961-.049c10.768 2.154 36.333 30.582 61.123 66.343h-60.446c-23.615 0-43.568-15.18-43.568-33.142 0-17.963 19.953-33.152 42.891-33.201M78.93 530.94V341.668h193.205v194.053H83.694c-2.627 0-4.764-2.145-4.764-4.781m434.562 4.781H321.078V341.668h197.193V530.94a4.786 4.786 0 0 1-4.779 4.781"/></svg>