<?xml version="1.0" standalone="no"?>
<!DOCTYPE svg PUBLIC "-//W3C//DTD SVG 1.1//EN" "http://www.w3.org/Graphics/SVG/1.1/DTD/svg11.dtd" >
<svg xmlns="http://www.w3.org/2000/svg">
<metadata>Generated by IcoMoon</metadata>
<defs>
<font id="perfectfit" horiz-adv-x="1024">
<font-face units-per-em="1024" ascent="960" descent="-64" />
<missing-glyph horiz-adv-x="1024" />
<glyph unicode="&#x20;" horiz-adv-x="512" d="" />
<glyph unicode="&#xe900;" glyph-name="arrow-down" d="M1023.968 447.984l-511.984-511.984-511.984 511.984 92.809 89.839 356.291-356.291v778.467h125.768v-778.467l359.293 356.291 89.807-89.839z" />
<glyph unicode="&#xe901;" glyph-name="arrow-drop-down" d="M298.005 533.995h428.011l-213.995-213.995z" />
<glyph unicode="&#xe902;" glyph-name="arrow-drop-up" d="M298.005 362.005l213.995 213.995 213.995-213.995h-428.011z" />
<glyph unicode="&#xe903;" glyph-name="barcode" d="M256 704h42.667v-448h-42.667v448zM490.667 704h-85.333v-448h85.333v448zM554.667 704h-42.667v-448h42.667v448zM640 704h-42.667v-448h42.667v448zM768 704h-42.667v-448h42.667v448zM704 704h-42.667v-448h42.667v448zM320 256h42.667v448h-42.667v-448zM256 192h64v42.667h-64v-42.667zM341.333 192h42.667v42.667h-42.667v-42.667zM405.333 192h42.667v42.667h-42.667v-42.667zM469.333 192h42.667v42.667h-42.667v-42.667zM533.333 192h42.667v42.667h-42.667v-42.667zM597.333 192h42.667v42.667h-42.667v-42.667zM682.667 192h85.333v42.667h-85.333v-42.667z" />
<glyph unicode="&#xe904;" glyph-name="camera" d="M0 768h256l64 128h384l64-128h256v-704h-1024zM288 416c0-123.712 100.288-224 224-224s224 100.288 224 224c0 123.712-100.288 224-224 224s-224-100.288-224-224z" />
<glyph unicode="&#xe905;" glyph-name="check" d="M384 269.995l452.011 452.011 60.011-60.011-512-512-237.995 237.995 60.011 60.011z" />
<glyph unicode="&#xe906;" glyph-name="circle-plus" d="M512 960c-282.784 0-512-229.216-512-512s229.216-512 512-512 512 229.216 512 512-229.216 512-512 512zM512 64c-212.064 0-384 171.936-384 384s171.936 384 384 384 384-171.936 384-384-171.936-384-384-384zM726.176 421.504h-184v-161.472h-60.384v161.472h-184v52.992h184v161.472h60.384v-161.472h184v-52.992z" />
<glyph unicode="&#xe907;" glyph-name="close" d="M810.005 685.995l-237.995-237.995 237.995-237.995-60.011-60.011-237.995 237.995-237.995-237.995-60.011 60.011 237.995 237.995-237.995 237.995 60.011 60.011 237.995-237.995 237.995 237.995z" />
<glyph unicode="&#xe908;" glyph-name="dot" horiz-adv-x="1015" d="M610.969 447.946c0-57.126-46.309-103.435-103.435-103.435s-103.435 46.309-103.435 103.435c0 57.126 46.309 103.435 103.435 103.435s103.435-46.309 103.435-103.435z" />
<glyph unicode="&#xe909;" glyph-name="edit" d="M732.843 581.76l-273.92-273.92-87.040 87.040 273.92 273.92zM345.493 368.555l-50.432-131.221c-2.155-5.611 0.64-8.405 6.229-6.251l131.243 50.411-87.040 87.061z" />
<glyph unicode="&#xe90a;" glyph-name="eye-open" d="M519.403 627.563c-210.005 0-317.184-189.995-317.184-189.995s150.72-159.339 317.184-159.339 317.184 159.339 317.184 159.339-107.2 189.995-317.184 189.995zM500.843 429.781l-15.659-15.659c-11.477 7.296-20.075 18.325-25.131 31.125l17.344 17.323c1.984-14.421 10.816-26.667 23.445-32.789zM433.92 468.224c0-47.189 38.272-85.525 85.483-85.525s85.483 38.336 85.483 85.525c0 29.227-14.741 55.019-37.163 70.443 23.296-3.563 45.867-9.408 67.285-16.683 7.616-16.363 11.989-34.517 11.989-53.76 0-70.485-57.131-127.595-127.595-127.595s-127.616 57.131-127.616 127.595c0 18.773 4.16 36.565 11.456 52.608 21.269 7.68 43.925 13.995 67.733 17.749-22.357-15.424-37.056-41.173-37.056-70.357zM350.805 497.963c-1.685-9.664-2.752-19.563-2.752-29.739 0-46.528 18.581-88.619 48.64-119.488-62.251 27.136-111.275 67.392-134.656 88.832 17.259 15.872 48.555 39.509 88.768 60.395zM639.936 346.475c31.36 31.040 50.795 74.112 50.795 121.749 0 11.029-1.152 21.781-3.115 32.235 44.971-21.461 80.448-46.421 98.453-62.912-23.979-22.016-78.741-63.915-146.133-91.072z" />
<glyph unicode="&#xe90b;" glyph-name="facebook" d="M928 960h-832c-52.8 0-96-43.2-96-96v-832c0-52.8 43.2-96 96-96h416v448h-128v128h128v64c0 105.792 86.208 192 192 192h128v-128h-128c-35.2 0-64-28.8-64-64v-64h192l-32-128h-160v-448h288c52.8 0 96 43.2 96 96v832c0 52.8-43.2 96-96 96z" />
<glyph unicode="&#xe90c;" glyph-name="hamburger" d="M64 768h896v-192h-896zM64 512h896v-192h-896zM64 256h896v-192h-896z" />
<glyph unicode="&#xe90d;" glyph-name="image" d="M959.872 832l0.128-0.128v-767.776l-0.128-0.128-895.904 0.128v767.776l0.128 0.128h895.776zM960 896h-896c-35.2 0-64-28.8-64-64v-768c0-35.2 28.8-64 64-64h896c35.2 0 64 28.8 64 64v768c0 35.2-28.8 64-64 64zM832 672c0-53.019-42.981-96-96-96s-96 42.981-96 96c0 53.019 42.981 96 96 96s96-42.981 96-96zM896 128h-768v128l224 384 256-320h64l224 192z" />
<glyph unicode="&#xe90e;" glyph-name="loading" d="M728.992 448c137.76 87.328 231.008 255.2 231.008 448 0 21.664-1.184 43.040-3.488 64h-889.056c-2.221-19.155-3.488-41.348-3.488-63.838 0-0.057 0-0.114 0-0.171 0-192.791 93.248-360.663 231.008-447.991-137.76-87.328-231.008-255.2-231.008-448 0-21.664 1.184-43.040 3.488-64h889.056c2.221 19.155 3.488 41.348 3.488 63.838 0 0.057 0 0.114 0 0.171 0 192.791-93.248 360.663-231.008 447.991zM160 0c0 186.912 80.16 345.408 224 397.696v100.576c-143.84 52.288-224 210.784-224 397.696h704c0-186.912-80.16-345.408-224-397.696v-100.576c143.84-52.288 224-210.784 224-397.696h-704zM619.616 290.4c-71.648 40.64-75.616 93.376-75.616 125.376v64.224c0 32 3.808 84.928 75.744 125.664 38.496 22.368 71.808 56.352 97.056 98.336h-409.568c25.28-42.016 58.624-76.032 97.152-98.4 71.648-40.64 75.616-93.376 75.616-125.376v-64.224c0-32-3.808-84.928-75.744-125.664-72.608-42.176-126.752-125.696-143.104-226.336h501.664c-16.352 100.704-70.528 184.256-143.2 226.4z" />
<glyph unicode="&#xe90f;" glyph-name="login" d="M576 253.376v52.768c70.496 39.712 128 138.784 128 237.824 0 159.072 0 288-192 288s-192-128.928-192-288c0-99.072 57.504-198.112 128-237.824v-52.768c-217.088-17.76-384-124.416-384-253.376h896c0 128.96-166.912 235.648-384 253.376z" />
<glyph unicode="&#xe910;" glyph-name="navigate-next" horiz-adv-x="454" d="M86.254 960l367.953-512-367.953-512-86.254 120 281.646 392.027-281.646 392.027 86.254 119.947z" />
<glyph unicode="&#xe911;" glyph-name="plus" d="M810.005 405.995h-256v-256h-84.011v256h-256v84.011h256v256h84.011v-256h256v-84.011z" />
<glyph unicode="&#xe912;" glyph-name="register" d="M917.792 730.912c-22.208 30.304-53.184 65.696-87.168 99.712s-69.408 64.96-99.712 87.168c-51.584 37.824-76.576 42.208-90.912 42.208h-496c-44.161-0.055-79.945-35.839-80-79.995v-864.005c0-44.096 35.904-80 80-80h736c44.096 0 80 35.904 80 80v624c0 14.336-4.384 39.36-42.208 90.912zM785.376 785.376c25.342-25.084 49.094-51.625 71.178-79.544l-152.554-1.832v153.952c29.751-23.482 56.292-47.234 81.303-72.502zM896 16c0-8.672-7.328-16-16-16h-736c-8.786 0.124-15.876 7.214-16 15.988v864.012c0 8.672 7.328 16 16 16h496v-224c0-17.673 14.327-32 32-32h224v-624zM736 128h-448c-17.673 0-32 14.327-32 32s14.327 32 32 32h448c17.673 0 32-14.327 32-32s-14.327-32-32-32zM736 256h-448c-17.673 0-32 14.327-32 32s14.327 32 32 32h448c17.673 0 32-14.327 32-32s-14.327-32-32-32zM736 384h-448c-17.673 0-32 14.327-32 32s14.327 32 32 32h448c17.673 0 32-14.327 32-32s-14.327-32-32-32z" />
<glyph unicode="&#xe913;" glyph-name="remove" d="M810.005 405.995h-596.011v84.011h596.011v-84.011z" />
<glyph unicode="&#xe914;" glyph-name="scissors" d="M510.866 485.705c0 20.005 16.567 36.571 36.571 36.571s36.571-16.567 36.571-36.571-16.567-36.571-36.571-36.571-36.571 16.567-36.571 36.571zM547.438 657.152l227.438 289.719c6.568 8.811 16.959 14.455 28.669 14.455 1.173 0 2.332-0.057 3.476-0.167 12.435-1.707 23.297-9.131 29.002-19.993l36.571-73.143c2.514-4.62 3.992-10.117 3.992-15.96 0-0.213-0.002-0.426-0.006-0.639 0-6.258-1.718-12.549-4.571-17.669l-221.147-394.277 37.705-62.866c1.134-2.304 2.304-4.571 2.853-6.839 17.701 5.157 36.571 7.424 55.442 5.705 58.843-5.157 114.871-44.581 154.843-107.447 30.866-48.567 48.018-104.558 48.018-158.281 0-51.419-15.433-94.866-44.581-126.866-26.251-28.178-63.57-45.745-104.993-45.745-4.676 0-9.299 0.224-13.86 0.661-57.714 5.112-114.29 44.536-154.263 106.817-30.866 48.567-48.018 105.143-48.018 158.866 0 32 6.29 61.147 17.701 86.272-5.042 3.344-9.236 7.538-12.48 12.419l-41.829 69.867-41.728-69.705c-3.344-5.042-7.538-9.236-12.419-12.48 11.285-25.262 17.539-54.373 17.539-86.373 0-53.723-17.152-110.299-48.018-158.866-40.009-62.281-96.585-101.705-154.843-106.862-4.017-0.404-8.682-0.635-13.401-0.635-41.217 0-78.327 17.587-104.234 45.667-29.785 32.097-45.218 75.544-45.218 126.963 0 53.723 17.152 109.714 48.018 158.281 39.424 62.866 96 102.29 154.843 107.447 3.755 0.332 8.124 0.522 12.537 0.522 15.296 0 30.061-2.275 43.974-6.506-0.484 2.583 0.65 4.851 1.784 7.118l37.705 62.866-221.147 394.277c-2.848 5.11-4.538 11.204-4.571 17.691 0 5.715 1.134 11.457 3.986 16.577l36.571 73.143c5.705 10.862 16.567 18.286 29.147 20.005 1.014 0.103 2.191 0.161 3.382 0.161 11.696 0 22.072-5.648 28.55-14.366zM398.848 267.995c-32 34.853-89.71 13.129-128.585-48.567-22.272-34.853-33.719-75.447-33.719-109.714 0-26.295 6.839-49.701 20.553-64.585 32-34.853 89.71-13.129 128.585 48.567 22.272 34.853 33.719 74.862 33.719 109.714 0 26.295-6.839 49.701-20.553 64.585zM824.576 219.429c-38.839 61.696-96.585 83.419-128.585 48.567-13.714-14.848-20.553-38.29-20.553-64.585 0-34.853 11.447-74.862 33.719-109.714 38.839-61.696 96.585-83.419 128.585-48.567 13.714 14.848 20.553 38.29 20.553 64.585 0 34.304-11.447 74.862-33.719 109.714zM474.295 321.134l33.134 54.857h-6.29c-13.636 0.241-25.478 7.691-31.904 18.692l-4.668 8.188-26.843-45.129 14.848-14.848c4.571-4.571 9.143-8.009 13.129-12.581 1.719-1.719 2.304-2.853 3.438-3.986zM602.295 449.134l18.286 54.857-329.143 420.571-36.571-73.143 246.272-438.857h64.585l54.857-91.429 4.571 5.157c1.719 1.134 2.304 2.304 3.438 3.986 4.571 4.571 9.143 8.009 13.714 12.581l14.848 14.848zM840.009 851.419l-36.571 73.143-233.143-297.143 78.848-101.157c2.304-1.719 2.853-4.571 3.986-7.424z" />
<glyph unicode="&#xe915;" glyph-name="select-arrow" horiz-adv-x="2309" d="M2308.587 765.542l-1154.294-829.542-1154.294 829.542 270.537 194.458 883.817-634.966 883.817 634.966 270.418-194.458z" />
<glyph unicode="&#xe916;" glyph-name="slide-next" horiz-adv-x="329" d="M340.005 411.429c-0.207-5.138-2.346-9.74-5.707-13.131l-266.275-266.275c-3.438-3.438-8.558-5.705-13.129-5.705s-9.728 2.304-13.129 5.705l-28.562 28.562c-3.457 3.325-5.628 7.966-5.705 13.115 0.207 5.153 2.346 9.755 5.706 13.145l224.584 224.584-224.585 224.585c-3.438 3.438-5.705 8.558-5.705 13.129s2.304 9.728 5.705 13.129l28.562 28.562c3.438 3.438 8.558 5.705 13.129 5.705s9.728-2.304 13.129-5.705l266.277-266.277c3.37-3.381 5.514-7.988 5.704-13.093z" />
<glyph unicode="&#xe917;" glyph-name="slide-prev" horiz-adv-x="402" d="M358.29 649.143c-0.207-5.138-2.346-9.74-5.707-13.131l-224.584-224.584 224.585-224.585c3.438-3.438 5.705-8.558 5.705-13.129s-2.304-9.728-5.705-13.129l-28.562-28.562c-3.438-3.438-8.558-5.705-13.129-5.705s-9.728 2.304-13.129 5.705l-266.277 266.277c-3.438 3.438-5.705 8.558-5.705 13.129s2.304 9.728 5.705 13.129l266.277 266.277c3.438 3.438 8.558 5.705 13.129 5.705s9.728-2.304 13.129-5.705l28.562-28.562c3.457-3.325 5.628-7.966 5.705-13.115z" />
<glyph unicode="&#xe918;" glyph-name="spinner" d="M384 832c0 70.692 57.308 128 128 128s128-57.308 128-128c0-70.692-57.308-128-128-128s-128 57.308-128 128zM791.008 448c0 57.985 47.007 104.992 104.992 104.992s104.992-47.007 104.992-104.992c0-57.985-47.007-104.992-104.992-104.992s-104.992 47.007-104.992 104.992zM688.416 176.48c0.009 52.526 42.592 95.104 95.12 95.104 52.533 0 95.12-42.587 95.12-95.12 0-0.006 0-0.011 0-0.017-0.009-52.526-42.592-95.103-95.12-95.103-52.533 0-95.12 42.587-95.12 95.12 0 0.006 0 0.011 0 0.017zM425.856 64c-0.010 0.494-0.016 1.076-0.016 1.66 0 47.576 38.568 86.144 86.144 86.144s86.144-38.568 86.144-86.144c0-0.584-0.006-1.166-0.017-1.747-0.93-46.77-39.134-84.397-86.127-84.397s-85.196 37.627-86.127 84.397zM162.464 176.48c-0.010 0.465-0.016 1.014-0.016 1.564 0 43.105 34.943 78.048 78.048 78.048s78.048-34.943 78.048-78.048c0-0.561-0.006-1.121-0.018-1.679-0.894-42.329-35.487-76.369-78.030-76.369-42.555 0-77.155 34.057-78.031 76.402zM57.344 448c0 39.022 31.634 70.656 70.656 70.656s70.656-31.634 70.656-70.656c0-39.022-31.634-70.656-70.656-70.656s-70.656 31.634-70.656 70.656zM176.48 719.52c0 35.346 28.654 64 64 64s64-28.654 64-64c0-35.346-28.654-64-64-64s-64 28.654-64 64zM899.456 719.52c0-64.030-51.906-115.936-115.936-115.936s-115.936 51.906-115.936 115.936c0 64.030 51.906 115.936 115.936 115.936s115.936-51.906 115.936-115.936z" />
<glyph unicode="&#xe919;" glyph-name="spinner-1" d="M512 656.896c-32.96 0-59.68 26.72-59.68 59.68v179.072c0 32.96 26.72 59.68 59.68 59.68s59.68-26.72 59.68-59.68v-179.072c0-32.96-26.72-59.68-59.68-59.68zM512-36.96c-20.607 0-37.312 16.705-37.312 37.312v179.072c0 20.607 16.705 37.312 37.312 37.312s37.312-16.705 37.312-37.312v-179.072c0-20.608-16.704-37.312-37.312-37.312zM377.76 624.64c-0.010 0-0.021 0-0.033 0-20.613 0-38.624 11.144-48.336 27.736l-89.679 155.336c-4.106 7.596-6.519 16.628-6.519 26.223 0 30.928 25.072 56 56 56 19.902 0 37.38-10.382 47.312-26.026l89.671-155.3c4.705-8.024 7.484-17.672 7.484-27.968 0-30.893-25.015-55.943-55.895-56zM735.84 26.752c-0.006 0-0.014 0-0.022 0-12.371 0-23.181 6.686-29.013 16.641l-89.622 155.231c-2.827 4.815-4.497 10.604-4.497 16.784 0 18.54 15.029 33.569 33.569 33.569 12.36 0 23.16-6.68 28.986-16.627l89.622-155.23c2.833-4.818 4.507-10.614 4.507-16.8 0-18.537-15.026-33.565-33.562-33.568zM279.328 530.048c-8.864 0-17.824 2.24-26.048 7.008l-155.072 89.536c-15.715 9.197-26.102 25.993-26.102 45.216 0 28.837 23.377 52.214 52.214 52.214 9.614 0 18.622-2.599 26.358-7.132l154.826-89.403c15.758-9.181 26.18-25.997 26.18-45.248 0-28.825-23.367-52.192-52.192-52.192-0.058 0-0.116 0-0.173 0zM899.648 194.336c-0.011 0-0.025 0-0.038 0-5.468 0-10.588 1.486-14.98 4.075l-154.934 89.461c-8.979 5.257-14.914 14.855-14.914 25.84 0 16.481 13.361 29.842 29.842 29.842 5.497 0 10.646-1.486 15.069-4.078l154.931-89.46c9.005-5.246 14.96-14.856 14.96-25.856 0-16.471-13.353-29.824-29.824-29.824-0.039 0-0.079 0-0.118 0zM243.424 399.52h-179.072c-26.775 0-48.48 21.705-48.48 48.48s21.705 48.48 48.48 48.48h179.072c26.775 0 48.48-21.705 48.48-48.48s-21.705-48.48-48.48-48.48zM959.648 418.144h-179.072c-16.489 0-29.856 13.367-29.856 29.856s13.367 29.856 29.856 29.856h179.072c16.489 0 29.856-13.367 29.856-29.856s-13.367-29.856-29.856-29.856zM124.352 179.392c-0.021 0-0.047 0-0.072 0-24.725 0-44.768 20.043-44.768 44.768 0 16.493 8.919 30.903 22.196 38.67l155.284 89.65c6.421 3.771 14.142 5.998 22.384 5.998 24.724 0 44.766-20.042 44.766-44.766 0-16.482-8.907-30.884-22.171-38.654l-155.283-89.65c-7.040-4.064-14.752-6.016-22.336-6.016zM744.64 552.448c-16.453 0.071-29.763 13.425-29.763 29.888 0 10.94 5.878 20.508 14.649 25.716l155.21 89.612c4.090 2.242 8.96 3.56 14.139 3.56 16.489 0 29.856-13.367 29.856-29.856 0-10.669-5.597-20.032-14.014-25.311l-155.197-89.609c-4.26-2.514-9.386-4-14.859-4-0.007 0-0.015 0-0.022 0zM288.128 19.296c-22.642 0.044-40.979 18.408-40.979 41.056 0 7.552 2.039 14.627 5.596 20.706l89.431 154.878c7.353 11.783 20.248 19.507 34.946 19.507 22.675 0 41.056-18.381 41.056-41.056 0-7.147-1.826-13.868-5.038-19.721l-89.429-154.859c-7.217-12.348-20.41-20.512-35.509-20.512-0.026 0-0.052 0-0.079 0zM646.272 650.752c-16.464 0.010-29.806 13.359-29.806 29.824 0 5.503 1.491 10.659 4.090 15.084l89.46 154.932c5.257 8.979 14.855 14.914 25.84 14.914 16.481 0 29.842-13.361 29.842-29.842 0-5.497-1.486-10.646-4.078-15.069l-89.46-154.931c-5.253-8.978-14.847-14.912-25.828-14.912-0.021 0-0.042 0-0.063 0z" />
<glyph unicode="&#xe91a;" glyph-name="star-full" d="M1024 562.944l-353.792 51.424-158.208 320.576-158.208-320.576-353.792-51.424 256-249.536-60.448-352.352 316.448 166.368 316.448-166.368-60.448 352.352 256 249.536z" />
<glyph unicode="&#xe91b;" glyph-name="star-half" d="M1024 562.944l-353.792 51.424-158.208 320.576-158.208-320.576-353.792-51.424 256-249.536-60.448-352.352 316.448 166.368 316.448-166.368-60.448 352.352 256 249.536zM512 206.496l-0.928-0.48 0.928 570.784 111.744-226.4 249.824-36.288-180.8-176.224 42.688-248.832-223.456 117.472z" />
<glyph unicode="&#xe91c;" glyph-name="trash" d="M522.189 649.318l-6.758 27.341-51.302-13.619 8.55-27.341-165.478-44.288 22.17-54.63 366.899 100.659-8.55 58.061-165.53-46.182zM332.749 514.611l42.65-360.192h290.099l42.598 360.192h-375.347zM426.65 224.41l-17.050 233.83h22.17l17.101-233.83h-22.221zM530.739 224.41h-22.17v233.83h22.17v-233.83zM612.71 224.41h-22.118l17.101 233.83h22.118l-17.101-233.83z" />
<glyph unicode="&#xe91d;" glyph-name="zoom" d="M992.256 88.608l-242.56 206.304c-25.088 22.56-51.904 32.928-73.568 31.936 57.085 66.428 91.84 153.482 91.84 248.653 0 0.187 0 0.373 0 0.56 0 212.035-171.936 383.971-384 383.971s-384-171.936-384-384 171.936-384 384-384c95.104 0 182.112 34.592 249.184 91.84-0.992-21.664 9.376-48.48 31.936-73.568l206.304-242.56c35.328-39.232 93.024-42.56 128.224-7.36s31.904 92.896-7.36 128.224zM384 320c-141.385 0-256 114.615-256 256s114.615 256 256 256c141.385 0 256-114.615 256-256s-114.615-256-256-256z" />
<glyph unicode="&#xe91e;" glyph-name="zp-cat" horiz-adv-x="740" d="M486.424 197.447c-19.103 21.314-56.205 46.258-77.676 46.258-16.735 0-32.523 0.947-48.469-2.526-40.575-8.999-70.887 5.842-88.886 42.785-1.105 3.315-4.421 5.526-7.894 6.789-17.998 5.526-29.208 19.103-34.891 37.259-1.105 4.263-4.421 8.999-7.894 13.262-17.998 20.366-19.103 32.681-3.315 55.257 22.577 32.681 40.575 66.625 46.101 105.936 7.894 51.784 35.049 89.991 77.676 117.146 17.998 11.209 37.101 21.314 55.257 31.418 4.421 10.104 2.368 25.892-10.104 48.469-23.524 31.576-14.683 77.676-9.157 76.571 6.789-1.105 55.257-50.679 72.15-53.994 5.526 5.684-13.578 62.046-19.103 91.254-1.263 5.684-2.368 22.577 12.315 21.471s57.31-31.576 57.31-31.576c65.362-47.364 64.099-75.466 109.252-117.146 53.994-24.787 68.677-42.785 103.41-71.993v251.027c-22.577 10.104-46.101 20.208-69.624 30.313-82.255 28.102-161.036 31.576-189.138 31.576-24.787 0-95.674-2.21-166.72-31.576-56.047-22.577-105.779-60.783-145.248-108.147-34.891-39.47-51.626-70.887-61.888-91.096-35.996-74.361-52.889-168.93-52.889-249.922 0-207.294 100.253-329.966 157.563-380.487 104.673-93.464 231.924-96.78 275.814-96.78 121.724 0 210.452 43.732 251.027 60.783v43.732c-0.947 1.263-155.037 50.837-224.977 123.935z" />
</font>
</defs>
</svg>
